<svg xmlns="http://www.w3.org/2000/svg" viewBox="0 0 750 500"><g id="freepik--background-complete--inject-47"><path d="M682.23,65.12c0,1.87.12,3.75.13,5.65V71h-.28c-4.41,0-8.83.15-13.24.16l-13.24.06h-.5v-.5l.06-11.19v-.45h.44c2.23,0,4.47,0,6.7,0l6.66.11,13.12.28Zm-13.49-5.26-6.58.11c-2.19.05-4.37,0-6.55.06l.45-.45.05,11.19-.5-.5,13.24.07c4.41,0,8.83.11,13.24.16l-.27.27c0-1.83.08-3.67.13-5.53l.14-5.66Z" style="fill:#ebebeb"></path><path d="M667.46,51c0,1.87.11,3.75.13,5.65v.27h-.28c-4.41.05-8.83.15-13.24.16l-13.24.06h-.5v-.5l0-11.19V45h.44c2.23,0,4.47,0,6.69,0l6.66.11,13.13.28ZM654,45.75l-6.58.11c-2.18,0-4.36,0-6.54.06l.44-.45.06,11.19-.5-.5,13.24.07c4.41,0,8.83.11,13.24.16l-.27.27c0-1.83.08-3.67.13-5.53l.14-5.66Z" style="fill:#ebebeb"></path><path d="M502.57,154.1c.05,1.87.11,3.75.13,5.65V160h-.27c-4.41.05-8.83.15-13.24.16l-13.24.06h-.5v-.5l.05-11.19v-.45H476c2.23,0,4.47,0,6.69,0l6.66.11,13.13.28Zm-13.5-5.26-6.58.11c-2.18.05-4.36,0-6.54.06l.44-.45.06,11.19-.5-.5,13.24.07c4.41,0,8.83.11,13.24.16l-.27.27c0-1.83.08-3.67.13-5.53l.14-5.66Z" style="fill:#ebebeb"></path><path d="M487.8,140c0,1.87.11,3.75.13,5.65v.27h-.27c-4.42.05-8.83.15-13.24.16l-13.24.06h-.51v-.5l.05-11.19V134h.45c2.23,0,4.47,0,6.69.05l6.66.11,13.13.28Zm-13.5-5.26-6.58.11c-2.19,0-4.36,0-6.54.06l.44-.45.06,11.19-.5-.5,13.24.07c4.41,0,8.82.11,13.24.16l-.28.27c0-1.83.09-3.67.14-5.53l.14-5.66Z" style="fill:#ebebeb"></path><path d="M697,51c0,1.87.11,3.75.13,5.65v.27h-.28c-4.41.05-8.82.15-13.24.16l-13.24.06h-.5v-.5l.06-11.19V45h.44c2.23,0,4.47,0,6.7,0l6.66.11,13.12.28Zm-13.5-5.26-6.58.11c-2.19,0-4.37,0-6.55.06l.45-.45,0,11.19-.5-.5,13.24.07c4.42,0,8.83.11,13.24.16l-.27.27c0-1.83.09-3.67.13-5.53l.14-5.66Z" style="fill:#ebebeb"></path><path d="M134.92,215.84c0-1.87-.11-3.76-.13-5.66v-.27h.27c4.42,0,8.83-.16,13.24-.16l13.24-.07h.51v.5l0,11.19v.45h-.45c-2.23,0-4.46,0-6.69-.06l-6.66-.11-13.13-.28Zm13.5,5.26L155,221c2.19,0,4.36,0,6.54,0l-.44.44,0-11.19.49.5-13.24-.06c-4.41,0-8.82-.11-13.24-.16l.28-.28c0,1.84-.09,3.68-.13,5.54l-.15,5.65Z" style="fill:#ebebeb"></path><path d="M67.77,303c0-1.87-.12-3.76-.13-5.65V297h.28c4.41,0,8.83-.16,13.24-.16l13.24-.06h.5v.51l-.06,11.19v.44h-.44c-2.23,0-4.47,0-6.7-.05L81,308.77l-13.12-.27Zm13.49,5.26,6.58-.12c2.19,0,4.37,0,6.55-.05l-.45.45,0-11.19.5.5-13.24-.07c-4.41,0-8.83-.11-13.24-.16l.27-.27c0,1.83-.08,3.67-.13,5.53l-.14,5.66Z" style="fill:#ebebeb"></path><path d="M53,317.07c0-1.87-.11-3.76-.13-5.65v-.27h.28c4.41-.05,8.82-.16,13.24-.16l13.24-.06h.5v.51l-.06,11.19v.44h-.44c-2.23,0-4.47,0-6.7-.05l-6.66-.12-13.12-.27Zm13.5,5.26,6.58-.12c2.19,0,4.37,0,6.55,0l-.45.45,0-11.19.5.49-13.24-.06c-4.42,0-8.83-.11-13.24-.16l.27-.27c0,1.83-.09,3.67-.13,5.53l-.14,5.66Z" style="fill:#ebebeb"></path><path d="M670,317.07c0-1.87-.11-3.76-.13-5.65v-.27h.28c4.41-.05,8.82-.16,13.24-.16l13.24-.06h.5v.51l-.06,11.19v.44h-.44c-2.23,0-4.47,0-6.7-.05l-6.66-.12-13.12-.27Zm13.5,5.26,6.58-.12c2.19,0,4.36,0,6.55,0l-.45.45-.05-11.19.5.49-13.24-.06c-4.42,0-8.83-.11-13.24-.16l.27-.27c0,1.83-.09,3.67-.13,5.53l-.14,5.66Z" style="fill:#ebebeb"></path><path d="M94.64,51c0,1.87.12,3.75.14,5.65v.27H94.5c-4.41.05-8.82.15-13.24.16L68,57.16h-.5v-.5l.06-11.19V45H68c2.23,0,4.47,0,6.7,0l6.66.11,13.12.28ZM81.15,45.75l-6.58.11c-2.19,0-4.37,0-6.55.06l.45-.45,0,11.19-.5-.5,13.24.07c4.42,0,8.83.11,13.24.16l-.27.27c0-1.83.09-3.67.13-5.53l.14-5.66Z" style="fill:#ebebeb"></path><path d="M69.83,45.87H208.3V246.29H69.83Zm134.43,4H73.88V242.25H204.26Z" style="fill:#ebebeb"></path><rect x="137.05" y="50.97" width="4.04" height="193.3" style="fill:#ebebeb"></rect><rect x="66.17" y="54.05" width="145.8" height="5.63" transform="translate(278.14 113.72) rotate(180)" style="fill:#ebebeb"></rect><rect x="66.17" y="60.38" width="145.8" height="5.63" transform="translate(278.14 126.39) rotate(180)" style="fill:#ebebeb"></rect><rect x="66.17" y="66.71" width="145.8" height="5.63" transform="translate(278.14 139.06) rotate(180)" style="fill:#ebebeb"></rect><rect x="66.17" y="73.05" width="145.8" height="5.63" transform="translate(278.14 151.73) rotate(180)" style="fill:#ebebeb"></rect><rect x="66.17" y="79.38" width="145.8" height="5.63" transform="translate(278.14 164.4) rotate(180)" style="fill:#ebebeb"></rect><rect x="66.17" y="85.72" width="145.8" height="5.63" transform="translate(278.14 177.07) rotate(180)" style="fill:#ebebeb"></rect><rect x="66.17" y="92.05" width="145.8" height="5.63" transform="translate(278.14 189.74) rotate(180)" style="fill:#ebebeb"></rect><rect x="66.17" y="98.39" width="145.8" height="5.63" transform="translate(278.14 202.41) rotate(180)" style="fill:#ebebeb"></rect><rect x="66.17" y="104.72" width="145.8" height="5.63" transform="translate(278.14 215.08) rotate(180)" style="fill:#ebebeb"></rect><rect x="78.18" y="52.9" width="1.01" height="129.79" style="fill:#263238"></rect><polygon points="76.89 187.4 80.47 187.4 79.58 182.25 77.79 182.25 76.89 187.4" style="fill:#263238"></polygon><rect x="74.53" y="52.9" width="1.01" height="187.76" style="fill:#263238"></rect><polygon points="73.25 244.45 76.83 244.45 75.93 239.3 74.14 239.3 73.25 244.45" style="fill:#263238"></polygon><rect x="59.89" y="45.08" width="158.35" height="11.78" transform="translate(278.14 101.94) rotate(180)" style="fill:#dbdbdb"></rect><path d="M305.77,45.87H444.23V246.29H305.77Zm134.42,4H309.81V242.25H440.19Z" style="fill:#ebebeb"></path><rect x="372.98" y="50.97" width="4.04" height="193.3" style="fill:#ebebeb"></rect><rect x="302.1" y="54.05" width="145.8" height="5.63" transform="translate(750 113.72) rotate(180)" style="fill:#ebebeb"></rect><rect x="302.1" y="60.38" width="145.8" height="5.63" transform="translate(750 126.39) rotate(180)" style="fill:#ebebeb"></rect><rect x="302.1" y="66.71" width="145.8" height="5.63" transform="translate(750 139.06) rotate(180)" style="fill:#ebebeb"></rect><rect x="302.1" y="73.05" width="145.8" height="5.63" transform="translate(750 151.73) rotate(180)" style="fill:#ebebeb"></rect><rect x="302.1" y="79.38" width="145.8" height="5.63" transform="translate(750 164.4) rotate(180)" style="fill:#ebebeb"></rect><rect x="302.1" y="85.72" width="145.8" height="5.63" transform="translate(750 177.07) rotate(180)" style="fill:#ebebeb"></rect><rect x="302.1" y="92.05" width="145.8" height="5.63" transform="translate(750 189.74) rotate(180)" style="fill:#ebebeb"></rect><rect x="302.1" y="98.39" width="145.8" height="5.63" transform="translate(750 202.41) rotate(180)" style="fill:#ebebeb"></rect><rect x="302.1" y="104.72" width="145.8" height="5.63" transform="translate(750 215.08) rotate(180)" style="fill:#ebebeb"></rect><rect x="314.11" y="52.9" width="1.01" height="129.79" style="fill:#263238"></rect><polygon points="312.82 187.4 316.41 187.4 315.51 182.25 313.72 182.25 312.82 187.4" style="fill:#263238"></polygon><rect x="310.47" y="52.9" width="1.01" height="187.76" style="fill:#263238"></rect><polygon points="309.18 244.45 312.77 244.45 311.87 239.3 310.08 239.3 309.18 244.45" style="fill:#263238"></polygon><rect x="295.82" y="45.08" width="158.35" height="11.78" transform="translate(750 101.94) rotate(180)" style="fill:#dbdbdb"></rect><rect x="532.33" y="123.74" width="166.63" height="7.31" style="fill:#ebebeb"></rect><rect x="541.67" y="131.05" width="7.31" height="24.17" style="fill:#ebebeb"></rect><rect x="541.67" y="131.05" width="7.31" height="7.47" style="fill:#dbdbdb"></rect><rect x="682.32" y="131.05" width="7.31" height="24.17" style="fill:#ebebeb"></rect><rect x="682.32" y="131.05" width="7.31" height="7.47" style="fill:#dbdbdb"></rect><rect x="550.01" y="94.59" width="46.57" height="11.73" transform="translate(673.75 -472.84) rotate(90)" style="fill:#c7c7c7"></rect><rect x="570.74" y="71.38" width="5.12" height="11.73" transform="translate(650.54 -496.06) rotate(90)" style="fill:#dbdbdb"></rect><rect x="572.35" y="81.44" width="1.9" height="11.73" transform="translate(660.6 -485.99) rotate(90)" style="fill:#dbdbdb"></rect><rect x="571.47" y="108.48" width="5.12" height="13.19" transform="translate(689.1 -458.96) rotate(90)" style="fill:#dbdbdb"></rect><rect x="556.1" y="92.48" width="54.33" height="8.2" transform="translate(679.84 -486.68) rotate(90)" style="fill:#dbdbdb"></rect><rect x="572.78" y="82.51" width="20.89" height="4.92" transform="translate(668.2 -498.25) rotate(90)" style="fill:#ebebeb"></rect><rect x="596.31" y="97.64" width="54.33" height="8.2" transform="translate(251.57 -408.9) rotate(44.67)" style="fill:#c7c7c7"></rect><rect x="615.86" y="102.05" width="20.89" height="4.92" transform="translate(254.34 -410.1) rotate(44.67)" style="fill:#dbdbdb"></rect><rect x="573.68" y="96.16" width="41.26" height="13.92" transform="translate(697.43 -491.19) rotate(90)" style="fill:#a6a6a6"></rect><rect x="592.39" y="110.49" width="3.85" height="13.92" transform="translate(711.77 -476.86) rotate(90)" style="fill:#c7c7c7"></rect><rect x="593.57" y="105.3" width="1.49" height="13.92" transform="translate(706.57 -482.05) rotate(90)" style="fill:#c7c7c7"></rect><rect x="543.24" y="99.55" width="38.78" height="9.61" transform="translate(666.99 -458.27) rotate(90)" style="fill:#a6a6a6"></rect><rect x="560.82" y="113.03" width="3.61" height="9.61" transform="translate(680.46 -444.79) rotate(90)" style="fill:#c7c7c7"></rect><rect x="560.82" y="89.96" width="3.61" height="9.61" transform="translate(657.4 -467.86) rotate(90)" style="fill:#c7c7c7"></rect><rect x="561.93" y="94.95" width="1.4" height="9.61" transform="translate(662.38 -462.87) rotate(90)" style="fill:#c7c7c7"></rect><path d="M669.27,74.06c-8.2,8-9.58,20.46-7.85,31.34,0,.25.42.18.42-.05,0-2.48-.07-4.93-.06-7.38l.12-.33a16.44,16.44,0,0,0,5.33-5.73c1.37-2.69,1.91-5.73,3-8.54.1-.27-.19-.19-.38-.06-5,3.68-6.58,7.65-8,12.94a44.26,44.26,0,0,1,.87-8.24,28.08,28.08,0,0,1,6.82-13.73C669.62,74.14,669.41,73.92,669.27,74.06Z" style="fill:#a6a6a6"></path><path d="M670.81,75c1.41,0,2.3,2.3,3.4,3a1.05,1.05,0,0,0,1.55-.24c1.09-1.52-.4-3.4-1.81-4.45a16.17,16.17,0,0,0,2.93,1.35,1,1,0,0,0,1.32-.8c.47-2.07-2.13-3-3.91-3,.86-.6,3.34-2.23,2-3s-4.25,1.53-5.2,2.31c-1.39,1.13-3.06,2.82-3.12,4.59C667.92,76.7,669.72,75.43,670.81,75Z" style="fill:#dbdbdb"></path><path d="M670.4,75.35c1.81-.82,5.27.36,5.57-.32.59-1.39-2.18-2.35-3.67-2.53,1.38-.38,4-1,3.93-2.3-.1-1.62-4-.22-6,1.31-2.52,1.93-2.5,3.79-2.09,4.16C668.68,76.18,670.1,75.48,670.4,75.35Z" style="fill:#ebebeb"></path><path d="M650.59,73.27c8.5,7.71,10.35,20.07,9,31,0,.25-.42.2-.43,0-.1-2.48-.12-4.93-.22-7.38l-.14-.32A16.62,16.62,0,0,1,653.3,91c-1.47-2.64-2.12-5.66-3.28-8.43-.11-.27.18-.2.38-.07,5.12,3.49,6.86,7.39,8.5,12.62a44.32,44.32,0,0,0-1.19-8.2,28,28,0,0,0-7.33-13.46A.15.15,0,0,1,650.59,73.27Z" style="fill:#a6a6a6"></path><path d="M649.08,74.26c-1.41.1-2.2,2.39-3.28,3.09a1.06,1.06,0,0,1-1.56-.18c-1.15-1.48.27-3.41,1.64-4.52A16.15,16.15,0,0,1,643,74.11a1,1,0,0,1-1.35-.74c-.56-2.05,2-3.08,3.79-3.19-.89-.56-3.43-2.1-2.14-3s4.3,1.37,5.27,2.1c1.44,1.08,3.17,2.71,3.3,4.47C652,75.86,650.18,74.65,649.08,74.26Z" style="fill:#dbdbdb"></path><path d="M649.5,74.6c-1.83-.76-5.25.56-5.57-.12-.65-1.36,2.08-2.42,3.57-2.66-1.39-.32-4-.82-4-2.15,0-1.62,4-.38,6.09,1.08,2.59,1.83,2.64,3.69,2.24,4.08S649.81,74.72,649.5,74.6Z" style="fill:#ebebeb"></path><path d="M659.28,93.64a84.29,84.29,0,0,0,2.64,12.19.31.31,0,0,0,.6-.12c-.56-3.75-1.58-7.44-2.14-11.2a56.06,56.06,0,0,1-.65-11.5c.36-6.34,2.08-13.07,6.21-18,.09-.12-.1-.28-.2-.17-8.27,9.64-7,21.47-7,22.53-1.17-4-2.37-8.57-6.8-12.64-.2-.17-.34-.09-.31.21.79,7.41,2.85,11.27,7.14,15.23C658.94,91.32,659.1,92.48,659.28,93.64Z" style="fill:#a6a6a6"></path><path d="M666,66.09c1.49-.66,3.54,1.23,5,1.36a1.22,1.22,0,0,0,1.49-1c.36-2.13-2.13-3.32-4.12-3.71,1.25-.07,2.48.26,3.71-.07a1.18,1.18,0,0,0,1-1.49c-.54-2.39-3.71-2-5.58-1.18.59-1.06,2.34-4,.57-4.18s-3.63,3.73-4.23,5c-.88,1.88-1.75,4.47-.92,6.34C663.87,69.32,665.1,67.09,666,66.09Z" style="fill:#dbdbdb"></path><path d="M665.76,66.66c1.46-1.76,5.65-2.28,5.62-3.14-.08-1.74-3.44-1.34-5.08-.78,1.24-1.08,3.68-3,2.93-4.36-.92-1.63-4.32,1.8-5.62,4.4-1.64,3.27-.69,5.19-.07,5.37C664.39,68.39,665.52,67,665.76,66.66Z" style="fill:#ebebeb"></path><path d="M653.84,95.87l-3.65,27.88h22.2c-.45-2.47-4.59-27.91-4.59-27.91Z" style="fill:#dbdbdb"></path></g><g id="freepik--Plant--inject-47"><path d="M649,278.46a43.18,43.18,0,0,1-.84,16.64,45.32,45.32,0,0,1-2.55,7.35c-1.32,3-2.7,6-2.37,9.35.32.21-.78.18-.82-.15-8.9-5.06-20.31-6-27.16-14.28-3.24-3.92-4.88-8.89-5.66-13.87-.84-5.41-1.07-11.41.33-16.74,1.17-4.52,3.81-8.87,8-11.09s10.12-2.08,14.73-.65C642.6,258.11,647.55,268.84,649,278.46Z" style="fill:#FFC727"></path><path d="M653.52,344.34q-1.82-6.07-3.67-12.13c-2.45-7.91-5-15.79-7.79-23.58q-2.53-7-5.33-13.86a83.43,83.43,0,0,1,1.06-8.6c.75-3.45,1.83-6.79,2.83-10.16.07-.21-.27-.32-.36-.12-2,4.65-4.6,10.6-4.67,16.11q-3.26-7.77-7-15.31a65.58,65.58,0,0,1,.39-12.75.15.15,0,0,0-.3-.06,45,45,0,0,0-.87,11.26Q625,269.47,621.75,264c-.2-.33-.65,0-.48.34,3.34,6.44,6.44,13,9.35,19.67a42.89,42.89,0,0,0-14-8.08c-.22-.07-.39.25-.16.34a51,51,0,0,1,15.09,10q3.14,7.32,6,14.75c-5.57-5.45-13.19-9-20.56-11-.25-.07-.32.32-.08.39,8.53,2.57,15.16,7.4,21.65,13.21q1.13,3,2.22,6,4.13,11.43,7.85,23,1.8,5.55,3.53,11.11c1.25,4,2.22,8.21,3.84,12.06.15.37.82.29.73-.15A114.72,114.72,0,0,0,653.52,344.34Z" style="fill:#263238"></path><path d="M638.76,270.67a22.25,22.25,0,0,0-3.21,8c0,.07.1.12.13,0a68.49,68.49,0,0,1,3.48-7.84C639.29,270.6,638.91,270.44,638.76,270.67Z" style="fill:#263238"></path><path d="M622.88,289.21a23.55,23.55,0,0,0-8-2.69c-.08,0-.12.1,0,.13,1.29.53,2.64.91,3.94,1.41s2.57,1.11,3.89,1.57A.23.23,0,0,0,622.88,289.21Z" style="fill:#263238"></path><path d="M618.41,266.91a15.23,15.23,0,0,0-2.57-1.59.14.14,0,0,0-.15.23,16.44,16.44,0,0,0,2.54,1.64C618.39,267.29,618.57,267,618.41,266.91Z" style="fill:#263238"></path><path d="M679,308.69c-6.41,1.9-12.86,3.66-19.26,5.54-.56.17-11.4-20.6-7.48-31.29,3.62-9.9,11.9-17.31,21.78-20.68,4.58-1.55,10.21-2.86,15-1.79,4.3.95,7.34,4.47,8.74,8.51,1.9,5.5,1.26,12,.23,17.66a30.83,30.83,0,0,1-6.31,14.41C688.3,305.1,684,307.21,679,308.69Z" style="fill:#FFC727"></path><path d="M688.25,289a85.45,85.45,0,0,1-12.57,4.95,53.38,53.38,0,0,0-8.39,3c2.71-6,5.68-11.94,8.83-17.8,4.14-1.2,8.5-3.07,11.62-6a.18.18,0,0,0-.23-.27c-3.42,2.42-7.19,3.87-11,5.5q1.28-2.37,2.59-4.72a.4.4,0,0,0-.66-.45,136.16,136.16,0,0,0-9.1,15.3,69.83,69.83,0,0,1-.66-14c0-.12-.17-.13-.19,0a46.83,46.83,0,0,0,.16,15.4q-3.37,6.74-6.14,13.74c-.73-2.8-1.68-5.55-2.31-8.37a38.54,38.54,0,0,1-.92-12.34c0-.12-.17-.13-.19,0a43.53,43.53,0,0,0,2.69,22.65c-1.07,2.8-2.09,5.61-3,8.43a168.18,168.18,0,0,0-8.5,44.47.27.27,0,0,0,.54,0,220.08,220.08,0,0,1,9.55-44c1.86-5.59,4-11,6.34-16.34,3.79-1.12,7.56-2.63,11.28-3.92s7.35-2.71,10.39-5.1C688.51,289.08,688.38,288.89,688.25,289Z" style="fill:#263238"></path><path d="M694.23,282.92c-3.92,1.4-7.64,3.35-11.56,4.76-.18.07-.07.36.11.32,4.15-.85,8.26-2.13,11.59-4.85A.14.14,0,0,0,694.23,282.92Z" style="fill:#263238"></path><path d="M662.22,274.47c0-.21-.26-.33-.32-.12-1.08,3.62-1.82,7.45-.77,11.14a.14.14,0,0,0,.27,0C661.59,281.75,661.38,278.13,662.22,274.47Z" style="fill:#263238"></path><path d="M678.41,266.12a9.63,9.63,0,0,0-1.7,6.14c0,.14.23.22.27.06.47-2.07,1.27-3.95,1.91-6A.27.27,0,0,0,678.41,266.12Z" style="fill:#263238"></path><path d="M602.71,317.85c1.88,6,6.35,14.2,13.42,14.27,4.58,0,9.2-.5,13.79-.57,4.93-.07,9.86-.06,14.77.23.4,0-.59-14.73-12.42-21.92-3.31-2-7.36-2.65-11.12-3.46A51.09,51.09,0,0,0,608,305c-2.71.11-5,.68-5.94,3.46S601.81,315,602.71,317.85Z" style="fill:#FFC727"></path><path d="M607.8,310.38c2.88.74,5.78,1.59,8.66,2.51a30.8,30.8,0,0,0-2.38-2.33c-1.24-1-2.6-1.85-3.93-2.75-.11-.08,0-.29.09-.24a16.32,16.32,0,0,1,7,5.55c3.59,1.16,7.15,2.44,10.58,3.85a40,40,0,0,1,6.78,3.57,27.82,27.82,0,0,0-2.46-4.27c-1.56-2-3.69-3.16-5.74-4.61a.18.18,0,0,1,.18-.31,16.81,16.81,0,0,1,9.22,10,39.21,39.21,0,0,1,6.71,6.09c7.83,8.89,14,20.71,14,32.78,0,.28-.46.37-.52.07a66.82,66.82,0,0,0-14.92-32.05c-.56-.66-1.13-1.28-1.72-1.88a51.57,51.57,0,0,0-6.46-.48c-2.52,0-5,.37-7.52.57-4.13.34-8.7.39-12.42-1.69-.17-.09-.06-.38.13-.31,8.3,3,17-.81,25.33,1a38.88,38.88,0,0,0-12.27-7.92l-.77-.3c-5.32.64-11,2-16.14.29a.13.13,0,0,1,.07-.24c5,1.25,9.82-.32,14.77-.57-5.39-2.1-10.88-3.77-16.28-5.85C607.32,310.67,607.31,310.26,607.8,310.38Z" style="fill:#263238"></path><path d="M605.45,315.63a72,72,0,0,0,7.76.59.05.05,0,0,1,0,.1,16,16,0,0,1-7.82-.5C605.27,315.79,605.33,315.61,605.45,315.63Z" style="fill:#263238"></path><path d="M623,310.51a12.82,12.82,0,0,1,3.84,2.67c.13.12,0,.36-.2.25-.65-.47-1.32-.92-2-1.35s-1.3-.72-1.87-1.18A.24.24,0,0,1,623,310.51Z" style="fill:#263238"></path><path d="M664.73,329.71c-.09.2.19.38.3.18h0a.29.29,0,0,0,.18.12,120.65,120.65,0,0,0,14.45,2.52c3.91.34,8.42.56,11.84-1.71,4.64-3.07,7.69-11.3,5.18-16.52-3-6.2-11.9-2.84-16.39-.63A32.87,32.87,0,0,0,664.73,329.71Z" style="fill:#FFC727"></path><path d="M661.26,332.58a46,46,0,0,1,8.62-6.56,29.54,29.54,0,0,1,8.75-8.92c.17-.12.32.15.16.27a39.51,39.51,0,0,0-7.37,7.76,80.65,80.65,0,0,1,10.82-4.93,14.47,14.47,0,0,1,5.81-5.82c.05,0,.11,0,.07.08a23.64,23.64,0,0,0-5.25,5.51c2.19-.82,4.42-1.59,6.63-2.32.2-.07.28.23.09.31-4,1.54-8,3.17-11.91,5.05a46.19,46.19,0,0,0,14.42,0,.1.1,0,1,1,.06.2,28.4,28.4,0,0,1-15.3.23,73.33,73.33,0,0,0-7.26,4.06,18.29,18.29,0,0,1,5.87.48,44.19,44.19,0,0,0,10.31,1.17c.13,0,.16.21,0,.23-6,1-11.64-1.69-17.56-1a43.86,43.86,0,0,0-15.17,17.74c-2.5,5.08-3.85,10.46-5.87,15.71a.19.19,0,0,1-.37-.1C648.57,351.36,653.72,340,661.26,332.58Z" style="fill:#263238"></path><path d="M679.29,318.4a6.86,6.86,0,0,1,1.53-1.86,5.86,5.86,0,0,1,1.77-1.32c.06,0,.09.06,0,.1-.49.55-1.17,1-1.7,1.49s-1,1.17-1.51,1.7A.09.09,0,0,1,679.29,318.4Z" style="fill:#263238"></path><path d="M689.15,321.61c.89-.22,1.83-.21,2.73-.39a26.71,26.71,0,0,0,2.64-.79c.12,0,.18.13.08.19a8.81,8.81,0,0,1-5.45,1.27A.15.15,0,0,1,689.15,321.61Z" style="fill:#263238"></path><polygon points="636.62 348.96 637.4 357.87 640.07 387.97 663.63 387.97 666.96 357.87 667.95 348.96 636.62 348.96" style="fill:#455a64"></polygon><polygon points="636.62 348.96 637.4 357.87 666.96 357.87 667.95 348.96 636.62 348.96" style="fill:#263238"></polygon><rect x="634.29" y="346.53" width="35.99" height="7.23" transform="translate(1304.56 700.29) rotate(180)" style="fill:#455a64"></rect></g><g id="freepik--Floor--inject-47"><polygon points="48.87 387.97 130.4 387.72 211.93 387.63 375 387.47 538.07 387.63 619.6 387.72 701.13 387.97 619.6 388.21 538.07 388.3 375 388.46 211.93 388.3 130.4 388.21 48.87 387.97" style="fill:#263238"></polygon></g><g id="freepik--Shadow--inject-47"><ellipse cx="374.75" cy="431.82" rx="284.07" ry="23.35" style="fill:#ebebeb"></ellipse></g><g id="freepik--character-1--inject-47"><path d="M231.17,359.39c-2,.64-58.1-.09-60.22-1.48-.81-.51-1.18-8.69-1.35-18.6V339c0-2-.07-4.14-.07-6.27,0-.29,0-.59,0-.88-.08-14.29.15-29.12.15-29.12l37.55.38L206.09,332,206,333.1l-.22,6,0,.61s21.36,9.89,23.53,11.66S233.14,358.77,231.17,359.39Z" style="fill:#ad6359"></path><path d="M214.3,343.52c-.15,0-.22-.08-.23-.13Z" style="fill:#FFC727"></path><path d="M231.16,359.39c-2,.64-58.09-.09-60.21-1.48-.72-.45-1.1-7-1.29-15.37,10.29,2.15,50.14,10.21,51.24,6.8.42-1.34-3-3.65-5.14-5,5.89,2.81,12.42,6,13.57,7C231.47,353.1,233.14,358.76,231.16,359.39Z" style="fill:#FFC727"></path><path d="M195.91,359.3c-12.63-.3-24-.78-25-1.39-.72-.45-1.1-7-1.29-15.37,1.46.3,3.52.73,6,1.22Z" style="opacity:0.1"></path><path d="M158.15,141.05s8.43,94.84,9.8,102.08c.32,1.65.51,10.61.64,22.14.3,25.14.12,70.49.12,70.49h39.57s-1.18-78.57-2.93-93S192.4,141.05,192.4,141.05Z" style="fill:#37474f"></path><path d="M206.49,328.86c-6.17-.13-4.4-.18-10.58-.24-3,0-22.87-.2-25.7.27a.06.06,0,0,0,0,.12c2.83.47,22.68.3,25.7.27,6.18-.06,4.41-.11,10.58-.24A.09.09,0,1,0,206.49,328.86Z" style="fill:#263238"></path><path d="M176.23,284q-.06-8.61-.13-17.22c0-5.56,0-11.12-.3-16.67-.53-11.25-2.81-22.3-4.44-33.42s-3-22.29-4.2-33.46c-1.37-12.53-2.59-25.09-3.87-37.63,0-.09-.15-.09-.14,0,1.87,22.4,3.95,44.79,7,67.06q1.16,8.31,2.52,16.58c.93,5.58,1.85,11.17,2.29,16.82s.5,11.07.55,16.61l.18,17.21c.12,12.74.24,32.34.37,45.08a.19.19,0,0,0,.38,0C176.4,313.54,176.32,295.31,176.23,284Z" style="fill:#263238"></path><path d="M149.81,141.05S166.58,235.89,168,243.13c.32,1.65.51,10.61.64,22.14v0l18.86-124.25Z" style="fill:#263238"></path><path d="M137.6,362.58c-2-.32-51.8-26.32-53.06-28.51-.5-.83,2.87-8.3,7.2-17.21l.14-.27c.88-1.84,18.65-31.8,18.65-31.8l30.6,18-17,30.25-.3.54s14.59,18.47,15.73,21S139.64,362.91,137.6,362.58Z" style="fill:#ad6359"></path><path d="M137.6,362.58c-2-.32-51.79-26.32-53.06-28.52-.42-.7,2-6.26,5.37-13.4,7.13,5.39,41.56,31.25,44.08,28.56.53-.57.13-1.91-.57-3.35a90.68,90.68,0,0,1,6.17,8.7C140.71,357.11,139.64,362.91,137.6,362.58Z" style="fill:#FFC727"></path><path d="M128.56,331.89,92.3,309.49s42-60,42.15-65.35c.29-7.93,4.09-40.64,7.29-67.12,0,0-6.06-14.35,5.27-36h45.43s-3.05,20.62-8.26,33.69a60.5,60.5,0,0,0-10.1,4.61s-4.52,59.05-4.69,66.42C169.06,260.29,128.56,331.89,128.56,331.89Z" style="fill:#37474f"></path><path d="M130.78,323.53c-5.23-3.28-3.69-2.42-9-5.64-2.58-1.58-19.53-11.92-22.19-13-.06,0-.12.07-.07.11,2.18,1.85,19.31,11.9,21.92,13.42,5.33,3.12,3.83,2.17,9.2,5.23A.09.09,0,0,0,130.78,323.53Z" style="fill:#263238"></path><path d="M185.91,173.8a74.78,74.78,0,0,0-11.83,5.51.13.13,0,0,0,.11.24c4-1.71,8.05-3.35,11.93-5.27A.26.26,0,0,0,185.91,173.8Z" style="fill:#263238"></path><path d="M180.34,167.22c.39-2.37.71-4.75.91-7.15a65.32,65.32,0,0,0-.14-13.41.12.12,0,0,0-.23,0,124.47,124.47,0,0,1-1.08,18.51c-.45,2.95-1.93,7.39,1.15,7.85s5.17-7,5.56-9a67.87,67.87,0,0,0,.66-17.55c0-.14-.25-.17-.25,0a133.07,133.07,0,0,1-.67,13.31c-.18,2.05-1.83,13.39-5.39,12.56-.6-.14-.9-.72-1-1.62a13.82,13.82,0,0,1,.47-3.48" style="fill:#263238"></path><path d="M181,172.63a19.12,19.12,0,0,0-.8,2.35,5.33,5.33,0,0,0-.33,1.93c0,.12.18.14.25.05a6.88,6.88,0,0,0,.82-1.88c.27-.73.56-1.45.81-2.18A.4.4,0,0,0,181,172.63Z" style="fill:#263238"></path><path d="M152.35,143.87a41.39,41.39,0,0,0-3.4,7.49,45.73,45.73,0,0,0-2,8c-.26,1.34-.34,2.71-.49,4.07s-.16,2.73-.08,4.09a43.48,43.48,0,0,0,.95,8.12v.1q-1.56,17.18-3.25,34.36T140.7,244.4l-.11,1.08-.05.53a2.2,2.2,0,0,1-.12.59,17.65,17.65,0,0,1-1,2c-.72,1.26-1.48,2.48-2.23,3.71l-4.58,7.31c-3.08,4.86-6.23,9.67-9.37,14.49-6.27,9.65-12.66,19.21-19.06,28.76l18.5-29.12,9.2-14.59,4.55-7.32c.74-1.22,1.49-2.45,2.2-3.69.34-.6.73-1.29,1-1.81a1.33,1.33,0,0,0,.08-.47l0-.53.11-1.07q1.62-17.18,3.39-34.33t3.52-34.31v.1a43.91,43.91,0,0,1-.87-8.24c-.06-1.38.08-2.76.15-4.14s.3-2.75.59-4.1a46.35,46.35,0,0,1,2.2-7.95A42.36,42.36,0,0,1,152.35,143.87Z" style="fill:#263238"></path><polygon points="233.29 173.9 210.44 400.58 204.86 400.58 227.16 179.44 179.36 179.44 139.03 400.58 133.39 400.58 174.73 173.9 233.29 173.9" style="fill:#FFC727"></polygon><rect x="170.87" y="222.63" width="56.49" height="5.54" style="fill:#FFC727"></rect><rect x="161.9" y="267.58" width="56.49" height="5.54" style="fill:#FFC727"></rect><rect x="152.35" y="312.53" width="61.64" height="5.54" style="fill:#FFC727"></rect><rect x="144.99" y="357.48" width="65.6" height="5.54" style="fill:#FFC727"></rect><g style="opacity:0.5"><polygon points="233.29 173.9 210.44 400.58 204.86 400.58 227.16 179.44 179.36 179.44 139.03 400.58 133.39 400.58 174.73 173.9 233.29 173.9"></polygon><rect x="170.87" y="222.63" width="56.49" height="5.54"></rect><rect x="161.9" y="267.58" width="56.49" height="5.54"></rect><rect x="152.35" y="312.53" width="61.64" height="5.54"></rect><rect x="144.99" y="357.48" width="65.6" height="5.54"></rect></g><polygon points="279.73 418.75 274.09 418.75 228.72 179.44 180.94 179.44 208.24 418.75 202.67 418.75 174.73 173.9 233.31 173.9 279.73 418.75" style="fill:#FFC727"></polygon><polygon points="279.73 418.75 274.09 418.75 228.72 179.44 180.94 179.44 208.24 418.75 202.67 418.75 174.73 173.9 233.31 173.9 279.73 418.75" style="opacity:0.2"></polygon><rect x="171.05" y="167.29" width="64.96" height="6.61" style="fill:#FFC727"></rect><rect x="171.05" y="167.29" width="64.96" height="6.61" style="opacity:0.2"></rect><path d="M216.75,98.77a.39.39,0,0,1-.36.38l-1.64-.06c-1.05-4-2.3-7.12-2-5.9a19.82,19.82,0,0,1,.41,5.82c-.72,0-2.39-.13-3.22-.18-.56-6.8-1.65-11.92-1.72-10.38-.24,6.2-.82,8.14-1.47,10.21-7.77-.46-18-1.17-25.32-1.85-.45-3.77-.77-7.84-.93-7.58a19.21,19.21,0,0,0-2.08,7.3c-2.34-.23-4.21-.46-5.34-.66,0,0-.22-3.15-.19-4.18A21.41,21.41,0,0,1,174.53,84a38.82,38.82,0,0,1,4.15-6.85l0,0s0,0,0,0a21.43,21.43,0,0,0,2.47-4.6s0,0,0,0a21.12,21.12,0,0,0,1-3.63c.82-4.51,3.8-8.18,8.21-8.93,8-5.24,16.65-2.71,18.48,3.39.17.59.33,1.27.48,2v0c.55,2.72.93,6.21,1.34,8.92a0,0,0,0,0,0,0s0,0,0,0h0a27.15,27.15,0,0,0,.64,3.15C212.9,82.4,217.28,85.59,216.75,98.77Z" style="fill:#263238"></path><path d="M188.42,61a8.65,8.65,0,0,0-5.7,6.4A22.27,22.27,0,0,1,181,72.89a20.57,20.57,0,0,1-3.76,4.64,14.85,14.85,0,0,0-4.55,7.78,25.2,25.2,0,0,0-.12,10.41s0,0,0,0a26.86,26.86,0,0,1,.77-10.79c1-3.54,3.28-5.6,5.66-8.12a15.16,15.16,0,0,0,3.85-7A18,18,0,0,1,184.23,65a9.86,9.86,0,0,1,4.36-3.66A.19.19,0,0,0,188.42,61Z" style="fill:#263238"></path><path d="M215.53,83c-1.71-2.79-3.54-5.2-4.36-8.53-.75-3-1-6.18-1.8-9.21a0,0,0,0,0-.07,0c1.11,5.35.88,10.61,3.76,15.31a33.75,33.75,0,0,1,4.05,7.91,25.59,25.59,0,0,1,.89,9.56c0,.11.14.12.16,0A21.06,21.06,0,0,0,215.53,83Z" style="fill:#263238"></path><path d="M190.23,104.58c.74,7.6,5.88,33.61,13.1,40.14,5.18,4.69,24.08,10.6,39,12.09,5.16.51,4.25-21.77-.3-25-2.74-1.93-24.58-3.22-27.81-4.94-2.42-1.28-6.86-14.34-16.13-26.69C193,93.41,189.22,94.36,190.23,104.58Z" style="fill:#ad6359"></path><path d="M241,156.67c2.95.31,19.6,2.1,23.42,1.31s14.63-3.83,14.33-6.81-3.55-2.34-3.55-2.34,4.37-2,3.79-5-5.58-1.81-5.58-1.81,4.33-2.39,3.54-5.32-5.63-.92-5.63-.92,4.07-2,2.4-4.14c-2-2.57-9.07,2-13.35,2.52-1,.12-19.87,1.12-19.87,1.12Z" style="fill:#ad6359"></path><path d="M271.74,135.63c-5.21,3.32-8.06,3.88-14.14,3.9-.12,0-.15.18,0,.19,6,.52,9.64.34,14.34-3.85C272.15,135.67,272,135.47,271.74,135.63Z" style="fill:#263238"></path><path d="M273.82,141.76c-5.71,3-8.8,3.6-15.17,4.1-.09,0-.09.16,0,.16,6.29,0,10-.23,15.27-4C274.16,141.9,274.08,141.62,273.82,141.76Z" style="fill:#263238"></path><path d="M274.88,148.84c-5.74,2.49-9.1,3.32-15.34,3a.12.12,0,0,0,0,.23c6.33.94,10.53-.07,15.42-3.05C275.27,148.82,275.24,148.69,274.88,148.84Z" style="fill:#263238"></path><path d="M236.05,133s7-4.73,10.33-5.73,17.14-.14,17.12,2.85c0,3.87-8.09,4.94-12.11,4.95,0,0,0,8.93-5.66,11S236.05,133,236.05,133Z" style="fill:#ad6359"></path><path d="M263.14,131.18c-2.56,3.51-7.83,3.18-11.73,3.48a.36.36,0,0,0-.32.5c-.27,3.74-1.74,8.94-5.14,11a.09.09,0,0,0,.08.16c3.94-1.67,5.8-6.67,5.83-10.79,4-.24,9.31-.15,11.32-4.29C263.19,131.18,263.16,131.16,263.14,131.18Z" style="fill:#263238"></path><path d="M199.49,145.59,211.84,122a232.48,232.48,0,0,0-13-22.42c-6.9-10.24-11.42-10.57-9.79,4.77S194.28,138,199.49,145.59Z" style="fill:#FFC727"></path><path d="M199.49,145.59,211.84,122a232.48,232.48,0,0,0-13-22.42c-6.9-10.24-11.42-10.57-9.79,4.77S194.28,138,199.49,145.59Z" style="fill:#FFC727"></path><path d="M192.79,95.48a1.39,1.39,0,1,1-1.26-1.5A1.39,1.39,0,0,1,192.79,95.48Zm-2.24,20.18.27,1.64a1.36,1.36,0,0,0,.16-.53A1.31,1.31,0,0,0,190.55,115.66Zm11.58.67a1.38,1.38,0,1,0,1.26,1.49A1.37,1.37,0,0,0,202.13,116.33Zm-5.35-10.59a1.38,1.38,0,1,0-.23,2.76,1.38,1.38,0,0,0,.23-2.76Zm3.55,31.88a1.38,1.38,0,1,0,1.26,1.49A1.39,1.39,0,0,0,200.33,137.62ZM195,127a1.39,1.39,0,1,0,1.26,1.5A1.38,1.38,0,0,0,195,127Zm12.41,1.05a1.39,1.39,0,1,0-.24,2.76h.07l1.15-2.21A1.35,1.35,0,0,0,207.39,128.08Z" style="fill:#fff"></path><path d="M208.85,120.63c-1.89,3.17-3.65,6.38-5.31,9.67q-1.24,2.49-2.43,5c-.8,1.71-1.49,3.47-2.25,5.19,0,.09.09.13.13.05,1.6-3.34,3.33-6.63,5-9.94s3.32-6.6,5-9.9C209,120.63,208.89,120.57,208.85,120.63Z" style="fill:#263238"></path><path d="M209.13,127.19l-9.64,18.4c-5.22-7.63-8.8-25.88-10.44-41.22-.94-8.79.15-12.44,2.55-12Z" style="opacity:0.1"></path><path d="M193.12,144.72,147,141s19.51-41.41,32.72-49.84c6-3.84,10.44-1.88,13.52,2.36.77,1.06,8.94,19.52,8.59,25.14-.31,5-5.49,9.23-5.49,9.23Z" style="fill:#FFC727"></path><path d="M180.38,94.43a1.39,1.39,0,1,1-1.26-1.5A1.39,1.39,0,0,1,180.38,94.43ZM191.53,94a1.39,1.39,0,1,0,1.26,1.5A1.39,1.39,0,0,0,191.53,94ZM164.9,113.17a1.38,1.38,0,1,0,1.26,1.5A1.38,1.38,0,0,0,164.9,113.17Zm12.41,1a1.38,1.38,0,1,0,1.26,1.5A1.38,1.38,0,0,0,177.31,114.22Zm12.41,1a1.38,1.38,0,1,0,1.26,1.5A1.38,1.38,0,0,0,189.72,115.27Zm11.95,1.1a1.37,1.37,0,0,0-1,1.22,1.35,1.35,0,0,0,1.17,1.47l0-.39A11.09,11.09,0,0,0,201.67,116.37ZM172,103.64a1.38,1.38,0,1,0-.23,2.75,1.38,1.38,0,0,0,.23-2.75Zm12.41,1a1.38,1.38,0,1,0,1.26,1.49A1.37,1.37,0,0,0,184.37,104.69Zm12.41,1a1.38,1.38,0,1,0-.23,2.76,1.38,1.38,0,0,0,.23-2.76Zm-46,27.69-1.19,2.32a1.36,1.36,0,0,0,.87.42,1.38,1.38,0,0,0,.32-2.74Zm12.33,1a1.39,1.39,0,1,0,1.26,1.5A1.39,1.39,0,0,0,163.1,134.46Zm12.41,1a1.4,1.4,0,0,0-1.5,1.27,1.38,1.38,0,0,0,2.76.23A1.39,1.39,0,0,0,175.51,135.51Zm12.41,1.06a1.38,1.38,0,1,0,1.26,1.49A1.39,1.39,0,0,0,187.92,136.57Zm-30.18-12.69a1.38,1.38,0,0,0-.23,2.75,1.38,1.38,0,1,0,.23-2.75Zm12.42,1.05a1.39,1.39,0,0,0-.24,2.76,1.4,1.4,0,0,0,1.5-1.27A1.38,1.38,0,0,0,170.16,124.93Zm12.41,1a1.38,1.38,0,0,0-1.5,1.26,1.39,1.39,0,1,0,1.5-1.26ZM195,127a1.39,1.39,0,1,0,1.26,1.5A1.38,1.38,0,0,0,195,127Z" style="fill:#fff"></path><path d="M188.94,124.31a48.09,48.09,0,0,0-7.19.59c-1.18.2-2.35.46-3.51.74-.58.14-1.16.26-1.75.38a7.71,7.71,0,0,1-1.85.2c-.06,0-.06.08,0,.08a11.69,11.69,0,0,0,1.77.11,12.1,12.1,0,0,0,1.7-.18c1.2-.19,2.39-.44,3.59-.65,2.41-.41,4.82-.83,7.26-1.07C189.06,124.5,189.05,124.31,188.94,124.31Z" style="fill:#263238"></path><path d="M194.68,126.9a53.65,53.65,0,0,0-5.91-.76c-1-.07-2-.08-3-.06-.47,0-.94,0-1.42,0s-1,.12-1.56.14c-.06,0-.06.08,0,.08.5,0,1,.08,1.48.11l1.48.08,3,.17c2,.09,4,.2,5.94.37A.09.09,0,0,0,194.68,126.9Z" style="fill:#263238"></path><path d="M175.47,94c-15.58,12.16-29.61,21.45-30.87,29.82-1.88,12.55,6.25,39.49,10.82,45.13,2,2.43,23.11-9.63,21.78-12.71-1.59-3.69-11.29-29.21-10.75-31.19.91-3.4,5.69-9,15.34-25.34C189.26,87,181.46,89.32,175.47,94Z" style="fill:#ad6359"></path><path d="M171,149.41s5.44,1.74,11.56,3c3.41.69,9.17,2.38,11.44,4,3.41,2.47,16.1,15,13.13,18.11-2.68,2.84-12.21-9.28-12.21-9.28s10.7,11.38,6.84,14.21S189,167.14,189,167.14s10.73,11.94,6.29,14.23C191.9,183.1,183,169.85,183,169.85s9.15,10.33,5.78,12.25c-3.73,2.13-12.69-9.58-12.69-9.58-9.41,3.45-18.36,1-21.7-4.87C153.87,166.7,171,149.41,171,149.41Z" style="fill:#ad6359"></path><path d="M191.49,161.06c1.3,1.29,2.63,2.59,3.82,4s2.32,2.85,3.37,4.35a31.31,31.31,0,0,1,3.53,6.26,66.74,66.74,0,0,0-7.3-10.3c-1.18-1.4-2.29-2.86-3.48-4.26C191.4,161.06,191.46,161,191.49,161.06Z" style="fill:#263238"></path><path d="M186.34,165.25c1.6,1.72,3.25,3.37,4.77,5.16s2.79,3.61,4.17,5.49c.11.15,0,.16-.12,0-1.46-1.82-2.95-3.4-4.43-5.21s-2.89-3.67-4.43-5.42A0,0,0,1,1,186.34,165.25Z" style="fill:#263238"></path><path d="M181.28,168.05A52.5,52.5,0,0,1,188,176.5c.1.15-.05.15-.16,0-2.17-2.85-3.85-5.1-6.61-8.36C181.15,168.09,181.23,168,181.28,168.05Z" style="fill:#263238"></path><path d="M142.42,122.58l26.61-.17a234.69,234.69,0,0,0,13.68-22c5.8-10.9,4-15.05-8.81-6.4S146.71,114.38,142.42,122.58Z" style="fill:#FFC727"></path><path d="M180.38,94.43a1.39,1.39,0,1,1-1.26-1.5A1.39,1.39,0,0,1,180.38,94.43Zm-27.89,17.69a1.37,1.37,0,0,0-1.49,1.26,1.38,1.38,0,1,0,2.75.23A1.37,1.37,0,0,0,152.49,112.12Zm12.41,1a1.38,1.38,0,1,0,1.26,1.5A1.38,1.38,0,0,0,164.9,113.17Zm-4.13-9.55c-.66.53-1.31,1-2,1.58a1.2,1.2,0,0,0,.5.14,1.37,1.37,0,0,0,1.49-1.26A1.41,1.41,0,0,0,160.77,103.62Zm11.19,0a1.38,1.38,0,1,0-.23,2.75,1.38,1.38,0,0,0,.23-2.75Z" style="fill:#fff"></path><path d="M179.67,107.38a13.5,13.5,0,0,0-1.65,1.73l-.52.62c.73-1.25,1.44-2.49,2.16-3.75,0-.08-.07-.17-.13-.09-1.77,2.77-10,15.74-10.45,16.42-.06,0-1.44.07-1.48,0s0,.15,0,.13,1.86.14,1.87.13c.54-.52,6.65-10.54,7.37-11.76l.15-.15.43-.47c.27-.29.52-.59.78-.89a16.41,16.41,0,0,0,1.53-1.91A0,0,0,0,0,179.67,107.38Z" style="fill:#263238"></path><path d="M169.63,119.66a23.06,23.06,0,0,0-3-.27c-1-.08-2-.18-3-.24-1.93-.12-3.86-.19-5.79-.23a113,113,0,0,0-11.64.18c-.08,0-.08.14,0,.14,3.94.18,7.87.16,11.81.25l5.8.14c1,0,1.94,0,2.91.05s2,.14,2.91.07C169.69,119.75,169.68,119.67,169.63,119.66Z" style="fill:#263238"></path><path d="M184.34,90.94c0,.94,2.66,7.82,6.75,8.71,1.33.29,3.24-6.92,3.24-6.92l.26-.5,3.66-7-7.25-8-1.06-1.08s-.88,2-1.94,4.46l-.16.36-.18.4c-.16.37-.33.74-.48,1.12s-.24.57-.36.88l-.36.9A52.38,52.38,0,0,0,184.34,90.94Z" style="fill:#ad6359"></path><path d="M188,80.64a15.83,15.83,0,0,0,6.59,11.59l3.66-7-7.25-8-1.06-1.08S189.06,78.16,188,80.64Z" style="fill:#263238"></path><path d="M211.85,74.4C212,88.27,203.7,89.92,200.71,90c-2.72,0-12-.24-13.54-14s4.83-18.23,11-18.62S211.71,60.53,211.85,74.4Z" style="fill:#ad6359"></path><path d="M209.87,72c-.32,0-.62-.14-.93-.21a1.64,1.64,0,0,1-.92-.4.5.5,0,0,1,0-.6,1.21,1.21,0,0,1,1.21-.27,1.79,1.79,0,0,1,1.12.65A.53.53,0,0,1,209.87,72Z" style="fill:#263238"></path><path d="M200.36,71.88c.33,0,.62-.12.94-.18a1.55,1.55,0,0,0,.92-.38.48.48,0,0,0,0-.6,1.22,1.22,0,0,0-1.2-.3,1.8,1.8,0,0,0-1.14.62A.52.52,0,0,0,200.36,71.88Z" style="fill:#263238"></path><path d="M202.52,75.31s-.08,0-.07.09c0,.94-.08,2-.93,2.35,0,0,0,.06,0,.06C202.57,77.65,202.71,76.2,202.52,75.31Z" style="fill:#263238"></path><path d="M201.66,74.34c-1.52-.1-1.6,3-.19,3S202.94,74.42,201.66,74.34Z" style="fill:#263238"></path><path d="M201.06,74.48c-.27.17-.54.46-.86.49s-.65-.3-.88-.62c0,0,0,0,0,0,0,.58.18,1.19.8,1.29s1-.41,1.16-1C201.26,74.58,201.17,74.41,201.06,74.48Z" style="fill:#263238"></path><path d="M207.77,75.26s.07,0,.07.09c-.06.94,0,2,.87,2.37,0,0,0,.06,0,0C207.66,77.59,207.56,76.14,207.77,75.26Z" style="fill:#263238"></path><path d="M208.65,74.3c1.52-.06,1.53,3,.12,3S207.37,74.35,208.65,74.3Z" style="fill:#263238"></path><path d="M209.29,74.5c.24.16.48.45.76.47s.58-.31.8-.62c0,0,0,0,0,0,0,.58-.17,1.19-.73,1.3s-.89-.39-1-1C209.11,74.6,209.19,74.44,209.29,74.5Z" style="fill:#263238"></path><path d="M202.19,83.06c.21.24.42.56.76.61a2.62,2.62,0,0,0,1-.16s.06,0,0,0a1.27,1.27,0,0,1-1.23.42,1,1,0,0,1-.68-.88C202.09,83,202.16,83,202.19,83.06Z" style="fill:#263238"></path><path d="M206.2,79.71s.17,1.41.16,2.08c0,.06-.16.09-.39.1,0,0,0,0,0,0a3.18,3.18,0,0,1-3.05-1.23.07.07,0,0,1,.1-.09,4.75,4.75,0,0,0,2.88.87c0-.18-.38-2.41-.27-2.42a6.18,6.18,0,0,1,1.5.37c-.27-3-1-5.84-1.25-8.79a.09.09,0,0,1,.18,0A49,49,0,0,1,207.78,80C207.82,80.35,206.46,79.83,206.2,79.71Z" style="fill:#263238"></path><path d="M188.43,76.44c2.23.18,2.77-4.48,2.77-4.48s4.53,0,6.06-6.46a10,10,0,0,1-2,5.37s8-.79,11.4-7.45c0,0-1.37,3.39-2.63,4.59a9.33,9.33,0,0,0,5-3.62s1.37,3.87,2.44,4.94c0,0-.23-14-13.18-12.57,0,0-8.11.49-11.06,6.88S188.43,76.44,188.43,76.44Z" style="fill:#263238"></path><path d="M187.2,81.05a2.91,2.91,0,0,0,.63.21,2.15,2.15,0,0,0,.65.07,2,2,0,0,0,.81-.2,2.57,2.57,0,0,0,.56-.36,2.89,2.89,0,0,0,.58-.74L190,76.28s-2.69-4.55-4.73-3.62S185,80,187.2,81.05Z" style="fill:#ad6359"></path><path d="M185.77,74.48a0,0,0,0,0,0,.06,6,6,0,0,1,2.77,3.94,1.28,1.28,0,0,0-1.9-.5s0,.09,0,.09a1.44,1.44,0,0,1,1.55.62,7.94,7.94,0,0,1,.66,1.34c.06.15.33.09.29-.08v0C189.34,77.86,188,74.86,185.77,74.48Z" style="fill:#263238"></path><path d="M187.43,80.48a.64.64,0,1,0,1.28-.16.64.64,0,1,0-1.28.16Z" style="fill:#fff"></path><path d="M186.19,79.41a.45.45,0,0,0,.9-.11.45.45,0,0,0-.5-.4A.46.46,0,0,0,186.19,79.41Z" style="fill:#fff"></path></g><g id="freepik--Blocks--inject-47"><path d="M504.84,334.57V420.3H440.23a56,56,0,0,0-112,0H263.57V334.57Z" style="fill:#FFC727"></path><path d="M504.84,334.57V420.3H440.23a56,56,0,0,0-112,0H263.57V334.57Z" style="opacity:0.1"></path><path d="M485.92,334.57V420.3H421.31a56,56,0,0,0-112,0H244.65V334.57Z" style="fill:#FFC727"></path><path d="M485.92,334.57V420.3H421.31a56,56,0,0,0-112,0H244.65V334.57Z" style="fill:#fff;opacity:0.5"></path><rect x="244.65" y="240.3" width="110" height="94.27" style="fill:#455a64"></rect><rect x="322.38" y="240.3" width="32.28" height="94.27" style="fill:#37474f"></rect><rect x="244.65" y="153.14" width="260.19" height="87.08" style="fill:#FFC727"></rect><rect x="474.29" y="153.14" width="30.55" height="87.08" style="opacity:0.1"></rect><polygon points="310.22 90.32 346.76 90.32 425.96 153.14 389.42 153.14 310.22 90.32" style="fill:#37474f"></polygon><polygon points="231.01 153.14 389.42 153.14 310.22 90.32 231.01 153.14" style="fill:#455a64"></polygon><rect x="128.17" y="343.14" width="110" height="94.27" style="fill:#c7c7c7"></rect><rect x="205.89" y="343.14" width="32.28" height="94.27" style="fill:#a6a6a6"></rect><polygon points="315.2 447.54 222.03 447.54 222.03 354.37 315.2 447.54" style="fill:#455a64"></polygon><polygon points="222.03 354.37 315.2 447.54 349.05 447.54 255.14 353.63 222.03 354.37" style="fill:#37474f"></polygon></g><g id="freepik--character-2--inject-47"><path d="M657.15,445.27c-.22-2-23.64-52.5-25.75-53.85-.79-.53-8.34,2.45-17.36,6.32l-.29.12c-1.86.79-36.18,10-36.18,10l15.21,33,35.72-10.32.54-.26s17.61,15.3,20.09,16.55S657.38,447.3,657.15,445.27Z" style="fill:#f7a9a0"></path><path d="M607.23,399.78l15.65,32.42,5.61-1.62.55-.26s17.61,15.3,20.08,16.54,8.27.44,8-1.59-23.64-52.5-25.74-53.85c-.8-.53-8.35,2.45-17.38,6.32l-.27.12C613.29,398.06,610.76,398.79,607.23,399.78Z" style="fill:#ebebeb"></path><path d="M657.35,445.52c-.22-2.06-23.69-53.09-25.81-54.47-.81-.53-8.44,2.45-17.56,6.32l15,32.95s17.72,15.52,20.21,16.78S657.58,447.58,657.35,445.52Z" style="fill:#FFC727"></path><path d="M655,445.73c-4.14-8.46-20.06-43-23.51-51.65,0-.07,0-.09,0,0,4.3,8.29,19.93,42.93,23.61,51.6C655.19,445.85,655.06,445.91,655,445.73Z" style="fill:#263238"></path><path d="M645.89,444.67a7.59,7.59,0,0,1-.27-6.08,7.33,7.33,0,0,1,3.69-4c.06,0,.1.07.05.1a8.74,8.74,0,0,0-3.36,9.94C646,444.69,645.92,444.73,645.89,444.67Z" style="fill:#263238"></path><path d="M631.39,433.25c-1.62-3.41-2.24-7.93-.41-11.35.07-.13.25,0,.25.1a52.32,52.32,0,0,0,.61,11.11A.24.24,0,0,1,631.39,433.25Z" style="fill:#263238"></path><path d="M633.64,435.42c-1.62-3.41-2.24-7.93-.42-11.35.07-.13.26,0,.25.1a52.33,52.33,0,0,0,.62,11.11A.24.24,0,0,1,633.64,435.42Z" style="fill:#263238"></path><path d="M635.89,437.59c-1.63-3.41-2.24-7.93-.42-11.35.07-.13.26,0,.25.1a52.32,52.32,0,0,0,.61,11.11A.23.23,0,0,1,635.89,437.59Z" style="fill:#263238"></path><path d="M638.13,439.75c-1.62-3.4-2.24-7.92-.42-11.34.08-.13.26,0,.26.1a51.67,51.67,0,0,0,.61,11.11A.24.24,0,0,1,638.13,439.75Z" style="fill:#263238"></path><path d="M624.34,400c-1.76-3.85,4.22-6.58,6-2.73S626.1,403.85,624.34,400Z" style="fill:#263238"></path><path d="M628.85,438.57c1.54-2.95,1.74-6.45,2.31-9.67.06-.33-.28-.52-.56-.48a.11.11,0,0,0-.15-.07,19.92,19.92,0,0,0-7.33,7.14c-1,1.76-1.4,4.59.84,5.66S628,440.29,628.85,438.57ZM626.09,440c-3.89,1.37-2.57-3.3-1.78-4.57a20.53,20.53,0,0,1,1.74-2.31,58,58,0,0,1,4.18-4.26c-.37,1.56-.61,3.14-.93,4.71C628.93,435.48,628.23,439.27,626.09,440Z" style="fill:#263238"></path><path d="M622.67,417.2c-2.11,1.29-1.42,4.07-.24,5.71a19.77,19.77,0,0,0,8,6.35c.07,0,.12,0,.14-.08.28,0,.6-.22.5-.54-.89-3.14-1.45-6.61-3.28-9.38C626.74,417.64,624.67,416,622.67,417.2Zm6.1,7c.47,1.53.87,3.08,1.41,4.59a59.72,59.72,0,0,1-4.61-3.81,23.1,23.1,0,0,1-2-2.12c-.91-1.18-2.7-5.7,1.3-4.73C627.11,418.62,628.2,422.33,628.77,424.16Z" style="fill:#263238"></path><path d="M532.52,300.15s.63,19.78,3.59,29.52c0,0,3.24,1.7,4.21,2.31,0,0-24.57,58.84-23.17,81.47.45,7.43,8.86,19.62,17.35,24.91,15,9.34,88.36,1.15,88.36,1.15l-10.64-44.1s-46.37,2.59-47.54.08c-1.49-3.19,7.75-27.93,15.12-48,.74-2,8.16-9.53,7.3-23.09a70,70,0,0,0-6.39-24.21Z" style="fill:#263238"></path><path d="M603.76,400.32c-10.11-.19-18.36.67-28.47.67H563.82a11.19,11.19,0,0,1-2.64-.24,3.23,3.23,0,0,1-2-1.21c-.67-1-.31-2.28-.08-3.36q.76-3.57,1.71-7.09c2.55-9.56,5.88-18.89,9-28.27l4.83-14.48c.4-1.18.79-2.35,1.28-3.49a31.18,31.18,0,0,1,1.59-3,28.34,28.34,0,0,0,2.75-6c2.74-9,.1-18.3-3.09-26.78-.43-1.14-.88-2.27-1.34-3.4,0-.08-.16-.05-.13,0,2.92,9,6.39,18.27,4.43,27.83a23,23,0,0,1-2.33,6.44c-.56,1-1.18,2-1.72,3.05a24.11,24.11,0,0,0-1.41,3.26c-1.72,4.75-3.23,9.57-4.84,14.36-3.2,9.52-6.56,19-9.22,28.69-.66,2.41-1.28,4.84-1.82,7.28-.4,1.8-1.3,4.25.27,5.74,1.14,1.09,3,1.22,4.45,1.23,2.52,0,5,0,7.56,0,10.26,0,31.45-.88,32.72-.91A.18.18,0,0,0,603.76,400.32Z" style="fill:#37474f"></path><path d="M615.07,437.45c-1-5.14-1.94-10.32-3.08-15.44s-2.38-10.25-3.71-15.34c-.37-1.44-.76-2.87-1.14-4.3-.19-.69-.37-1.37-.57-2.05a17.39,17.39,0,0,0-.63-2.05c0-.08-.13,0-.13,0a28.35,28.35,0,0,0,.71,4c.25,1.24.49,2.48.74,3.73q.79,3.83,1.63,7.65c1.11,5.11,2.38,10.17,3.68,15.24.74,2.87,1.49,5.75,2.24,8.62A.13.13,0,0,0,615.07,437.45Z" style="fill:#37474f"></path><path d="M525.57,372.23l52-18.85c.73-2,1.47-4,2.18-5.93s8.16-9.53,7.29-23.09a70.12,70.12,0,0,0-6.37-24.22h-48.2s.63,19.79,3.6,29.52c0,0,3.23,1.71,4.2,2.32C540.32,332,532.21,351.4,525.57,372.23Z" style="fill:#37474f"></path><path d="M448.77,447.64c2,.59,57.56-1.25,59.63-2.67.8-.52,1-8.64,1-18.45v-.31c0-2-4.59-35.93-4.59-35.93l-38.92,1.17L473.48,427l0,.6s-21,10.23-23.09,12S446.81,447.06,448.77,447.64Z" style="fill:#f7a9a0"></path><path d="M448.77,447.64c2,.59,57.56-1.25,59.63-2.66.8-.54,1-8.65,1-18.46v-.31c0-.55-.35-3.5-.85-7.47L472,420.16l1.46,6.83,0,.61s-21,10.23-23.09,12S446.81,447.05,448.77,447.64Z" style="fill:#ebebeb"></path><path d="M448.35,447.88c2,.59,58.12-1.28,60.22-2.7.8-.54,1-8.73,1-18.64l-36.2,1.1S452.16,438,450,439.78,446.36,447.29,448.35,447.88Z" style="fill:#FFC727"></path><path d="M449.08,445.61c9.4-.55,47.38-1.86,56.72-1.68.07,0,.07.05,0,.06-9.31.74-47.3,1.74-56.72,1.77C448.88,445.76,448.88,445.62,449.08,445.61Z" style="fill:#263238"></path><path d="M453.57,437.64a7.58,7.58,0,0,1,5.71,2.11,7.34,7.34,0,0,1,2.27,5c0,.05-.1.06-.11,0a8.74,8.74,0,0,0-7.86-6.95A.06.06,0,0,1,453.57,437.64Z" style="fill:#263238"></path><path d="M469.72,428.7c3.76-.18,8.17,1,10.62,4,.09.12-.07.25-.19.2a51.11,51.11,0,0,0-10.48-3.74A.24.24,0,0,1,469.72,428.7Z" style="fill:#263238"></path><path d="M466.85,429.93c3.76-.18,8.17,1,10.62,4,.09.12-.07.25-.19.2a51.11,51.11,0,0,0-10.48-3.74A.24.24,0,0,1,466.85,429.93Z" style="fill:#263238"></path><path d="M464,431.16c3.76-.18,8.17,1,10.62,4,.09.12-.07.25-.19.2a51.11,51.11,0,0,0-10.48-3.74A.24.24,0,0,1,464,431.16Z" style="fill:#263238"></path><path d="M461.11,432.39c3.76-.18,8.17,1,10.62,4,.09.12-.07.25-.19.2a51.11,51.11,0,0,0-10.48-3.74A.24.24,0,0,1,461.11,432.39Z" style="fill:#263238"></path><path d="M503.1,435.07c4.23-.13,4.43,6.44.2,6.57S498.87,435.2,503.1,435.07Z" style="fill:#263238"></path><path d="M465.8,424.3c2.12,2.55,5.27,4.1,8,5.86a.46.46,0,0,0,.67-.32c.06,0,.12,0,.11-.11a19.7,19.7,0,0,0-3.74-9.52c-1.23-1.6-3.68-3.07-5.54-1.42S464.56,422.8,465.8,424.3Zm-.28-3.12c.24-4.11,4-1.08,4.9.13a22.33,22.33,0,0,1,1.46,2.5c.92,1.78,1.57,3.65,2.31,5.51-1.3-.95-2.66-1.78-4-2.68C468.62,425.56,465.39,423.45,465.52,421.18Z" style="fill:#263238"></path><path d="M487.89,426.88c-.38-2.45-3.2-2.89-5.17-2.44a19.71,19.71,0,0,0-9,4.93.1.1,0,0,0,0,.16.46.46,0,0,0,.3.68c3.24.39,6.66,1.21,9.92.6C485.9,430.45,488.25,429.2,487.89,426.88Zm-8.77,2.92c-1.6-.15-3.18-.38-4.79-.48a58,58,0,0,1,5.3-2.77,21.53,21.53,0,0,1,2.72-1c1.43-.38,6.29-.28,3.85,3C484.86,430.42,481,430,479.12,429.8Z" style="fill:#263238"></path><path d="M468,424.28h43.54s-7.76-59.26-5.17-63.14c1.13-1.69,57.65,4,74.18-13.94,15.12-16.37-.27-47.05-.27-47.05H533.86s-1,13.15-3.44,18.4c-1.07,2.26-52.89-.95-61,13.85C458.57,352.19,468,424.28,468,424.28Z" style="fill:#263238"></path><path d="M506.92,416c-4.91-.14-9.84-.33-14.76-.33s-9.86.11-14.79.3c-1.39.06-5.5.25-6.16.3a16.85,16.85,0,0,0-2,.17.07.07,0,0,0,0,.13c1.07.19,12.21.31,14.65.32,4.9,0,9.8-.13,14.69-.3l8.35-.32C507.06,416.26,507.08,416,506.92,416Z" style="fill:#37474f"></path><path d="M535.75,314.35c.2-1.4.38-2.79.55-4.18.37-3.18.7-6.39.8-9.59,0-.25-.35-.23-.38,0-.3,2.47-.52,5-.8,7.42s-.5,4.95-1,7.37c-.14.73-.44,1.95-1.38,2-1.25,0-1.49-1.68-1.6-2.6a41,41,0,0,1-.13-6.92c.14-2.63.47-5.25.76-7.87,0-.09-.14-.11-.16,0-1.08,5.09-2.12,10.42-1.22,15.62a2.88,2.88,0,0,0,1.68,2.46H533s0,.05,0,.08,0,.3,0,.45,0,.24,0,.37,0,.51,0,.77a.19.19,0,0,0,.38,0c.06,0,.12-.05.13-.13a4,4,0,0,0,0-1.51,1.85,1.85,0,0,0,1.55-.83A6.45,6.45,0,0,0,535.75,314.35Z" style="fill:#37474f"></path><path d="M531.14,318.12a73.33,73.33,0,0,1,10,8.21c.12.11,0,.31-.16.2-3.4-2.63-6.9-5.2-10.15-8A.26.26,0,0,1,531.14,318.12Z" style="fill:#37474f"></path><path d="M569.27,320.64a20,20,0,0,1-3-.23,25.37,25.37,0,0,1-2.6-.66c-1.61-.48-3.57-1-4.74-2.31a16.8,16.8,0,0,1-2.69-4.64,18.67,18.67,0,0,1-1.58-5.52c0-.09-.14-.09-.13,0a28.27,28.27,0,0,0,1,5.85,18.36,18.36,0,0,0,1.1,2.77,7.72,7.72,0,0,0,6.79,4.93,16.48,16.48,0,0,0,5.9,0C569.44,320.84,569.39,320.64,569.27,320.64Z" style="fill:#37474f"></path><path d="M501.64,358.34a2.54,2.54,0,0,1,2.13-2,20.62,20.62,0,0,1,3.77-.08c2.9,0,5.8.06,8.7.07,11.42,0,23-.3,34.18-2.55a79.36,79.36,0,0,0,16-4.82c4.36-1.89,8.72-4.48,11.44-8.49,3.13-4.62,3.37-10.66,3.27-16.06a61.93,61.93,0,0,0-2.8-17.19c-.45-1.41-.95-2.8-1.51-4.18,0-.09.1-.16.13-.07a59.4,59.4,0,0,1,4.54,16.59,58.45,58.45,0,0,1,.38,8.47,32.66,32.66,0,0,1-1.07,8.23c-3,10.1-14.29,14.28-23.45,16.85-11,3.09-22.52,3.94-33.92,4.11-5.73.09-11.47,0-17.2-.07-1.09,0-2.89-.33-3.54.82a6.48,6.48,0,0,0-.52,2.09q-.18,1.2-.27,2.43a68,68,0,0,0,.12,9.14q.54,9.28,1.28,18.55c.5,6.21,1.19,12.41,1.64,18.63.11,1.52.26,3,.4,4.56,0,.17-.28.21-.3,0-1.59-12.28-2.73-24.61-3.54-37-.2-3.05-.42-6.11-.51-9.17A32.84,32.84,0,0,1,501.64,358.34Z" style="fill:#37474f"></path><path d="M529.52,360.61a93.72,93.72,0,0,0,11.56-.84c3.61-.45,7.22-.94,10.8-1.56,6.24-1.06,12.62-2.23,18.52-4.61a32.59,32.59,0,0,0,8.92-5.17.07.07,0,0,1,.1.11c-4.46,4.32-10.11,6.86-16.06,8.48a130.63,130.63,0,0,1-20.78,3.65,111.76,111.76,0,0,1-13.07.38C529.22,361.05,529.25,360.62,529.52,360.61Z" style="fill:#37474f"></path><path d="M537.6,248.64c-6.71,11.13-19.94,26.24-29.2,31.65-4,2.33-23.56,4.26-34.32,3.53-4-.28.24-22.94,4.63-23.13,3-.12,20.13,2.71,22.34,1.91,4.08-1.46,19.06-13.23,29.38-19.21C536.19,240.05,541.77,241.72,537.6,248.64Z" style="fill:#f7a9a0"></path><path d="M478.83,283.88c-2.78.12-17.89-.12-21.42-1.07s-13.48-4.44-13-7.21,3.45-2,3.45-2-4-2.14-3.25-4.89,5.33-1.38,5.33-1.38-3.92-2.49-3-5.18,5.32-.53,5.32-.53-3.69-2.11-2-4c2-2.29,8.38,2.37,12.35,3.13.9.18,18.54,2.2,18.54,2.2Z" style="fill:#f7a9a0"></path><path d="M451.85,261.45c4.68,3.42,7.32,4.1,13,4.48a.09.09,0,0,1,0,.18c-5.61.13-9-.25-13.2-4.44C451.47,261.46,451.63,261.29,451.85,261.45Z" style="fill:#263238"></path><path d="M449.55,267.07c5.17,3.12,8,3.88,14,4.72.09,0,.08.16,0,.15-5.89-.33-9.31-.79-14.07-4.59C449.22,267.18,449.31,266.92,449.55,267.07Z" style="fill:#263238"></path><path d="M448.14,273.64c5.23,2.66,8.33,3.64,14.19,3.71a.11.11,0,0,1,0,.22c-6,.5-9.86-.69-14.26-3.76C447.78,273.6,447.82,273.47,448.14,273.64Z" style="fill:#263238"></path><path d="M484.06,261s-5-5.25-7.73-7.08-15.31-4.89-16.13-2.2c-1.06,3.47,5.87,6.67,9.47,7.8,0,0-2.45,8,2,11.39S484.06,261,484.06,261Z" style="fill:#f7a9a0"></path><path d="M460.22,252.79c1.32,3.85,6.14,5,9.55,6.38a.34.34,0,0,1,.15.53c-.81,3.43-.94,8.5,1.55,11.26a.08.08,0,0,1-.12.12c-3.07-2.6-3.34-7.59-2.22-11.29-3.52-1.33-8.3-2.72-8.95-7C460.18,252.77,460.21,252.76,460.22,252.79Z" style="fill:#263238"></path><path d="M515.65,251.84l9.65,19.41s14-19.3,16.5-26.14c2.82-7.7-1.73-7.46-8.83-4.25S515.65,251.84,515.65,251.84Z" style="fill:#FFC727"></path><path d="M515.65,251.84l9.65,19.41s14-19.3,16.5-26.14c2.82-7.7-1.73-7.46-8.83-4.25S515.65,251.84,515.65,251.84Z" style="opacity:0.1"></path><path d="M519.5,250.78c1.57,2.31,5.28,9.88,5.91,11.13.33.65,1.53,3.33,1.87,4,0,.09-.1.14-.14.05-.64-1.24-1.41-2.42-2.06-3.67s-4.71-8.81-5.67-11.44C519.39,250.77,519.47,250.73,519.5,250.78Z" style="fill:#263238"></path><path d="M587.44,307.09s-58.36,8.1-58.35,8.11c.16,1.14-3.09-46.16,8.23-75.83.77-2,9.66-5.32,14.22-2.15C571.53,251.09,587.55,307.83,587.44,307.09Z" style="fill:#FFC727"></path><path d="M584.27,297.2a25,25,0,0,1-4.93,4.36,19.51,19.51,0,0,1-3.37,1.81,20.36,20.36,0,0,1-3.66,1.12,23.06,23.06,0,0,1-3.79.45l-1,0-1,0c-.63,0-1.27,0-1.9-.12a23.54,23.54,0,0,1-7.38-1.89,22.23,22.23,0,0,1-3.35-1.84c-.27-.17-.52-.37-.78-.55s-.53-.37-.77-.57c-.49-.41-1-.8-1.46-1.24a44.87,44.87,0,0,1-5.12-5.64c-.51-.64-1-1.29-1.5-1.94l-.17-.22c-1-1.29-2-2.58-3-3.83-.4-.5-.83-1-1.25-1.44s-.86-.92-1.33-1.35a18,18,0,0,0-3-2.33,13.31,13.31,0,0,0-3.44-1.55l-.91-.23c-.31-.08-.62-.1-.93-.16a7.6,7.6,0,0,0-.8-.1,1.1,1.1,0,0,0,0-.18,7.28,7.28,0,0,1,.8.1c.32.06.64.08.95.16l.92.23a13.85,13.85,0,0,1,3.49,1.56,18.52,18.52,0,0,1,3,2.36c.47.43.89.9,1.34,1.36s.85.94,1.25,1.43c1.08,1.28,2.1,2.62,3.12,3.95l.16.21L546,293a43.76,43.76,0,0,0,5.11,5.6c.45.44,1,.82,1.44,1.23.24.2.51.37.76.56s.51.38.78.55a22.14,22.14,0,0,0,3.31,1.81,23.15,23.15,0,0,0,7.31,1.86c.63.09,1.26.09,1.89.12l.95,0,1,0a23.72,23.72,0,0,0,3.75-.46,19.07,19.07,0,0,0,3.61-1.11,19.33,19.33,0,0,0,3.32-1.79,23,23,0,0,0,3-2.34c.7-.65,1.37-1.35,2-2.07Zm-1.13-3.33-.59,0a15.78,15.78,0,0,1-3.73-.6,17.61,17.61,0,0,1-3.48-1.44,28.57,28.57,0,0,1-6-4.58c-1.68-1.6-3.26-3.32-4.86-5l-.18-.19-.24-.26a70.31,70.31,0,0,0-5.44-5.34,26.52,26.52,0,0,0-6.36-4.21,19.72,19.72,0,0,0-7.4-1.8,23.26,23.26,0,0,0-3.82.15l-1,.13-.93.18c-.63.12-1.26.23-1.87.41a23.48,23.48,0,0,0-7,3l-.28.18,0,.31.44-.29a23.62,23.62,0,0,1,6.92-3c.61-.18,1.23-.28,1.85-.4l.93-.18.94-.13a23.9,23.9,0,0,1,3.78-.14,19.73,19.73,0,0,1,3.74.54,18.81,18.81,0,0,1,3.56,1.25,23.21,23.21,0,0,1,3.3,1.85,31.79,31.79,0,0,1,3,2.3,71.74,71.74,0,0,1,5.43,5.32c.06.07.13.13.18.2s.13.13.19.19c1.61,1.72,3.21,3.46,4.93,5.09a29,29,0,0,0,6.08,4.6,17.25,17.25,0,0,0,3.53,1.45,16.66,16.66,0,0,0,3.78.61h.67C583.19,294,583.16,293.94,583.14,293.87Zm-5.33-14.28a21.8,21.8,0,0,0-4.57-.13,25.24,25.24,0,0,0-7.15,1.77c-.61.24-1.22.51-1.82.79l-.24.11c-1.55.73-3,1.55-4.53,2.39-2.14,1.21-4.24,2.47-6.43,3.57a28.69,28.69,0,0,1-6.85,2.54q-.9.18-1.8.27l-.25,0a17.52,17.52,0,0,1-5.21-.29c-.3,0-.59-.15-.89-.22l-.88-.24c-.58-.18-1.15-.42-1.72-.62a23.29,23.29,0,0,1-3.28-1.63,17.71,17.71,0,0,1-3-2.23,2.09,2.09,0,0,0,0,.25,17.71,17.71,0,0,0,2.93,2.16,22,22,0,0,0,3.3,1.64c.58.21,1.15.45,1.74.63l.89.25c.3.07.59.18.89.22a18,18,0,0,0,5.43.3l.24,0a15.85,15.85,0,0,0,1.68-.26,28.91,28.91,0,0,0,6.92-2.55c2.19-1.1,4.3-2.36,6.44-3.56,1.51-.86,3-1.69,4.6-2.42l.23-.11c.57-.25,1.15-.5,1.74-.73a24.42,24.42,0,0,1,7.08-1.75,20.76,20.76,0,0,1,4.66.15A2.24,2.24,0,0,0,577.81,279.59Zm-22.29-28.52a16.53,16.53,0,0,1-3.11,2.14,15.65,15.65,0,0,1-3.52,1.36,18.68,18.68,0,0,1-4.53.57H544a23.08,23.08,0,0,1-2.63-.18,17.68,17.68,0,0,1-3.66-.92,18.49,18.49,0,0,1-3.38-1.71c-.26-.16-.51-.33-.76-.5a1.05,1.05,0,0,0-.05.19l.71.47a17.41,17.41,0,0,0,7.11,2.68c.75.09,1.49.15,2.24.17h.35a19.22,19.22,0,0,0,5-.57,17.2,17.2,0,0,0,3.57-1.37,17.41,17.41,0,0,0,3.15-2.16,28.32,28.32,0,0,0,4.59-5.19l-.15-.19A27.42,27.42,0,0,1,555.52,251.07ZM553,246.83a30.16,30.16,0,0,1-5,5.66,19.68,19.68,0,0,1-3.11,2.17l-.41.24-.42.21,0,0-.42.2-.38.19-.87.38-.44.19-.44.16-.9.32c-.3.1-.6.18-.91.27s-.6.19-.91.27l-.92.22a14,14,0,0,1-3.75.45,12.34,12.34,0,0,1-1.72-.14.35.35,0,0,0,0,.14,12.78,12.78,0,0,0,1.75.15,14.17,14.17,0,0,0,3.78-.45l.93-.22c.31-.08.61-.18.92-.27s.61-.17.91-.27l.9-.33.45-.16.44-.18.88-.38.66-.33.19-.1.23-.11.2-.1.41-.24a20,20,0,0,0,3.14-2.18,30.05,30.05,0,0,0,5.06-5.68c1.21-1.68,2.37-3.4,3.68-5l-.13-.13C555.39,243.42,554.24,245.16,553,246.83Z" style="fill:#fff"></path><path d="M540.9,246.26c2.85.43,8.41-3.33,10.08-7.49a63.18,63.18,0,0,0-1.38-6.47c-.44-2.07-.89-4.39-1.15-6.53-.05-.44-13.05,4.87-13.05,4.87a34.72,34.72,0,0,1,2.28,8.07,5.44,5.44,0,0,1,0,.9.65.65,0,0,0,0,.14C537.61,241.46,537.85,245.79,540.9,246.26Z" style="fill:#f7a9a0"></path><path d="M537.69,239.61v.14a8.4,8.4,0,0,0,1.38-.09c7.9-1.12,8.8-11.27,8.91-13.83-2.35.62-12.58,4.81-12.58,4.81a34.34,34.34,0,0,1,2.28,8.08A5.31,5.31,0,0,1,537.69,239.61Z" style="fill:#263238"></path><path d="M552.21,212.18c.5,5-4.69,18.11-8.64,20.48-5.73,3.43-13.76,2.27-16.34-4.31-2.5-6.37,4.56-23.34,8.85-25.36C542.4,200,551.46,204.8,552.21,212.18Z" style="fill:#f7a9a0"></path><path d="M537.32,217.69s0,.07,0,.1c-.38.88-.66,1.94,0,2.55,0,0,0,.06,0,0C536.44,219.87,536.82,218.46,537.32,217.69Z" style="fill:#263238"></path><path d="M538.47,217.07c1.46.45.46,3.35-.89,2.93S537.24,216.7,538.47,217.07Z" style="fill:#263238"></path><path d="M532.07,216s-.08,0-.1.06c-.28.9-.75,1.9-1.67,1.91a0,0,0,0,0,0,.06C531.33,218.27,532,217,532.07,216Z" style="fill:#263238"></path><path d="M531.59,214.83c-1.4-.61-2.52,2.24-1.21,2.81S532.77,215.34,531.59,214.83Z" style="fill:#263238"></path><path d="M540.07,216.14a12.1,12.1,0,0,1-1-.78,2.05,2.05,0,0,1-.85-1,.64.64,0,0,1,.36-.71,1.61,1.61,0,0,1,1.58.38,2.28,2.28,0,0,1,1,1.41A.68.68,0,0,1,540.07,216.14Z" style="fill:#263238"></path><path d="M531,213c.42.07.83.07,1.25.1a2.07,2.07,0,0,0,1.3-.14.64.64,0,0,0,.22-.76,1.59,1.59,0,0,0-1.41-.81,2.37,2.37,0,0,0-1.66.38A.69.69,0,0,0,531,213Z" style="fill:#263238"></path><path d="M535.27,226.31c-.29.13-.6.35-.94.26a2.5,2.5,0,0,1-.89-.55s-.06,0-.05,0a1.28,1.28,0,0,0,1,.88,1,1,0,0,0,1-.55S535.31,226.29,535.27,226.31Z" style="fill:#263238"></path><path d="M535.25,223.29a3.21,3.21,0,0,1-2.51.66,3.94,3.94,0,0,1-1.11-.33l-.2-.1-.19-.09a.24.24,0,0,1-.11-.27h0a.25.25,0,0,1,0-.09h0l0-.08c.22-.7.65-1.72.65-1.72-.29,0-1.78.17-1.64-.18a48.94,48.94,0,0,1,4.39-8.85c0-.09.2,0,.15.08-1,2.86-2.6,5.52-3.7,8.37a5.49,5.49,0,0,1,1.59.07c.09.06-.87,2-.94,2.29a.08.08,0,0,1,0,0,4.5,4.5,0,0,0,3.51.12C535.28,223.16,535.33,223.24,535.25,223.29Z" style="fill:#263238"></path><path d="M532.16,223.41a3.78,3.78,0,0,0,1.06,1.63,1.73,1.73,0,0,0,1,.4c.78.06,1-.59,1.09-1.2a4.45,4.45,0,0,0,0-1A5,5,0,0,1,532.16,223.41Z" style="fill:#263238"></path><path d="M533.22,225a1.73,1.73,0,0,0,1,.4c.78.06,1-.59,1.09-1.2A1.77,1.77,0,0,0,533.22,225Z" style="fill:#ff99ba"></path><path d="M546.7,218.32c-.61-2.95,1.61-7.48.36-8.93-2.71-3.13-9.63,1.34-13.93.83s-5.22-3.36-4-6.64,4.34-5.19,9.1-5.3a17.7,17.7,0,0,1,11.28,4.24s-.84-1.82-.38-2.3,2.3,1.41,2.83,2.18a6.21,6.21,0,0,1,.77,2.13,6.61,6.61,0,0,1,1.92.05,4,4,0,0,1,2.33,1.41c0,.26-1.49.26-2.56.18,0,0,1.64,2.88,1.32,5.13s-5.18,12.49-6,12.5C548.56,223.81,546.94,219.51,546.7,218.32Z" style="fill:#263238"></path><path d="M554,205.85s-.09,0-.06.05a7.25,7.25,0,0,1,1.85,3.47,9,9,0,0,1-.54,4.64c-1,2.88-2.82,5.38-4.42,8-.05.07.08.15.13.08a31.52,31.52,0,0,0,4.77-8.55C556.56,210.85,556.32,207.67,554,205.85Z" style="fill:#263238"></path><path d="M547.36,208.32a10.14,10.14,0,0,0-3.8-.23,14.46,14.46,0,0,0-3.44,1.19,14.46,14.46,0,0,1-8,1.14s0,.05,0,.06a12.75,12.75,0,0,0,7.35-.63,31.62,31.62,0,0,1,3.58-1.35,13.12,13.12,0,0,1,4.24,0A.11.11,0,0,0,547.36,208.32Z" style="fill:#263238"></path><path d="M547.05,201a19.69,19.69,0,0,0-5.11-2.44,15.83,15.83,0,0,0-5.37-.87c-3.14.11-6.23,1.72-7.35,4.8a6.79,6.79,0,0,0,0,4.88.09.09,0,1,0,.16-.06,7,7,0,0,1,2.62-8c2.81-1.87,6.38-1.59,9.47-.69A28.65,28.65,0,0,1,547,201S547.07,201,547.05,201Z" style="fill:#263238"></path><path d="M546.54,222.74s4-3.71,5.77-2.18-1.95,7.37-4.48,7.73a2.43,2.43,0,0,1-2.9-2Z" style="fill:#f7a9a0"></path><path d="M551.21,222.21s0,.06,0,.06a6.14,6.14,0,0,0-3.93,3.08,1.34,1.34,0,0,1,2,.07s0,.1-.06.08a1.48,1.48,0,0,0-1.72.15,7.1,7.1,0,0,0-1.06,1.13c-.11.13-.35,0-.26-.16l0,0C546.66,224.49,548.92,221.93,551.21,222.21Z" style="fill:#263238"></path><rect x="429.06" y="240.3" width="110" height="94.27" style="fill:#455a64"></rect><rect x="506.79" y="240.3" width="32.28" height="94.27" style="fill:#37474f"></rect><path d="M561.22,248.15c5.81,12.94,18.66,39.45,15.36,49.43-4.34,13.09-27,27.53-32.9,31.58-2.56,1.76-15.29-14.56-14.51-17.79s24.64-22.12,25.92-24.24-4.11-23.64-5-35.65C548.91,236.34,556.3,237.19,561.22,248.15Z" style="fill:#f7a9a0"></path><path d="M523.29,320.12c.7-1.43,0-1.8-2.58-.57s-11.52,8.26-13.7,4.92,10.63-13.07,15-14.8,12.06-3,12.06-3C532,309.08,527.38,315.37,523.29,320.12Z" style="fill:#f7a9a0"></path><path d="M549.88,324.09c-6.2,6.52-13.52,15-23.29,17.82a5,5,0,0,1-3.29-.1c-4.35,1.33-6.29-.33-6.29-.33-4.43,0-6.18-2-6.18-2s-5.13,1.51-6.55-1.44c-1.61-3.3,5.91-4.77,9.55-8.1,8.34-7.65,18.06-20.84,20.24-23.29Z" style="fill:#f7a9a0"></path><path d="M528.2,328.1a73.28,73.28,0,0,1-7.68,6.28,73.48,73.48,0,0,1-9.64,5,.09.09,0,1,0,.06.16,38.48,38.48,0,0,0,17.36-11.35C528.4,328.09,528.32,328,528.2,328.1Z" style="fill:#263238"></path><path d="M533.54,332.46c-2.55,2-7,5.51-16.57,8.92,0,0,0,.07,0,.06a34.5,34.5,0,0,0,16.65-8.86C533.79,332.44,533.71,332.33,533.54,332.46Z" style="fill:#263238"></path><path d="M536.37,334.86c-4.47,3.25-7.69,4.73-13.06,6.92,0,0,0,.07,0,.06,6.36-1.85,8.45-3.25,13.17-6.84C536.67,334.88,536.54,334.73,536.37,334.86Z" style="fill:#263238"></path><path d="M551.06,268,572.71,269s-10-21.63-14.78-27.16c-5.34-6.22-7.35-2.13-8,5.64S551.06,268,551.06,268Z" style="fill:#FFC727"></path><path d="M551.06,268,572.71,269s-10-21.63-14.78-27.16c-5.34-6.22-7.35-2.13-8,5.64S551.06,268,551.06,268Z" style="opacity:0.1"></path><path d="M552,264.11c2.77-.24,11.2.21,12.59.28.73,0,3.66.28,4.39.31.09,0,.07.15,0,.14-1.4,0-2.81.05-4.21,0s-10-.19-12.76-.63A.06.06,0,0,1,552,264.11Z" style="fill:#263238"></path><path d="M549.73,258.78c-.23-1.12-.46-2.24-.65-3.37,0,0,0,0,0,0,.21.82.39,1.64.57,2.46-.09-1.67-.16-3.35-.14-5a0,0,0,1,1,0,0c.35,2.51.56,5,.85,7.58s.53,4.95.77,7.44l1.47.27a.08.08,0,0,1,0,.15c-.54,0-1.09,0-1.64,0a.24.24,0,0,1-.27-.2C550.28,265,549.94,261.9,549.73,258.78Z" style="fill:#263238"></path></g></svg>