<svg xmlns="http://www.w3.org/2000/svg" viewBox="0 0 654.42 427.28"><g id="freepik--background-complete--inject-432"><g><path d="M8.3,214.95L.42,227.65l3.89,2.41c1.14,.71,1.76,2,1.65,3.34-.06,.74-.09,1.49-.07,2.24,.03,1.34-.67,2.59-1.86,3.23l-4.03,2.16,7.07,13.18,4.03-2.16c1.18-.63,2.61-.53,3.71,.24,.61,.43,1.25,.82,1.9,1.18,1.18,.65,1.92,1.88,1.87,3.22l-.14,4.58,14.95,.46,.14-4.59c.04-1.35,.87-2.52,2.08-3.09,.33-.16,.66-.32,.98-.5,.32-.17,.64-.36,.96-.54,1.15-.69,2.57-.73,3.71-.03l3.92,2.43,7.88-12.71-3.9-2.42c-1.14-.71-1.76-2.01-1.65-3.35,.06-.74,.09-1.48,.07-2.23-.03-1.34,.67-2.59,1.86-3.22l4.03-2.16-7.07-13.18-4.03,2.16c-1.18,.63-2.61,.53-3.71-.24-.61-.42-1.24-.82-1.9-1.17-1.18-.65-1.92-1.88-1.88-3.22l.14-4.59-14.95-.46-.14,4.59c-.04,1.34-.86,2.51-2.08,3.08-.33,.16-.66,.32-.99,.5-.32,.17-.64,.36-.96,.55-1.15,.7-2.59,.74-3.73,.03l-3.89-2.42Zm12.65,9.44c5.96-3.2,13.38-.96,16.58,5,3.2,5.96,.96,13.39-5,16.59-5.96,3.2-13.39,.95-16.59-5.01-3.2-5.96-.95-13.38,5.01-16.58Z" style="fill:#ebebeb;"></path><path d="M624.15,116.06l4.26,7.39,2.26-1.31c.66-.38,1.48-.35,2.13,.07,.36,.23,.72,.44,1.1,.64,.68,.35,1.12,1.04,1.12,1.8v2.61h8.53v-2.61c0-.77,.44-1.45,1.12-1.8,.38-.19,.75-.41,1.1-.64,.64-.42,1.46-.46,2.13-.07l2.26,1.31,4.26-7.39-2.27-1.31c-.67-.38-1.03-1.11-.99-1.88,.01-.21,.02-.42,.02-.63s0-.42-.02-.63c-.04-.76,.32-1.49,.99-1.87l2.28-1.32-4.26-7.39-2.27,1.31c-.67,.38-1.48,.35-2.13-.07-.35-.23-.72-.44-1.1-.64-.68-.35-1.12-1.04-1.12-1.8v-2.61h-8.53v2.61c0,.76-.44,1.45-1.12,1.8-.38,.19-.75,.41-1.1,.64-.64,.42-1.46,.46-2.13,.07l-2.27-1.31-4.26,7.39,2.27,1.31c.66,.38,1.03,1.11,.99,1.88-.01,.21-.02,.42-.02,.63s0,.42,.02,.63c.04,.77-.33,1.5-.99,1.88l-2.26,1.31Zm8.15-3.82c0-3.86,3.12-6.98,6.98-6.98s6.99,3.12,6.99,6.98-3.13,6.99-6.99,6.99-6.98-3.13-6.98-6.99Z" style="fill:#ebebeb;"></path><path d="M264.99,382.45l4.26,7.39,2.26-1.31c.66-.38,1.48-.35,2.13,.07,.36,.23,.72,.44,1.1,.64,.68,.35,1.12,1.04,1.12,1.8v2.61h8.53v-2.61c0-.77,.44-1.45,1.12-1.8,.38-.19,.75-.41,1.1-.64,.64-.42,1.46-.46,2.13-.07l2.26,1.31,4.26-7.39-2.27-1.31c-.67-.38-1.03-1.11-.99-1.88,.01-.21,.02-.42,.02-.63s0-.42-.02-.63c-.04-.76,.32-1.49,.99-1.87l2.28-1.32-4.26-7.39-2.27,1.31c-.67,.38-1.48,.35-2.13-.07-.35-.23-.72-.44-1.1-.64-.68-.35-1.12-1.04-1.12-1.8v-2.61h-8.53v2.61c0,.76-.44,1.45-1.12,1.8-.38,.19-.75,.41-1.1,.64-.64,.42-1.46,.46-2.13,.07l-2.27-1.31-4.26,7.39,2.27,1.31c.66,.38,1.03,1.11,.99,1.88-.01,.21-.02,.42-.02,.63s0,.42,.02,.63c.04,.77-.33,1.5-.99,1.88l-2.26,1.31Zm8.15-3.82c0-3.86,3.12-6.98,6.98-6.98s6.99,3.12,6.99,6.98-3.13,6.99-6.99,6.99-6.98-3.13-6.98-6.99Z" style="fill:#ebebeb;"></path><g><path d="M597.13,322.63c18.35,0,33.21-14.86,33.21-33.21s-14.86-33.21-33.21-33.21-33.21,14.87-33.21,33.21,14.87,33.21,33.21,33.21Zm0-48.72c8.57,0,15.51,6.94,15.51,15.51s-6.95,15.51-15.51,15.51-15.51-6.95-15.51-15.51,6.95-15.51,15.51-15.51Z" style="fill:#ebebeb;"></path><polygon points="590.74 321.25 603.51 321.25 602.81 330.29 591.45 330.29 590.74 321.25" style="fill:#ebebeb;"></polygon><polygon points="615.05 316.95 624.08 307.91 629.98 314.81 621.94 322.84 615.05 316.95" style="fill:#ebebeb;"></polygon><polygon points="629.2 296.71 629.2 283.94 638.24 284.65 638.24 296.01 629.2 296.71" style="fill:#ebebeb;"></polygon><polygon points="624.89 272.41 615.86 263.37 622.76 257.48 630.79 265.51 624.89 272.41" style="fill:#ebebeb;"></polygon><polygon points="604.66 258.26 591.89 258.26 592.6 249.22 603.96 249.22 604.66 258.26" style="fill:#ebebeb;"></polygon><polygon points="580.35 262.56 571.32 271.59 565.43 264.7 573.46 256.67 580.35 262.56" style="fill:#ebebeb;"></polygon><polygon points="566.21 282.79 566.21 295.57 557.17 294.86 557.17 283.5 566.21 282.79" style="fill:#ebebeb;"></polygon><polygon points="570.51 307.1 579.54 316.13 572.65 322.03 564.62 313.99 570.51 307.1" style="fill:#ebebeb;"></polygon></g><path d="M467.32,24.61c-1.23-12.33-9.73-24.61-24.66-24.61s-23.42,12.27-24.64,24.61c-1.89,19.03,10.95,36.28,24.64,52.01,13.71-15.73,26.55-32.97,24.66-52.01Zm-24.66,13.69c-7.46,0-13.5-6.04-13.5-13.5s6.04-13.5,13.5-13.5,13.52,6.04,13.52,13.5-6.04,13.5-13.52,13.5Z" style="fill:#ebebeb;"></path></g><g><g><g><polyline points="613.22 426.74 613.22 301.08 639.95 264.6 639.95 176.26" style="fill: none; stroke: #ebebeb; stroke-miterlimit: 10;"></polyline><path d="M637.58,173.93c0,1.31,1.06,2.38,2.37,2.38s2.37-1.06,2.37-2.38-1.06-2.38-2.37-2.38-2.37,1.06-2.37,2.38Z" style="fill: none; stroke: #ebebeb; stroke-miterlimit: 10;"></path></g><g><polyline points="620.11 426.74 620.11 305.49 646.84 269.01 646.84 221.26" style="fill: none; stroke: #ebebeb; stroke-miterlimit: 10;"></polyline><path d="M644.46,218.93c0,1.31,1.06,2.38,2.38,2.38s2.37-1.06,2.37-2.38-1.06-2.38-2.37-2.38-2.38,1.06-2.38,2.38Z" style="fill: none; stroke: #ebebeb; stroke-miterlimit: 10;"></path></g><g><line x1="606.59" y1="426.74" x2="606.59" y2="260.33" style="fill: none; stroke: #ebebeb; stroke-miterlimit: 10;"></line><path d="M604.21,257.96c0,1.31,1.06,2.38,2.37,2.38s2.38-1.06,2.38-2.38-1.06-2.38-2.38-2.38-2.37,1.06-2.37,2.38Z" style="fill: none; stroke: #ebebeb; stroke-miterlimit: 10;"></path></g><g><polyline points="600.2 426.74 600.2 342.17 582.06 307.94 582.06 246.58" style="fill: none; stroke: #ebebeb; stroke-miterlimit: 10;"></polyline><path d="M579.68,244.2c0,1.31,1.06,2.38,2.38,2.38s2.37-1.06,2.37-2.38-1.06-2.38-2.37-2.38-2.38,1.06-2.38,2.38Z" style="fill: none; stroke: #ebebeb; stroke-miterlimit: 10;"></path></g><g><polyline points="593.86 426.74 593.86 345.83 572.46 307.98 572.46 267.57" style="fill: none; stroke: #ebebeb; stroke-miterlimit: 10;"></polyline><path d="M570.09,265.19c0,1.31,1.06,2.38,2.37,2.38s2.37-1.06,2.37-2.38-1.06-2.38-2.37-2.38-2.37,1.06-2.37,2.38Z" style="fill: none; stroke: #ebebeb; stroke-miterlimit: 10;"></path></g></g><g><g><polyline points="37.81 426.74 37.81 361.08 11.08 324.6 11.08 286.26" style="fill: none; stroke: #ebebeb; stroke-miterlimit: 10;"></polyline><path d="M13.45,283.93c0,1.31-1.06,2.38-2.38,2.38s-2.38-1.06-2.38-2.38,1.06-2.38,2.38-2.38,2.38,1.06,2.38,2.38Z" style="fill: none; stroke: #ebebeb; stroke-miterlimit: 10;"></path></g><g><polyline points="30.92 426.74 30.92 365.49 4.19 329.01 4.19 311.26" style="fill: none; stroke: #ebebeb; stroke-miterlimit: 10;"></polyline><path d="M6.57,308.93c0,1.31-1.06,2.38-2.38,2.38s-2.38-1.06-2.38-2.38,1.06-2.38,2.38-2.38,2.38,1.06,2.38,2.38Z" style="fill: none; stroke: #ebebeb; stroke-miterlimit: 10;"></path></g><g><line x1="44.44" y1="426.74" x2="44.44" y2="320.33" style="fill: none; stroke: #ebebeb; stroke-miterlimit: 10;"></line><path d="M46.82,317.96c0,1.31-1.06,2.38-2.38,2.38s-2.38-1.06-2.38-2.38,1.06-2.38,2.38-2.38,2.38,1.06,2.38,2.38Z" style="fill: none; stroke: #ebebeb; stroke-miterlimit: 10;"></path></g><g><polyline points="50.83 426.74 50.83 372.17 68.98 337.94 68.98 276.58" style="fill: none; stroke: #ebebeb; stroke-miterlimit: 10;"></polyline><path d="M71.35,274.2c0,1.31-1.06,2.38-2.38,2.38s-2.38-1.06-2.38-2.38,1.06-2.38,2.38-2.38,2.38,1.06,2.38,2.38Z" style="fill: none; stroke: #ebebeb; stroke-miterlimit: 10;"></path></g><g><polyline points="57.18 426.74 57.18 375.83 78.57 337.98 78.57 297.57" style="fill: none; stroke: #ebebeb; stroke-miterlimit: 10;"></polyline><path d="M80.95,295.19c0,1.31-1.06,2.38-2.37,2.38s-2.37-1.06-2.37-2.38,1.06-2.38,2.37-2.38,2.37,1.06,2.37,2.38Z" style="fill: none; stroke: #ebebeb; stroke-miterlimit: 10;"></path></g></g></g></g><g id="freepik--Floor--inject-432"><polygon points="2.93 426.78 84 426.54 165.07 426.45 327.21 426.29 489.35 426.45 570.42 426.54 651.49 426.78 570.42 427.03 489.35 427.12 327.21 427.28 165.07 427.12 84 427.03 2.93 426.78" style="fill:#263238;"></polygon></g><g id="freepik--wifi-icon--inject-432"><g><g id="freepik--u5Zjqx--inject-432"><g><path d="M504.72,170.58c-5.28,5.24-10.57,10.48-15.85,15.73-3,2.99-5.98,6.01-8.98,9.03-42.58-41.32-93.26-63.35-152.6-63.37-59.35-.02-110.02,21.97-152.92,63.53-2.82-2.94-5.65-5.97-8.56-8.93-5.19-5.27-10.41-10.5-15.64-15.73-.12-.13-.32-.18-.48-.27v-.39c.4-.32,.79-.62,1.17-.95,6.67-5.92,13.16-12.06,20.04-17.74,14.22-11.74,29.8-21.41,46.33-29.53,19.55-9.61,40-16.72,61.43-20.65,10.14-1.86,20.44-2.82,30.69-4.08,3.49-.43,26.17-.51,26.87-.46,6.97,.52,13.97,.83,20.93,1.58,19.34,2.09,38.09,6.77,56.34,13.46,13.21,4.84,25.91,10.82,38.12,17.83,12.9,7.41,25.07,15.83,36.38,25.48,5.71,4.87,11.16,10.02,16.73,15.06v.39Z" style="fill:#FFC727;"></path><path d="M224.65,245.13c-8.38-8.31-16.59-16.46-25.05-24.84,28.52-28,62.24-45.8,101.89-51.15,59.25-8.02,110.11,9.98,153.24,50.8-8.51,8.48-16.77,16.7-25.14,25.03-28.34-27.5-62.45-42.36-102.43-42.34-39.91,.02-73.96,14.86-102.5,42.51Z" style="fill:#FFC727;"></path><path d="M404.57,270.13c-8.26,8.25-16.52,16.51-24.92,24.89-14.43-14.01-31.94-21.77-52.49-21.75-20.5,.03-37.96,7.72-52.5,21.88-8.35-8.34-16.6-16.6-24.87-24.86,39.62-41.52,110.92-44.84,154.78-.16Z" style="fill:#FFC727;"></path></g><path d="M349.67,317.65c0,12.43-10.07,22.51-22.51,22.51s-22.49-10.08-22.49-22.51,10.07-22.5,22.49-22.5,22.51,10.08,22.51,22.5Z" style="fill:#FFC727;"></path></g><g id="freepik--u5zjqx--inject-432" style="opacity: .6;"><g><path d="M504.72,170.58c-5.28,5.24-10.57,10.48-15.85,15.73-3,2.99-5.98,6.01-8.98,9.03-42.58-41.32-93.26-63.35-152.6-63.37-59.35-.02-110.02,21.97-152.92,63.53-2.82-2.94-5.65-5.97-8.56-8.93-5.19-5.27-10.41-10.5-15.64-15.73-.12-.13-.32-.18-.48-.27v-.39c.4-.32,.79-.62,1.17-.95,6.67-5.92,13.16-12.06,20.04-17.74,14.22-11.74,29.8-21.41,46.33-29.53,19.55-9.61,40-16.72,61.43-20.65,10.14-1.86,20.44-2.82,30.69-4.08,3.49-.43,26.17-.51,26.87-.46,6.97,.52,13.97,.83,20.93,1.58,19.34,2.09,38.09,6.77,56.34,13.46,13.21,4.84,25.91,10.82,38.12,17.83,12.9,7.41,25.07,15.83,36.38,25.48,5.71,4.87,11.16,10.02,16.73,15.06v.39Z" style="fill:#fff;"></path><path d="M224.65,245.13c-8.38-8.31-16.59-16.46-25.05-24.84,28.52-28,62.24-45.8,101.89-51.15,59.25-8.02,110.11,9.98,153.24,50.8-8.51,8.48-16.77,16.7-25.14,25.03-28.34-27.5-62.45-42.36-102.43-42.34-39.91,.02-73.96,14.86-102.5,42.51Z" style="fill:#fff;"></path><path d="M404.57,270.13c-8.26,8.25-16.52,16.51-24.92,24.89-14.43-14.01-31.94-21.77-52.49-21.75-20.5,.03-37.96,7.72-52.5,21.88-8.35-8.34-16.6-16.6-24.87-24.86,39.62-41.52,110.92-44.84,154.78-.16Z" style="fill:#fff;"></path></g><path d="M349.67,317.65c0,12.43-10.07,22.51-22.51,22.51s-22.49-10.08-22.49-22.51,10.07-22.5,22.49-22.5,22.51,10.08,22.51,22.5Z" style="fill:#fff;"></path></g></g></g><g id="freepik--connectivity-icons--inject-432"><g><g><g><circle cx="94.21" cy="14.6" r="10.42" style="fill:#FFC727;"></circle><path d="M66.98,37.73c0,5.76-4.67,10.42-10.42,10.42s-10.42-4.67-10.42-10.42,4.67-10.42,10.42-10.42,10.42,4.67,10.42,10.42Z" style="fill:#FFC727;"></path><circle cx="94.21" cy="60.86" r="10.42" transform="translate(-11.42 23.16) rotate(-13.22)" style="fill:#FFC727;"></circle><polygon points="93.4 63.29 53.75 37.7 93.42 13.33 94.99 15.88 59.36 37.76 95.02 60.77 93.4 63.29" style="fill:#FFC727;"></polygon></g><g style="opacity: .7;"><circle cx="94.21" cy="14.6" r="10.42" style="fill:#fff;"></circle><path d="M66.98,37.73c0,5.76-4.67,10.42-10.42,10.42s-10.42-4.67-10.42-10.42,4.67-10.42,10.42-10.42,10.42,4.67,10.42,10.42Z" style="fill:#fff;"></path><circle cx="94.21" cy="60.86" r="10.42" transform="translate(-11.42 23.16) rotate(-13.22)" style="fill:#fff;"></circle><polygon points="93.4 63.29 53.75 37.7 93.42 13.33 94.99 15.88 59.36 37.76 95.02 60.77 93.4 63.29" style="fill:#fff;"></polygon></g></g><g><g id="freepik--aiZGp2--inject-432"><g><path d="M408.14,318.91c-2.26,5.73-3.53,11.65-3.89,17.77-.09,0-.16,0-.23,0-5.11,0-10.22,0-15.32,0-.07,0-.13,0-.2-.01v-.44c.04-.4,.09-.8,.13-1.21,.19-2.1,.55-4.16,1.04-6.2,.81-3.36,1.99-6.59,3.5-9.7,.09-.18,.19-.23,.38-.23,4.77,0,9.55,0,14.32,0h.27Z" style="fill:#FFC727;"></path><path d="M407.66,358.61h-.25c-4.74,0-9.47,0-14.21,0-.19,0-.27-.06-.35-.23-1.68-3.49-2.86-7.14-3.59-10.94-.35-1.83-.59-3.68-.71-5.54,0-.06-.03-.12-.04-.19v-.43c.08,0,.16-.02,.24-.02h15.23c.28,0,.27,0,.29,.28,.1,1.26,.18,2.53,.3,3.79,.19,2.01,.53,3.99,.97,5.96,.52,2.41,1.21,4.77,2.06,7.08,.02,.07,.04,.14,.07,.23Z" style="fill:#FFC727;"></path><path d="M468.49,363.2c-.05,.09-.09,.15-.13,.22-1.2,1.9-2.62,3.63-4.1,5.31-1.81,2.06-3.82,3.89-6.01,5.54-2.15,1.63-4.43,3.04-6.84,4.24-2.33,1.15-4.74,2.1-7.23,2.81-1.98,.57-3.99,.99-6.02,1.28-.2,.03-.4,.07-.59,.1h-.35c-.1-.07-.2-.13-.33-.21,.14-.1,.26-.19,.38-.27,4.43-3.04,8.24-6.71,11.41-11.06,1.78-2.44,3.33-5.02,4.66-7.73,.08-.17,.17-.22,.36-.22,4.85,0,9.69,0,14.54,0h.26Z" style="fill:#FFC727;"></path><path d="M454.02,336.67h-20.32v-17.75c.08,0,.16,0,.23,0,5.21,0,10.42,0,15.63,0,.17,0,.25,.05,.32,.21,1.46,3.35,2.54,6.82,3.23,10.4,.36,1.86,.63,3.74,.78,5.63,.04,.5,.08,1,.12,1.52Z" style="fill:#FFC727;"></path><path d="M453.9,341.41c-.02,.42-.02,.84-.06,1.25-.09,.99-.16,1.98-.3,2.96-.19,1.36-.4,2.72-.67,4.07-.6,2.97-1.49,5.86-2.63,8.67-.08,.19-.16,.26-.37,.26-5.33,0-10.66,0-16,0h-.29v-17.21h20.32Z" style="fill:#FFC727;"></path><path d="M429.12,319.02v17.78h-19.84c.03-.45,.04-.89,.09-1.33,.1-.99,.18-1.99,.34-2.98,.24-1.51,.5-3.01,.83-4.51,.65-3.01,1.63-5.92,2.87-8.75,.07-.17,.16-.22,.34-.22,5.04,0,10.09,0,15.13,0h.26Z" style="fill:#FFC727;"></path><path d="M429.14,341.64c0,5.57,0,11.15,0,16.72v.25h-.27c-5.2,0-10.39,0-15.59,0-.19,0-.27-.06-.35-.23-1.2-2.9-2.12-5.88-2.7-8.96-.3-1.58-.52-3.17-.72-4.77-.13-1.04-.16-2.1-.23-3.14,0-.03,0-.06,0-.11,.08,0,.15,0,.23,0,6.46,0,12.92,0,19.37,0,.21,0,.25,.06,.25,.26Z" style="fill:#FFC727;"></path><path d="M475.57,336.8h-16.65c-.36-6.15-1.61-12.11-3.88-17.89h.26c5.08,0,10.17,0,15.26,0,.18,0,.28,.05,.36,.22,1.78,3.54,3.06,7.25,3.84,11.13,.41,2.06,.67,4.14,.81,6.24,0,.1,0,.19,0,.3Z" style="fill:#FFC727;"></path><path d="M475.58,341.28c-.02,.4-.03,.78-.06,1.16-.11,1.5-.29,3-.55,4.48-.61,3.46-1.65,6.79-3.06,10-.23,.52-.47,1.03-.7,1.54-.05,.12-.12,.16-.25,.16-5.1,0-10.2,0-15.3,0-.05,0-.1,0-.17-.01,.19-.53,.37-1.05,.55-1.57,.9-2.65,1.58-5.36,2.06-8.11,.35-2,.6-4.01,.71-6.04,.03-.48,.06-.96,.08-1.43,0-.13,.04-.19,.17-.18,.05,0,.1,0,.15,0h16.35Z" style="fill:#FFC727;"></path><path d="M468.04,314.38s-.02,.04-.03,.07h-.21c-4.85,0-9.71,0-14.56,0-.17,0-.27-.04-.35-.21-1.96-3.87-4.34-7.47-7.23-10.71-1.68-1.89-3.55-3.57-5.55-5.11-.99-.76-2.02-1.48-3.04-2.22-.05-.04-.1-.08-.17-.13,.07-.05,.13-.09,.2-.14-.03-.09-.06-.19-.1-.31,5.18,.6,10.1,2.05,14.72,4.42,6.64,3.4,12.15,8.11,16.31,14.33Z" style="fill:#FFC727;"></path><path d="M426.3,382.5c-.18,.03-.31,.08-.42,.07-1.6-.21-3.18-.52-4.75-.92-2.93-.75-5.75-1.79-8.45-3.13-3.1-1.54-5.97-3.42-8.61-5.65-1.87-1.58-3.61-3.29-5.18-5.18-1.17-1.42-2.25-2.92-3.23-4.48-.02-.04-.04-.07-.07-.14h.24c4.52,0,9.04,0,13.56,0,.18,0,.26,.07,.34,.22,1.42,2.86,3.07,5.57,4.98,8.12,1.75,2.33,3.72,4.47,5.84,6.47,1.76,1.65,3.62,3.17,5.62,4.52,.02,.02,.04,.04,.13,.11Z" style="fill:#FFC727;"></path><path d="M426.12,296.05c-.62,.45-1.35,.97-2.05,1.51-2.39,1.83-4.54,3.9-6.57,6.12-2.73,2.98-5.03,6.25-6.9,9.83-.12,.23-.22,.46-.35,.67-.04,.07-.14,.13-.21,.13-.25,.02-.49,0-.74,0h-13.26c7.38-10.43,17.3-16.69,29.92-18.61-.03,.06-.06,.11-.09,.17,.09,.06,.17,.12,.24,.17Z" style="fill:#FFC727;"></path><path d="M447.96,363.21c-1.89,3.31-4.12,6.33-6.71,9.08-2.31,2.45-4.82,4.65-7.66,6.5v-15.58h14.37Z" style="fill:#FFC727;"></path><path d="M429.12,363.21v15.28c-5.84-4.02-10.38-9.12-13.79-15.28h13.79Z" style="fill:#FFC727;"></path><path d="M447.51,314.31h-13.8v-14.56c2.85,1.87,5.43,4.01,7.74,6.48,2.3,2.46,4.29,5.17,6.06,8.08Z" style="fill:#FFC727;"></path><path d="M429.12,300.21v14.22h-13.25c3.36-5.74,7.66-10.55,13.25-14.22Z" style="fill:#FFC727;"></path></g></g><g style="opacity: .7;"><g id="freepik--aizgp2--inject-432"><g><path d="M408.14,318.91c-2.26,5.73-3.53,11.65-3.89,17.77-.09,0-.16,0-.23,0-5.11,0-10.22,0-15.32,0-.07,0-.13,0-.2-.01v-.44c.04-.4,.09-.8,.13-1.21,.19-2.1,.55-4.16,1.04-6.2,.81-3.36,1.99-6.59,3.5-9.7,.09-.18,.19-.23,.38-.23,4.77,0,9.55,0,14.32,0h.27Z" style="fill:#fff;"></path><path d="M407.66,358.61h-.25c-4.74,0-9.47,0-14.21,0-.19,0-.27-.06-.35-.23-1.68-3.49-2.86-7.14-3.59-10.94-.35-1.83-.59-3.68-.71-5.54,0-.06-.03-.12-.04-.19v-.43c.08,0,.16-.02,.24-.02h15.23c.28,0,.27,0,.29,.28,.1,1.26,.18,2.53,.3,3.79,.19,2.01,.53,3.99,.97,5.96,.52,2.41,1.21,4.77,2.06,7.08,.02,.07,.04,.14,.07,.23Z" style="fill:#fff;"></path><path d="M468.49,363.2c-.05,.09-.09,.15-.13,.22-1.2,1.9-2.62,3.63-4.1,5.31-1.81,2.06-3.82,3.89-6.01,5.54-2.15,1.63-4.43,3.04-6.84,4.24-2.33,1.15-4.74,2.1-7.23,2.81-1.98,.57-3.99,.99-6.02,1.28-.2,.03-.4,.07-.59,.1h-.35c-.1-.07-.2-.13-.33-.21,.14-.1,.26-.19,.38-.27,4.43-3.04,8.24-6.71,11.41-11.06,1.78-2.44,3.33-5.02,4.66-7.73,.08-.17,.17-.22,.36-.22,4.85,0,9.69,0,14.54,0h.26Z" style="fill:#fff;"></path><path d="M454.02,336.67h-20.32v-17.75c.08,0,.16,0,.23,0,5.21,0,10.42,0,15.63,0,.17,0,.25,.05,.32,.21,1.46,3.35,2.54,6.82,3.23,10.4,.36,1.86,.63,3.74,.78,5.63,.04,.5,.08,1,.12,1.52Z" style="fill:#fff;"></path><path d="M453.9,341.41c-.02,.42-.02,.84-.06,1.25-.09,.99-.16,1.98-.3,2.96-.19,1.36-.4,2.72-.67,4.07-.6,2.97-1.49,5.86-2.63,8.67-.08,.19-.16,.26-.37,.26-5.33,0-10.66,0-16,0h-.29v-17.21h20.32Z" style="fill:#fff;"></path><path d="M429.12,319.02v17.78h-19.84c.03-.45,.04-.89,.09-1.33,.1-.99,.18-1.99,.34-2.98,.24-1.51,.5-3.01,.83-4.51,.65-3.01,1.63-5.92,2.87-8.75,.07-.17,.16-.22,.34-.22,5.04,0,10.09,0,15.13,0h.26Z" style="fill:#fff;"></path><path d="M429.14,341.64c0,5.57,0,11.15,0,16.72v.25h-.27c-5.2,0-10.39,0-15.59,0-.19,0-.27-.06-.35-.23-1.2-2.9-2.12-5.88-2.7-8.96-.3-1.58-.52-3.17-.72-4.77-.13-1.04-.16-2.1-.23-3.14,0-.03,0-.06,0-.11,.08,0,.15,0,.23,0,6.46,0,12.92,0,19.37,0,.21,0,.25,.06,.25,.26Z" style="fill:#fff;"></path><path d="M475.57,336.8h-16.65c-.36-6.15-1.61-12.11-3.88-17.89h.26c5.08,0,10.17,0,15.26,0,.18,0,.28,.05,.36,.22,1.78,3.54,3.06,7.25,3.84,11.13,.41,2.06,.67,4.14,.81,6.24,0,.1,0,.19,0,.3Z" style="fill:#fff;"></path><path d="M475.58,341.28c-.02,.4-.03,.78-.06,1.16-.11,1.5-.29,3-.55,4.48-.61,3.46-1.65,6.79-3.06,10-.23,.52-.47,1.03-.7,1.54-.05,.12-.12,.16-.25,.16-5.1,0-10.2,0-15.3,0-.05,0-.1,0-.17-.01,.19-.53,.37-1.05,.55-1.57,.9-2.65,1.58-5.36,2.06-8.11,.35-2,.6-4.01,.71-6.04,.03-.48,.06-.96,.08-1.43,0-.13,.04-.19,.17-.18,.05,0,.1,0,.15,0h16.35Z" style="fill:#fff;"></path><path d="M468.04,314.38s-.02,.04-.03,.07h-.21c-4.85,0-9.71,0-14.56,0-.17,0-.27-.04-.35-.21-1.96-3.87-4.34-7.47-7.23-10.71-1.68-1.89-3.55-3.57-5.55-5.11-.99-.76-2.02-1.48-3.04-2.22-.05-.04-.1-.08-.17-.13,.07-.05,.13-.09,.2-.14-.03-.09-.06-.19-.1-.31,5.18,.6,10.1,2.05,14.72,4.42,6.64,3.4,12.15,8.11,16.31,14.33Z" style="fill:#fff;"></path><path d="M426.3,382.5c-.18,.03-.31,.08-.42,.07-1.6-.21-3.18-.52-4.75-.92-2.93-.75-5.75-1.79-8.45-3.13-3.1-1.54-5.97-3.42-8.61-5.65-1.87-1.58-3.61-3.29-5.18-5.18-1.17-1.42-2.25-2.92-3.23-4.48-.02-.04-.04-.07-.07-.14h.24c4.52,0,9.04,0,13.56,0,.18,0,.26,.07,.34,.22,1.42,2.86,3.07,5.57,4.98,8.12,1.75,2.33,3.72,4.47,5.84,6.47,1.76,1.65,3.62,3.17,5.62,4.52,.02,.02,.04,.04,.13,.11Z" style="fill:#fff;"></path><path d="M426.12,296.05c-.62,.45-1.35,.97-2.05,1.51-2.39,1.83-4.54,3.9-6.57,6.12-2.73,2.98-5.03,6.25-6.9,9.83-.12,.23-.22,.46-.35,.67-.04,.07-.14,.13-.21,.13-.25,.02-.49,0-.74,0h-13.26c7.38-10.43,17.3-16.69,29.92-18.61-.03,.06-.06,.11-.09,.17,.09,.06,.17,.12,.24,.17Z" style="fill:#fff;"></path><path d="M447.96,363.21c-1.89,3.31-4.12,6.33-6.71,9.08-2.31,2.45-4.82,4.65-7.66,6.5v-15.58h14.37Z" style="fill:#fff;"></path><path d="M429.12,363.21v15.28c-5.84-4.02-10.38-9.12-13.79-15.28h13.79Z" style="fill:#fff;"></path><path d="M447.51,314.31h-13.8v-14.56c2.85,1.87,5.43,4.01,7.74,6.48,2.3,2.46,4.29,5.17,6.06,8.08Z" style="fill:#fff;"></path><path d="M429.12,300.21v14.22h-13.25c3.36-5.74,7.66-10.55,13.25-14.22Z" style="fill:#fff;"></path></g></g></g></g></g></g><g id="freepik--Text--inject-432"><g><path d="M36.3,206.52H14.96V65.05h21.34V206.52Z" style="fill:#FFC727;"></path><path d="M79.34,64.94l28.32,95.15V64.94h21.34V206.52h-22.92l-29.36-90.66v90.66h-21.34V64.94h23.96Z" style="fill:#FFC727;"></path><path d="M168.85,86.51h-22.69v-21.45h66.61v21.45h-22.58v120.02h-21.34V86.51Z" style="fill:#FFC727;"></path><path d="M263.58,65.05c11.89,0,20.62,3.27,26.19,9.82,4.89,5.72,7.34,13.7,7.34,23.94v20.55c0,10.01-3.8,18.48-11.4,25.4l15.8,61.76h-23.08l-12.94-53.29h-14.23v53.29h-21.34V65.05h33.65Zm12.76,34.1c0-8.2-4.06-12.31-12.19-12.31h-12.87v45.27h12.87c3.39,0,6.27-1.2,8.64-3.61,2.37-2.41,3.56-5.31,3.56-8.69v-20.66Z" style="fill:#FFC727;"></path><path d="M341.08,174.01l-5.19,32.52h-22.22l24.05-141.47h29.35l23.71,141.47h-22.44l-4.99-32.52h-22.28Zm11.21-76.55l-7.9,55.77h15.81l-7.9-55.77Z" style="fill:#FFC727;"></path><path d="M428.69,64.94l28.32,95.15V64.94h21.34V206.52h-22.92l-29.35-90.66v90.66h-21.34V64.94h23.96Z" style="fill:#FFC727;"></path><path d="M497.43,206.52V64.94h60.74v21.45h-39.4v38.61h28.79v21.45h-28.79v38.61h39.4v21.45h-60.74Z" style="fill:#FFC727;"></path><path d="M595.54,86.51h-22.69v-21.45h66.61v21.45h-22.58v120.02h-21.34V86.51Z" style="fill:#FFC727;"></path></g></g><g id="freepik--Server--inject-432"><g><rect x="44.67" y="295.57" width="151.11" height="131.21" style="fill:#263238;"></rect><g><rect x="105.32" y="295.57" width="102.36" height="36.51" style="fill:#37474f;"></rect><rect x="32.76" y="295.57" width="72.57" height="36.51" transform="translate(138.08 627.65) rotate(180)" style="fill:#455a64;"></rect><g><rect x="111.98" y="301.6" width="34.25" height="3.08" style="fill:#455a64;"></rect><rect x="111.98" y="306.94" width="34.25" height="3.08" style="fill:#455a64;"></rect><rect x="111.98" y="312.29" width="34.25" height="3.08" style="fill:#455a64;"></rect><rect x="111.98" y="317.63" width="34.25" height="3.08" style="fill:#455a64;"></rect><rect x="111.98" y="322.97" width="34.25" height="3.08" style="fill:#455a64;"></rect></g><g><path d="M162.64,304.66c0,1.69-1.37,3.06-3.06,3.06s-3.06-1.37-3.06-3.06,1.37-3.06,3.06-3.06,3.06,1.37,3.06,3.06Z" style="fill:#FFC727;"></path><path d="M172.71,304.66c0,1.69-1.37,3.06-3.06,3.06s-3.06-1.37-3.06-3.06,1.37-3.06,3.06-3.06,3.06,1.37,3.06,3.06Z" style="fill:#263238;"></path><path d="M182.79,304.66c0,1.69-1.37,3.06-3.06,3.06s-3.06-1.37-3.06-3.06,1.37-3.06,3.06-3.06,3.06,1.37,3.06,3.06Z" style="fill:#FFC727;"></path><path d="M192.86,304.66c0,1.69-1.37,3.06-3.06,3.06s-3.06-1.37-3.06-3.06,1.37-3.06,3.06-3.06,3.06,1.37,3.06,3.06Z" style="fill:#FFC727;"></path><path d="M202.94,304.66c0,1.69-1.37,3.06-3.06,3.06s-3.06-1.37-3.06-3.06,1.37-3.06,3.06-3.06,3.06,1.37,3.06,3.06Z" style="fill:#FFC727;"></path><circle cx="159.58" cy="313.83" r="3.06" style="fill:#FFC727;"></circle><circle cx="169.66" cy="313.83" r="3.06" style="fill:#fff;"></circle><path d="M182.79,313.83c0,1.69-1.37,3.06-3.06,3.06s-3.06-1.37-3.06-3.06,1.37-3.06,3.06-3.06,3.06,1.37,3.06,3.06Z" style="fill:#FFC727;"></path><path d="M192.86,313.83c0,1.69-1.37,3.06-3.06,3.06s-3.06-1.37-3.06-3.06,1.37-3.06,3.06-3.06,3.06,1.37,3.06,3.06Z" style="fill:#fff;"></path><path d="M202.94,313.83c0,1.69-1.37,3.06-3.06,3.06s-3.06-1.37-3.06-3.06,1.37-3.06,3.06-3.06,3.06,1.37,3.06,3.06Z" style="fill:#FFC727;"></path><path d="M162.64,323c0,1.69-1.37,3.06-3.06,3.06s-3.06-1.37-3.06-3.06,1.37-3.06,3.06-3.06,3.06,1.37,3.06,3.06Z" style="fill:#fff;"></path><path d="M172.71,323c0,1.69-1.37,3.06-3.06,3.06s-3.06-1.37-3.06-3.06,1.37-3.06,3.06-3.06,3.06,1.37,3.06,3.06Z" style="fill:#FFC727;"></path><path d="M182.79,323c0,1.69-1.37,3.06-3.06,3.06s-3.06-1.37-3.06-3.06,1.37-3.06,3.06-3.06,3.06,1.37,3.06,3.06Z" style="fill:#FFC727;"></path><path d="M192.86,323c0,1.69-1.37,3.06-3.06,3.06s-3.06-1.37-3.06-3.06,1.37-3.06,3.06-3.06,3.06,1.37,3.06,3.06Z" style="fill:#FFC727;"></path><path d="M202.94,323c0,1.69-1.37,3.06-3.06,3.06s-3.06-1.37-3.06-3.06,1.37-3.06,3.06-3.06,3.06,1.37,3.06,3.06Z" style="fill:#263238;"></path></g><rect x="150.73" y="301.6" width="1.76" height="24.45" style="fill:#263238;"></rect></g><g><rect x="105.32" y="336.71" width="102.36" height="36.51" style="fill:#37474f;"></rect><rect x="32.76" y="336.71" width="72.57" height="36.51" transform="translate(138.08 709.94) rotate(180)" style="fill:#455a64;"></rect><g><rect x="111.98" y="342.74" width="34.25" height="3.08" style="fill:#455a64;"></rect><rect x="111.98" y="348.08" width="34.25" height="3.08" style="fill:#455a64;"></rect><rect x="111.98" y="353.43" width="34.25" height="3.08" style="fill:#455a64;"></rect><rect x="111.98" y="358.77" width="34.25" height="3.08" style="fill:#455a64;"></rect><rect x="111.98" y="364.11" width="34.25" height="3.08" style="fill:#455a64;"></rect></g><g><path d="M162.64,345.8c0,1.69-1.37,3.06-3.06,3.06s-3.06-1.37-3.06-3.06,1.37-3.06,3.06-3.06,3.06,1.37,3.06,3.06Z" style="fill:#FFC727;"></path><path d="M172.71,345.8c0,1.69-1.37,3.06-3.06,3.06s-3.06-1.37-3.06-3.06,1.37-3.06,3.06-3.06,3.06,1.37,3.06,3.06Z" style="fill:#fff;"></path><path d="M182.79,345.8c0,1.69-1.37,3.06-3.06,3.06s-3.06-1.37-3.06-3.06,1.37-3.06,3.06-3.06,3.06,1.37,3.06,3.06Z" style="fill:#FFC727;"></path><path d="M192.86,345.8c0,1.69-1.37,3.06-3.06,3.06s-3.06-1.37-3.06-3.06,1.37-3.06,3.06-3.06,3.06,1.37,3.06,3.06Z" style="fill:#FFC727;"></path><path d="M202.94,345.8c0,1.69-1.37,3.06-3.06,3.06s-3.06-1.37-3.06-3.06,1.37-3.06,3.06-3.06,3.06,1.37,3.06,3.06Z" style="fill:#FFC727;"></path><path d="M162.64,354.97c0,1.69-1.37,3.06-3.06,3.06s-3.06-1.37-3.06-3.06,1.37-3.06,3.06-3.06,3.06,1.37,3.06,3.06Z" style="fill:#fff;"></path><path d="M172.71,354.97c0,1.69-1.37,3.06-3.06,3.06s-3.06-1.37-3.06-3.06,1.37-3.06,3.06-3.06,3.06,1.37,3.06,3.06Z" style="fill:#263238;"></path><path d="M182.79,354.97c0,1.69-1.37,3.06-3.06,3.06s-3.06-1.37-3.06-3.06,1.37-3.06,3.06-3.06,3.06,1.37,3.06,3.06Z" style="fill:#FFC727;"></path><path d="M192.86,354.97c0,1.69-1.37,3.06-3.06,3.06s-3.06-1.37-3.06-3.06,1.37-3.06,3.06-3.06,3.06,1.37,3.06,3.06Z" style="fill:#263238;"></path><path d="M202.94,354.97c0,1.69-1.37,3.06-3.06,3.06s-3.06-1.37-3.06-3.06,1.37-3.06,3.06-3.06,3.06,1.37,3.06,3.06Z" style="fill:#fff;"></path><path d="M162.64,364.14c0,1.69-1.37,3.06-3.06,3.06s-3.06-1.37-3.06-3.06,1.37-3.06,3.06-3.06,3.06,1.37,3.06,3.06Z" style="fill:#FFC727;"></path><path d="M172.71,364.14c0,1.69-1.37,3.06-3.06,3.06s-3.06-1.37-3.06-3.06,1.37-3.06,3.06-3.06,3.06,1.37,3.06,3.06Z" style="fill:#FFC727;"></path><path d="M182.79,364.14c0,1.69-1.37,3.06-3.06,3.06s-3.06-1.37-3.06-3.06,1.37-3.06,3.06-3.06,3.06,1.37,3.06,3.06Z" style="fill:#FFC727;"></path><path d="M192.86,364.14c0,1.69-1.37,3.06-3.06,3.06s-3.06-1.37-3.06-3.06,1.37-3.06,3.06-3.06,3.06,1.37,3.06,3.06Z" style="fill:#FFC727;"></path><path d="M202.94,364.14c0,1.69-1.37,3.06-3.06,3.06s-3.06-1.37-3.06-3.06,1.37-3.06,3.06-3.06,3.06,1.37,3.06,3.06Z" style="fill:#FFC727;"></path></g><rect x="150.73" y="342.74" width="1.76" height="24.45" style="fill:#263238;"></rect></g><g><rect x="105.32" y="377.85" width="102.36" height="36.51" style="fill:#37474f;"></rect><rect x="32.76" y="377.85" width="72.57" height="36.51" transform="translate(138.08 792.22) rotate(180)" style="fill:#455a64;"></rect><g><rect x="111.98" y="383.88" width="34.25" height="3.08" style="fill:#455a64;"></rect><rect x="111.98" y="389.23" width="34.25" height="3.08" style="fill:#455a64;"></rect><rect x="111.98" y="394.57" width="34.25" height="3.08" style="fill:#455a64;"></rect><rect x="111.98" y="399.91" width="34.25" height="3.08" style="fill:#455a64;"></rect><rect x="111.98" y="405.25" width="34.25" height="3.08" style="fill:#455a64;"></rect></g><g><path d="M162.64,386.94c0,1.69-1.37,3.06-3.06,3.06s-3.06-1.37-3.06-3.06,1.37-3.06,3.06-3.06,3.06,1.37,3.06,3.06Z" style="fill:#fff;"></path><path d="M172.71,386.94c0,1.69-1.37,3.06-3.06,3.06s-3.06-1.37-3.06-3.06,1.37-3.06,3.06-3.06,3.06,1.37,3.06,3.06Z" style="fill:#FFC727;"></path><path d="M182.79,386.94c0,1.69-1.37,3.06-3.06,3.06s-3.06-1.37-3.06-3.06,1.37-3.06,3.06-3.06,3.06,1.37,3.06,3.06Z" style="fill:#FFC727;"></path><path d="M192.86,386.94c0,1.69-1.37,3.06-3.06,3.06s-3.06-1.37-3.06-3.06,1.37-3.06,3.06-3.06,3.06,1.37,3.06,3.06Z" style="fill:#FFC727;"></path><path d="M202.94,386.94c0,1.69-1.37,3.06-3.06,3.06s-3.06-1.37-3.06-3.06,1.37-3.06,3.06-3.06,3.06,1.37,3.06,3.06Z" style="fill:#FFC727;"></path><path d="M162.64,396.11c0,1.69-1.37,3.06-3.06,3.06s-3.06-1.37-3.06-3.06,1.37-3.06,3.06-3.06,3.06,1.37,3.06,3.06Z" style="fill:#263238;"></path><path d="M172.71,396.11c0,1.69-1.37,3.06-3.06,3.06s-3.06-1.37-3.06-3.06,1.37-3.06,3.06-3.06,3.06,1.37,3.06,3.06Z" style="fill:#FFC727;"></path><path d="M182.79,396.11c0,1.69-1.37,3.06-3.06,3.06s-3.06-1.37-3.06-3.06,1.37-3.06,3.06-3.06,3.06,1.37,3.06,3.06Z" style="fill:#fff;"></path><path d="M192.86,396.11c0,1.69-1.37,3.06-3.06,3.06s-3.06-1.37-3.06-3.06,1.37-3.06,3.06-3.06,3.06,1.37,3.06,3.06Z" style="fill:#263238;"></path><path d="M202.94,396.11c0,1.69-1.37,3.06-3.06,3.06s-3.06-1.37-3.06-3.06,1.37-3.06,3.06-3.06,3.06,1.37,3.06,3.06Z" style="fill:#FFC727;"></path><path d="M162.64,405.28c0,1.69-1.37,3.06-3.06,3.06s-3.06-1.37-3.06-3.06,1.37-3.06,3.06-3.06,3.06,1.37,3.06,3.06Z" style="fill:#FFC727;"></path><path d="M172.71,405.28c0,1.69-1.37,3.06-3.06,3.06s-3.06-1.37-3.06-3.06,1.37-3.06,3.06-3.06,3.06,1.37,3.06,3.06Z" style="fill:#263238;"></path><path d="M182.79,405.28c0,1.69-1.37,3.06-3.06,3.06s-3.06-1.37-3.06-3.06,1.37-3.06,3.06-3.06,3.06,1.37,3.06,3.06Z" style="fill:#FFC727;"></path><path d="M192.86,405.28c0,1.69-1.37,3.06-3.06,3.06s-3.06-1.37-3.06-3.06,1.37-3.06,3.06-3.06,3.06,1.37,3.06,3.06Z" style="fill:#FFC727;"></path><path d="M202.94,405.28c0,1.69-1.37,3.06-3.06,3.06s-3.06-1.37-3.06-3.06,1.37-3.06,3.06-3.06,3.06,1.37,3.06,3.06Z" style="fill:#fff;"></path></g><rect x="150.73" y="383.88" width="1.76" height="24.45" style="fill:#263238;"></rect></g></g></g><g id="freepik--Plant--inject-432"><g><g><g><path d="M500.07,258.28s-24.94-3.49-19.11-33.6c0,0,27.87,6.26,19.11,33.6Z" style="fill:#FFC727;"></path><path d="M500.07,258.28s-24.94-3.49-19.11-33.6c0,0,27.87,6.26,19.11,33.6Z" style="opacity: .1;"></path><path d="M498.81,251.99c-.49-1.52-1.06-3.02-1.7-4.49-.02-.19-.05-.38-.06-.57-.04-.41-.07-.83-.1-1.24-.07-.9-.13-1.8-.18-2.7-.11-1.8-.22-3.6-.25-5.4,0-.1-.15-.09-.15,0-.02,1.8-.04,3.6,.03,5.41,.03,.9,.09,1.8,.15,2.7,.01,.2,.03,.4,.04,.6-1.39-3-3.08-5.87-5-8.55-.86-1.2-1.76-2.35-2.73-3.46-.99-1.14-2.04-2.22-3.05-3.35-.06-.07-.17,.04-.1,.11,1.83,1.91,3.35,4.18,4.81,6.39,.76,1.15,1.47,2.32,2.15,3.52-.08-.03-.16-.06-.23-.09-.3-.12-.59-.24-.89-.36-.68-.26-1.36-.52-2.04-.77-1.34-.5-2.68-.99-4.01-1.49-.08-.03-.14,.11-.06,.14,1.33,.53,2.64,1.09,3.95,1.65,.64,.28,1.29,.55,1.93,.83,.32,.14,.65,.27,.97,.4,.22,.09,.43,.2,.66,.23,.5,.9,1,1.81,1.46,2.73,1.15,2.33,2.18,4.73,3.05,7.19,.06,.17,.12,.34,.18,.52-.62-.42-1.4-.69-2.04-.98-.86-.4-1.72-.78-2.58-1.18-1.75-.8-3.49-1.62-5.16-2.57-.09-.05-.16,.09-.07,.13,1.71,.94,3.39,1.93,5.11,2.86,.86,.47,1.72,.92,2.6,1.34,.72,.35,1.53,.84,2.34,.94,.78,2.3,1.43,4.63,1.63,7.07,.28,3.4,.25,6.84,.33,10.25,0,.06,.09,.06,.09,0,.25-3.1,.39-6.22,.4-9.33,.01-2.95-.58-5.7-1.47-8.5Z" style="fill:#263238;"></path><path d="M494.97,234.29c-.2,1.75-.37,3.55-.25,5.31,0,.05,.07,.05,.08,0,.1-1.76,.12-3.52,.32-5.27,.01-.1-.14-.13-.15-.04Z" style="fill:#263238;"></path><path d="M487.84,235.79c-1.1-.47-2.2-.91-3.21-1.58-.08-.05-.16,.08-.07,.13,1.01,.63,2.09,1.24,3.24,1.55,.06,.02,.1-.08,.04-.11Z" style="fill:#263238;"></path></g><path d="M500.87,306.08c-.02-2.76-.07-5.51-.1-8.27-.05-9.15-.13-18.31-.29-27.46-.13-7.27-.3-14.53-.51-21.8,0-.04-.03-.07-.06-.09,0-1.98-.02-3.97-.03-5.95,0-.05-.06-.07-.12-.07-.06,0-.12,.03-.12,.08-.01,1.99-.03,3.98-.04,5.96-.03,.02-.06,.05-.06,.09-.37,12.93-.69,25.87-.77,38.8-.02,2.63-.01,5.26-.03,7.89-.09,8.43-.13,16.87-.1,25.3,0,1.34-.02,2.69-.03,4.03-.03,7.72,.08,15.43,.08,23.15,0,.42,.46,.62,.95,.64,.56,.02,1.16-.2,1.16-.67,0-8.51,.06-17.02,.06-25.53,.03-5.36,.05-10.73,0-16.09Z" style="fill:#263238;"></path><g><path d="M490.45,297.71s-12-8.89-23.38-2.88c-11.39,6-13.17,29.16-13.17,29.16,0,0,16.72,2.39,27.25-7.63,10.15-9.66,9.31-18.64,9.31-18.64Z" style="fill:#FFC727;"></path><path d="M493.72,298.25c-2.17-.91-4.59-1.14-6.95-.91-.48-.11-.99-.11-1.47-.14-.56-.04-1.13-.08-1.69-.13-1.17-.09-2.33-.16-3.5-.25-2.37-.18-4.74-.32-7.1-.56-.08,0-.1,.14-.02,.15,2.34,.3,4.66,.63,7.01,.87,1.21,.12,2.41,.25,3.62,.33,.28,.02,.58,.05,.88,.09-.36,.08-.72,.16-1.06,.26-1.88,.53-3.69,1.3-5.44,2.21-.95,.17-1.88,.43-2.81,.65-1.48,.35-2.96,.73-4.44,1.12-2.91,.76-5.8,1.62-8.69,2.46-.09,.03-.05,.17,.04,.15,2.89-.71,5.79-1.36,8.69-2.05,1.41-.33,2.81-.66,4.22-1.01,.36-.09,.73-.17,1.1-.25-3.23,1.99-6.14,4.54-8.53,7.41-2.39,2.87-4.29,6.01-5.93,9.35-.04,.09,.08,.17,.13,.08,1.94-3.4,4.38-6.6,7.17-9.41-.05,.16-.11,.32-.16,.48-.22,.71-.44,1.41-.67,2.12-.44,1.41-.89,2.82-1.32,4.24-.03,.1,.11,.13,.15,.04,.51-1.37,.98-2.75,1.47-4.12,.24-.68,.47-1.35,.71-2.03,.12-.35,.24-.7,.36-1.05,.04-.11,.08-.21,.12-.32,1.35-1.3,2.76-2.53,4.25-3.63,1.97-1.45,4.12-2.68,6.37-3.65-.04,.21-.08,.42-.12,.61-.12,.55-.24,1.09-.35,1.64-.23,1.14-.46,2.27-.68,3.41-.45,2.32-.73,4.67-1.17,7-.02,.1,.13,.13,.15,.04,.54-2.33,1.23-4.63,1.75-6.97,.26-1.17,.52-2.34,.77-3.51,.11-.55,.22-1.1,.33-1.65,.06-.31,.13-.61,.17-.92,.22-.09,.43-.19,.65-.27,3.15-1.17,6.63-2.01,9.98-1.37,3.21,.62,5.96,2.77,7.22,5.79,.11,.26,.52,.1,.46-.17-.65-2.88-3.06-5.02-5.7-6.13Z" style="fill:#263238;"></path><path d="M475.36,308.14c-.34,1.52-.68,3.04-1.01,4.56-.32,1.45-.72,2.95-.84,4.44,0,.06,.08,.06,.1,.01,.49-1.43,.73-2.99,1.02-4.47,.3-1.5,.59-3,.88-4.5,.02-.1-.13-.13-.15-.04Z" style="fill:#263238;"></path><path d="M463.76,312c-1.53,.77-3.01,1.66-4.6,2.29-.1,.04-.04,.19,.06,.14,1.54-.77,3.13-1.44,4.58-2.37,.04-.02,0-.08-.04-.06Z" style="fill:#263238;"></path></g><g><path d="M493.15,281.38s-14.66,.94-21.48-8.73c-6.82-9.67-5.29-23.48-5.29-23.48,0,0,15.4,1.87,21.52,8.81,6.12,6.94,5.25,23.39,5.25,23.39Z" style="fill:#FFC727;"></path><path d="M500.03,295.85c-.51-1.57-1.14-3.12-1.73-4.66-.57-1.48-1.18-2.94-1.82-4.39-1.32-2.96-2.77-5.84-4.39-8.64-1.03-1.78-2.14-3.51-3.28-5.22-.02-.26-.08-.52-.11-.78-.07-.45-.13-.91-.2-1.36-.15-.93-.31-1.85-.46-2.78-.34-2.02-.76-4.04-1.08-6.06-.02-.09-.17-.09-.15,0,.3,2,.5,4.01,.78,6.02,.14,.98,.27,1.97,.42,2.95,.05,.35,.11,.71,.17,1.06-2.24-3.26-4.65-6.41-7.25-9.41-.35-.4-.71-.8-1.07-1.2-.04-.11-.09-.22-.14-.34-.11-.28-.21-.56-.32-.84-.22-.58-.43-1.17-.64-1.75-.41-1.15-.78-2.31-1.09-3.49-.03-.09-.17-.05-.15,.04,.3,1.2,.61,2.4,.96,3.59,.17,.57,.36,1.14,.56,1.7,.03,.09,.07,.19,.1,.28-1.87-2.04-3.83-4.01-5.8-5.96-.07-.07-.17,.04-.1,.11,3.83,3.92,7.22,8.25,10.39,12.73-.36-.11-.73-.21-1.09-.28-1.13-.22-2.27-.38-3.41-.52-2.39-.3-4.77-.61-7.15-.98-.1-.02-.13,.13-.04,.15,2.27,.45,4.52,.96,6.78,1.48,1.06,.24,2.13,.45,3.21,.66,.89,.18,1.72,.45,2.57,.73,.24,.34,.48,.67,.72,1.01,1.08,1.57,2.11,3.16,3.12,4.77-.5-.1-1-.2-1.5-.29-1.13-.22-2.27-.42-3.41-.61-2.24-.37-4.47-.76-6.68-1.26-.1-.02-.13,.13-.04,.15,2.24,.53,4.46,1.14,6.69,1.73,1.07,.29,2.16,.55,3.24,.79,.54,.12,1.09,.24,1.63,.35,.23,.05,.45,.11,.66,.11,2.14,3.47,4.15,7.03,6.01,10.66,.82,1.6,1.6,3.21,2.37,4.83,.78,1.66,1.45,3.36,2.18,5.05,.14,.34,.68,.2,.56-.17Z" style="fill:#263238;"></path><path d="M485.03,262.15c-.28-1.4-.58-2.79-.88-4.19-.02-.1-.16-.05-.15,.04,.28,1.37,.54,2.75,.79,4.13,.25,1.37,.45,2.77,.83,4.11,0,.02,.05,.02,.04,0-.07-1.37-.37-2.75-.64-4.09Z" style="fill:#263238;"></path><path d="M476.47,261.74c-.68-.34-1.4-.61-2.11-.89-.37-.14-.74-.29-1.11-.44-.19-.08-.38-.15-.57-.23-.2-.08-.45-.14-.62-.27-.11-.08-.18,.11-.07,.13,.22,.04,.43,.17,.63,.26,.18,.08,.37,.17,.55,.25,.36,.16,.71,.32,1.07,.48,.71,.31,1.43,.63,2.17,.86,.09,.03,.14-.11,.06-.15Z" style="fill:#263238;"></path></g><g><path d="M508.16,269.85s8.87-16.58,22.37-19.14c13.5-2.57,21.76,11.32,21.76,11.32,0,0-9.85,12.57-22.23,14.77-12.39,2.19-21.9-6.95-21.9-6.95Z" style="fill:#FFC727;"></path><path d="M539.58,258.14c-3.5-.48-7.08-.42-10.59,.13,.2-.11,.4-.22,.6-.32,1-.51,2-1.02,2.99-1.54,2.07-1.08,4.17-2.23,6.34-3.1,.1-.04,.04-.18-.06-.14-2.11,.98-4.3,1.81-6.42,2.78-1.06,.49-2.1,.99-3.13,1.54-.67,.35-1.4,.69-2.06,1.11-2.97,.61-5.86,1.55-8.58,2.85,.56-.61,1.13-1.22,1.69-1.84,1.26-1.38,2.5-2.82,3.88-4.08,.07-.07-.04-.17-.11-.1-1.41,1.28-2.9,2.47-4.27,3.8-.66,.65-1.3,1.32-1.92,2.01-.31,.34-.62,.7-.91,1.07-5.87,3.19-10.86,8.01-14.16,13.83-1.87,3.31-3.18,6.89-3.94,10.61-.02,.09,.12,.15,.14,.05,1.85-6.26,5.35-12.14,9.92-16.79,4.96-5.05,11.22-8.7,18.09-10.46,4.07-1.05,8.29-1.41,12.48-1.13,.17,.01,.19-.24,.02-.27Z" style="fill:#263238;"></path><path d="M552.3,262.04s-9.85,12.58-22.24,14.77c-9.45,1.68-17.22-3.25-20.38-5.68l-.68-1.12s6.39-5.39,18.48-8.49c12.09-3.11,24.82,.53,24.82,.53Z" style="opacity: .1;"></path><path d="M531.74,252.23c-1.03,.62-2.04,1.25-3,1.98-.94,.72-1.81,1.5-2.6,2.38-.07,.08,.04,.18,.12,.11,.9-.78,1.8-1.56,2.73-2.29,.91-.72,1.84-1.44,2.84-2.05,.08-.05,0-.18-.08-.13Z" style="fill:#263238;"></path><path d="M539.15,255.04c-.5,.21-1.01,.39-1.51,.6-.5,.21-1,.42-1.5,.62-.11,.04-.06,.22,.05,.17,.5-.2,1-.41,1.51-.61,.5-.2,.99-.44,1.5-.64,.09-.04,.05-.18-.04-.15Z" style="fill:#263238;"></path></g><g><path d="M506.39,290.71s2.37,16.44,14.74,22.19c12.36,5.75,27.44,0,27.44,0,0,0-5.93-35.57-42.17-22.19Z" style="fill:#FFC727;"></path><path d="M540.04,302.21c-1.14-.13-2.27-.32-3.4-.53-.55-.1-1.11-.21-1.66-.31-.28-.06-.57-.12-.87-.17-.33-.31-.66-.63-1-.93-2.34-2.06-4.88-3.89-7.56-5.48-1.46-.87-2.98-1.64-4.53-2.33,.08,0,.16,0,.23,.01,1.36,.06,2.71,.11,4.07,.18,2.71,.13,5.43,.19,8.14,.36,.1,0,.09-.15,0-.15-2.72-.18-5.43-.48-8.15-.72-1.32-.11-2.64-.23-3.95-.35-.68-.06-1.36-.12-2.04-.18-.17-.02-.35-.04-.52-.06-.7-.26-1.42-.51-2.13-.73-3.38-1.05-7.01-1.47-10.47-.58-3.11,.8-6.21,2.83-7.02,6.11-.03,.11,.15,.19,.2,.08,1.16-2.74,4.2-4.12,6.95-4.69,1.85-.38,3.74-.36,5.6-.11,.08,.84,.39,1.71,.62,2.49,.34,1.16,.68,2.32,1.03,3.47,.7,2.31,1.47,4.6,2.16,6.91,.03,.09,.17,.05,.15-.04-.57-2.31-1.06-4.64-1.61-6.95-.27-1.14-.56-2.27-.84-3.4-.18-.73-.33-1.58-.62-2.34,1.09,.19,2.16,.45,3.21,.76,1.9,.56,3.77,1.25,5.6,2.05,.18,1.17,.44,2.33,.71,3.49,.34,1.45,.72,2.89,1.17,4.31,.03,.09,.16,.05,.14-.04-.02-.09-.04-.18-.06-.27h0c-.28-1.35-.57-2.69-.86-4.03-.23-1.08-.44-2.17-.67-3.25,1.54,.69,3.05,1.44,4.51,2.28,.03,.33,.11,.68,.16,.98,.09,.56,.19,1.13,.29,1.69,.23,1.27,.49,2.53,.79,3.79,.59,2.41,1.24,4.83,2.13,7.15-.02,.03-.02,.06,0,.1l.07,.08c.05,.06,.14-.01,.13-.08-.57-2.44-1.23-4.85-1.76-7.3-.27-1.22-.54-2.44-.78-3.67-.12-.61-.23-1.23-.35-1.84-.03-.17-.06-.36-.09-.55,1.67,.99,3.28,2.06,4.81,3.21,2.64,1.99,5.17,4.27,7.37,6.73,.09,.1,.26-.04,.18-.15-.94-1.24-1.88-2.45-2.95-3.6-.62-.67-1.27-1.31-1.93-1.94,.07,.01,.14,.02,.21,.04,.58,.1,1.16,.18,1.74,.26,1.14,.15,2.29,.27,3.44,.4,.1,.01,.13-.14,.04-.15Z" style="fill:#263238;"></path><path d="M531.35,307.79h0c-.02-.14-.04-.29-.07-.43-.04-.18-.12-.36-.15-.54h0c-.25-1.1-.47-2.21-.67-3.32-.01-.08-.14-.05-.13,.02,.05,1.47,.42,2.93,.94,4.29,.02,.04,.09,.04,.09-.01h0Z" style="fill:#263238;"></path><path d="M521,307.52s-.04-.07-.07-.07c-.35-1.46-.68-2.91-.98-4.38-.16-.77-.32-1.54-.47-2.31-.08-.42-.16-.83-.23-1.25-.06-.36-.1-.74-.27-1.07-.03-.06-.13-.04-.14,.02-.1,.69,.18,1.53,.31,2.21,.15,.8,.31,1.6,.48,2.4,.36,1.62,.77,3.24,1.22,4.83,.03,.09,.17,.07,.16-.03,0-.12-.02-.24-.02-.36Z" style="fill:#263238;"></path><path d="M538.92,297.48c-2.26-.31-4.51-.64-6.78-.91-.1-.01-.13,.13-.04,.15,2.25,.33,4.52,.61,6.78,.91,.1,.01,.13-.13,.04-.15Z" style="fill:#263238;"></path></g><g><path d="M500.05,252.15s-7.56-33.19,28.1-46.62c0,0,9.88,43.69-28.1,46.62Z" style="fill:#FFC727;"></path><path d="M507.75,233.33c.13-.09,.26-.17,.38-.23,.67-.37,1.34-.75,2.02-1.13l4.14-2.31c2.72-1.52,5.41-3.11,8.15-4.6,.09-.05,0-.18-.08-.13-2.75,1.49-5.54,2.89-8.3,4.35l-4.09,2.16c-.56,.29-1.11,.59-1.67,.88,1.19-2.26,2.46-4.47,3.86-6.6,1.86-2.84,3.91-5.55,6.03-8.2,.1-.12-.06-.28-.18-.17-3.15,3.01-5.87,6.45-8.25,10.11,0-.12,0-.23,.01-.35,.04-.83,.06-1.65,.07-2.48,.02-1.62-.05-3.24,0-4.86,0-.1-.15-.09-.15,0-.07,1.59-.26,3.18-.35,4.78-.05,.8-.08,1.59-.1,2.39-.01,.43-.05,.92-.04,1.39-.73,1.17-1.44,2.35-2.11,3.56-1.19,2.14-2.25,4.38-3.19,6.68-.04-.83-.09-1.65-.13-2.48-.11-1.82-.33-3.63-.4-5.45,0-.1-.15-.09-.15,0,.04,1.82-.05,3.64,0,5.46,.03,.91,.06,1.82,.12,2.72,.02,.33,.04,.67,.06,1.01-1.14,2.98-2.05,6.04-2.69,9.12-.7,3.32-.98,6.66-1.33,10.02,0,.02,.04,.02,.04,0,.31-3,1.07-6.04,1.89-8.94,.44-1.57,.91-3.13,1.41-4.67,1.48-.7,2.9-1.57,4.34-2.37,1.49-.82,2.98-1.63,4.48-2.45,2.97-1.63,5.94-3.29,9.02-4.73,.09-.04,0-.17-.08-.13-3.11,1.41-6.24,2.75-9.3,4.28-1.52,.76-3.01,1.58-4.5,2.41-1.24,.7-2.51,1.4-3.69,2.2,.35-1.03,.71-2.06,1.1-3.08,1.08-2.79,2.3-5.53,3.67-8.2Z" style="fill:#263238;"></path><path d="M504.75,225.74c0-.1-.16-.09-.15,0,.13,1.89,.19,3.79,.39,5.67,.01,.11,.17,.11,.17,0-.07-1.9-.27-3.78-.41-5.67Z" style="fill:#263238;"></path><path d="M521.84,232.08c-2.23,.9-4.48,1.75-6.71,2.68-.06,.03-.03,.13,.03,.1,2.25-.84,4.48-1.76,6.72-2.64,.09-.04,.05-.18-.04-.15Z" style="fill:#263238;"></path><path d="M525.23,216.77c-2.18,1.01-4.3,2.13-6.34,3.4-.1,.06,0,.22,.1,.16,2.07-1.21,4.17-2.37,6.32-3.43,.09-.04,0-.17-.08-.13Z" style="fill:#263238;"></path></g></g><g><rect x="473.26" y="323.93" width="51.43" height="54.21" style="fill:#455a64;"></rect><g><rect x="469.72" y="343.11" width="2.63" height="83.67" style="fill:#263238;"></rect><rect x="525.33" y="343.11" width="2.63" height="83.67" style="fill:#263238;"></rect><rect x="498.93" y="343.11" width="2.63" height="83.67" style="fill:#263238;"></rect><rect x="471.04" y="374.66" width="55.6" height="7.51" style="fill:#263238;"></rect></g></g></g></g><g id="freepik--character-2--inject-432"><g><g><g><g><path d="M590.66,318.25s28.48,33.95,28.5,33.97c5.48,6.46,10.17,12.23,12.32,15.44,.01,.02,.03,.03,.03,.05,.81,1.21,1.25,2.05,1.22,2.4,0,.03,0,.05,0,.07-.82,2.93-51.2,48.23-53.49,49.22-2.29,1-5.29-5.46-4.73-8.77,.57-3.33,12.09-29.3,12.09-29.3l-28.14-34.2,32.21-28.88Z" style="fill:#eb9481;"></path><path d="M613.32,345.26s5.83,6.95,5.85,6.97c5.48,6.46,10.17,12.23,12.32,15.44,.01,.02,.03,.03,.03,.05,.74,1.25,1.18,2.11,1.22,2.4,0,.03,0,.05,0,.07-.82,2.93-51.2,48.23-53.49,49.22-2.29,1-5.29-5.46-4.73-8.77,.57-3.33,12.09-29.3,12.09-29.3l-6.03-6.99,32.75-29.09Z" style="fill:#ebebeb;"></path><g><path d="M579.24,419.41c2.29-.99,52.67-46.28,53.49-49.23,.33-1.11-5.84-8.84-13.57-17.96-.08-.09-.16-.19-.24-.28l-32.83,28.86,.51,.54s-11.53,25.96-12.09,29.29c-.55,3.31,2.44,9.77,4.73,8.77Z" style="fill:#FFC727;"></path><polygon points="586.17 380.74 586.17 380.89 586.09 380.81 586.17 380.74" style="fill:#020100;"></polygon><path d="M574.51,410.64c.49-2.94,9.56-23.58,11.65-28.32v31.39c-3.83,3.33-6.45,5.5-6.92,5.71-2.29,.99-5.28-5.47-4.73-8.78Z" style="fill:#020100; opacity: .1;"></path><g><path d="M578.05,416.95c8.3-7.84,42.54-38.7,51.34-45.82,.07-.06,.11-.01,.05,.05-8.06,7.95-42.54,38.53-51.26,45.91-.18,.16-.3,.03-.12-.14Z" style="fill:#263238;"></path><path d="M583.96,383.9c2.78-3.63,7.33-6.79,12.02-6.71,.18,0,.17,.26,.04,.33-4.23,1.92-7.91,4.03-11.67,6.79-.26,.19-.59-.15-.39-.41Z" style="fill:#263238;"></path><path d="M582.85,387.52c2.78-3.63,7.33-6.79,12.02-6.71,.18,0,.17,.26,.04,.32-4.23,1.93-7.91,4.03-11.67,6.79-.26,.19-.59-.15-.39-.41Z" style="fill:#263238;"></path><path d="M581.75,391.14c2.78-3.63,7.33-6.79,12.02-6.71,.18,0,.17,.26,.04,.32-4.23,1.93-7.91,4.03-11.67,6.79-.26,.19-.59-.15-.39-.41Z" style="fill:#263238;"></path></g></g></g><g><path d="M576.91,277.13c2.44,12.06,43.98,73.67,43.98,73.67l-36.9,33.77s-60.52-77.91-56.81-104.55c3.22-23.17,37.92-116.37,37.92-116.37h40.03s-30.62,101.62-28.22,113.48Z" style="fill:#263238;"></path><g><path d="M580.84,373.44c5.35-5.11,3.74-3.72,9.15-8.77,2.65-2.47,20.05-18.7,22.92-20.58,.06-.04,.15,.05,.1,.11-2.12,2.7-19.8,18.63-22.49,21.05-5.5,4.95-3.98,3.47-9.53,8.35-.1,.09-.25-.06-.15-.16Z" style="fill:#37474f;"></path><path d="M570.03,273.16c.57-3.01,1.22-6.01,1.86-9.01,1.3-6.12,2.68-12.23,4.13-18.31,2.88-12.07,6-24.08,9.4-36.02,3.41-11.98,7.02-23.94,11.17-35.68,.51-1.45,1.04-2.9,1.57-4.34,.04-.11,.21-.06,.18,.05-3.6,11.77-7.3,23.5-10.68,35.33-3.36,11.79-6.47,23.63-9.4,35.53-1.47,5.97-2.84,11.97-4.18,17.98-.66,2.95-1.3,5.9-1.93,8.86-.64,3-1.49,6.06-1.68,9.13-.18,3.01,.8,5.69,2.35,8.23,1.5,2.45,33.47,57.04,34.52,58.03,.08,.08-.04,.19-.13,.12-4.37-3.92-36.23-58.89-37.09-61.46-.92-2.76-.65-5.62-.11-8.43Z" style="fill:#37474f;"></path></g><path d="M605.12,163.65s-21.64,71.82-27.1,101.76l-6.7-101.76h33.8Z" style="fill:#37474f;"></path></g></g><g><g><path d="M586.22,360.01s-8.64,42.07-8.64,42.11c-.12,8.47-.37,15.9-.86,19.73,0,.02,0,.04,0,.06-.18,1.45-.4,2.37-.66,2.61-.02,.02-.03,.04-.05,.05-2.55,1.67-70.29,2.73-72.66,1.97-2.38-.75-.4-7.59,2.2-9.73,2.62-2.14,28.36-14.14,28.36-14.14l9.06-42.05,43.26-.61Z" style="fill:#eb9481;"></path><path d="M503.34,426.53c2.37,.76,70.12-.29,72.66-1.96,.02-.01,.03-.03,.06-.06,.26-.25,.48-1.16,.66-2.61,.01-.02,.01-.04,.01-.07,.49-3.82,.74-11.25,.86-19.72,0-.01,1.5-7.32,1.5-7.32h-43.48l-1.69,7.87s-25.75,12.01-28.37,14.15c-2.59,2.14-4.58,8.97-2.2,9.72Z" style="fill:#ebebeb;"></path><g><path d="M503.34,426.53c2.38,.76,70.11-.29,72.67-1.97,.98-.62,1.4-10.5,1.57-22.45,0-.12,0-.25,0-.37l-43.71,.19,.03,.74s-25.75,12-28.36,14.14c-2.59,2.13-4.58,8.97-2.2,9.72Z" style="fill:#FFC727;"></path><g><path d="M504.07,423.89c11.41-.46,57.49-1.23,68.81-.81,.09,0,.09,.07,0,.07-11.3,.7-57.39,1.1-68.81,.93-.24,0-.24-.18,0-.19Z" style="fill:#263238;"></path><path d="M530.23,402.86c4.48-.91,9.99-.3,13.47,2.84,.14,.12-.04,.31-.19,.27-4.45-1.33-8.61-2.16-13.26-2.55-.33-.03-.35-.5-.03-.57Z" style="fill:#263238;"></path><path d="M527.02,404.86c4.48-.91,9.99-.3,13.47,2.84,.14,.12-.04,.31-.19,.27-4.46-1.33-8.61-2.16-13.26-2.55-.33-.03-.35-.5-.03-.57Z" style="fill:#263238;"></path><path d="M523.8,406.87c4.48-.91,9.99-.3,13.47,2.84,.14,.12-.04,.31-.19,.27-4.45-1.33-8.61-2.16-13.26-2.55-.33-.03-.35-.5-.03-.57Z" style="fill:#263238;"></path></g></g></g><g><path d="M565.99,163.65c.05,.84,2.28,8.51,3.44,19.97,.83,8.38,1.88,15.79,3,16.71,1.26,1.04,7.59,5.1,9.72,6.4,0,0-19.72,59.79-24.81,79.72-7.38,28.89-25.05,115.57-25.05,115.57h47.09s14.32-82.53,20.58-110.03c5.37-23.58,20.92-94.33,20.92-94.33,7.48-18.39-1.66-34.02-1.66-34.02,0,0-53.22-.03-53.21,0Z" style="fill:#263238;"></path><g><path d="M536.44,392.9c6.98-.05,4.98-.14,11.96-.1,3.42,.02,25.87,.16,29.05,.77,.07,.01,.07,.14,0,.15-3.2,.51-25.65-.04-29.06-.13-6.98-.18-4.97-.21-11.95-.47-.13,0-.13-.21,0-.22Z" style="fill:#37474f;"></path><g><path d="M569.09,197.97c4.59,2.42,8.9,5.52,12.99,8.69,.16,.12,0,.38-.17,.27-4.4-2.76-8.91-5.44-13.16-8.44-.33-.24-.01-.71,.34-.52Z" style="fill:#37474f;"></path><path d="M572.69,165.44c.04-.16,.33-.15,.3,.02-.91,5.59-1.32,10.58-1.66,15.88-.16,2.46-.29,16.19,4.08,15.87,.73-.05,1.2-.69,1.47-1.74,.33-1.26,.09-2.9,.08-4.2-.03-2.88,.03-5.76,.23-8.64,.37-5.37,1.17-10.67,2.64-15.86,.05-.17,.3-.12,.27,.06-1.15,7.34-2.09,14.69-2.12,22.13-.01,3.57,.93,9.11-2.81,9.08-3.81-.03-4.84-9.21-4.92-11.69-.22-6.92,.85-14.18,2.44-20.9Z" style="fill:#37474f;"></path><path d="M575.24,197.56c.24,.96,.4,1.95,.52,2.93,.09,.76,.24,1.6,.04,2.35-.04,.15-.24,.13-.3,.02-.4-.7-.47-1.59-.63-2.38-.19-.91-.39-1.82-.55-2.73-.11-.61,.79-.78,.93-.18Z" style="fill:#37474f;"></path></g><path d="M582.81,379.32c.13-1.13,.27-2.25,.43-3.37,.3-2.16,.65-4.31,.97-6.46,.64-4.33,1.36-8.64,2.1-12.95,1.48-8.6,3.18-17.17,4.98-25.7,1.02-4.82,2.2-9.59,3.45-14.35,.09-.33,.54-.17,.48,.15-.76,4.36-1.49,8.72-2.35,13.06-.86,4.33-1.72,8.65-2.55,12.99-1.64,8.57-3.18,17.15-4.82,25.72-.46,2.42-.88,4.84-1.34,7.26-.23,1.21-.46,2.41-.71,3.61-.25,1.2-.61,2.38-.8,3.59-.02,.11-.18,.06-.17-.05,.18-1.15,.2-2.33,.33-3.5Z" style="fill:#37474f;"></path><path d="M552.38,304.36c1.57-7.81,3.68-15.53,5.81-23.2,4.28-15.45,9.32-30.68,14.34-45.9,1.45-4.39,2.89-8.77,4.34-13.16,.72-2.19,4.27-14.01,4.71-15.14,.04-.11,.21-.07,.18,.06-1.02,4.03-2.41,9.9-3.59,13.89-1.16,3.94-2.43,7.85-3.65,11.77-2.4,7.71-4.85,15.4-7.19,23.13-4.62,15.28-9.2,30.55-12.95,46.07-1.05,4.35-2.09,8.69-3.05,13.06-.96,4.36-3.81,15.17-4.72,19.54-.02,.12-.23,.09-.21-.03,.79-7.96,4.4-22.26,5.97-30.1Z" style="fill:#37474f;"></path><path d="M581.65,345.23c2.59-14.9,5.7-29.73,9.14-44.46,3.46-14.8,7.3-29.51,11.55-44.11,4.24-14.6,13.81-57.01,15.38-64.05,1.55-6.96,2.34-14.49,.72-21.52-.41-1.79-.93-3.53-1.61-5.23-.05-.12,.11-.21,.18-.1,5.78,9.7,2.65,21.59-1.62,41.6-4.07,19.04-18.16,71.83-21.78,86.67-3.61,14.84-6.83,29.77-9.66,44.78-2.84,15.06-5.23,30.18-7.66,45.31-.32,1.97-.56,3.95-.82,5.92-.01,.11-.19,.11-.17,0,1.81-14.99,3.78-29.93,6.37-44.81Z" style="fill:#37474f;"></path></g></g></g></g><g><g><g><path d="M581.34,112.21c-5.1,11.58-29.74,38.3-39.38,40.08-6.97,1.29-32.71-15.31-40.11-21.26-7.14-5.74,12.44-26.01,16.86-22.93,6.25,4.35,20.36,17.36,23.13,17.48,1.94,.08,12.98-6.9,29.86-19.57,9.34-7.01,12.68-.72,9.64,6.2Z" style="fill:#eb9481;"></path><g><path d="M487.93,121.51c3.89,4.58,15.52,10.85,18.9,11.28,3.39,.43,14.69-18.98,13.37-22.23-1.32-3.25-15.61-17.67-21.64-18.84-6.02-1.17-14.67,25.03-10.64,29.78Z" style="fill:#eb9481;"></path><path d="M518.21,107.68s-2.58-7.39-2.55-14.28c.03-5.79,.72-14.4-2.4-14.53-6.4-.27-8.12,21.18-8.12,21.18,0,0,.76,9.59,7.07,10.41,3.96,.52,5.99-2.79,5.99-2.79Z" style="fill:#eb9481;"></path><g><path d="M507.48,95.39c.51,3.15-3.49,1.94-3.49,1.94,0,0,5.34,3.12,4.61,6.56-.71,3.32-5.49,1.7-5.83,1.58,.28,.17,5.11,3.16,4.02,6.55-1.14,3.52-5.65,1.07-5.94,.91,.22,.24,3.01,3.48,1.6,5.86-2.43,4.1-9.81-3.99-13.67-4,0,0-.77,6.53-.83,6.72,0,0-7.18-7.55-6.87-12.75,.16-2.74,2.75-3.13,2.75-3.13,0,0-2.58-2.18-1.81-4.87,.4-1.38,2.97-1.97,2.97-1.97,0,0-2-1.83-1.16-4.18,.66-1.88,3.14-2.18,3.14-2.18,0,0-1.1-2.65,.2-4.35,2.62-3.44,19.23,.57,20.33,7.3Z" style="fill:#eb9481;"></path><g><path d="M487.33,92.32c-.06,0-.06-.09,0-.09,5.79-.02,12.15,1.74,16.87,5.14,.15,.11,.04,.41-.15,.32-5.54-2.57-10.66-4.42-16.72-5.37Z" style="fill:#263238;"></path><path d="M484.9,98.74c-.07,0-.05-.12,.02-.12,5.96,.01,13.07,2.19,18.06,6.75,.17,.16,.17,.47-.04,.3-3.54-2.78-12.57-6.1-18.04-6.93Z" style="fill:#263238;"></path><path d="M501.07,113.37c-4.95-4.19-10.74-6.37-17.01-7.75-.08-.02-.05-.13,.02-.14,3.25-.16,7.16,1.14,10.11,2.41,2.83,1.21,5.14,2.88,7.02,5.31,.07,.09-.04,.26-.15,.17Z" style="fill:#263238;"></path></g><path d="M504.09,97.29c.19,.13-.21,.26-.03,.4,.76,.59,5.06,4.52,4.17,6.4-.71,1.5-3.23,1.59-4.21,1.24l-2.46-.87,2.01,1.68c.88,.73,1.7,1.63,2.29,2.6,.59,.97,.92,2.09,.6,3.07-.31,1.03-1.13,1.7-2.18,1.67-1.05,.01-2.2-.43-3.16-.98l-2.68-1.54,2.02,2.32c.55,.63,1.05,1.37,1.43,2.13,.37,.76,.61,1.59,.5,2.34-.11,.73-.62,1.42-1.31,1.61-.72,.21-1.6,.02-2.42-.24-1.67-.55-3.24-1.48-4.84-2.31-.8-.42-1.6-.85-2.43-1.24-.82-.37-1.69-.77-2.61-.77,.91,.09,1.7,.57,2.49,.99,.78,.45,1.55,.93,2.31,1.41,1.53,.97,3.08,1.93,4.82,2.62,.87,.31,1.83,.62,2.9,.38,1.1-.26,1.86-1.26,2.02-2.3,.17-1.06-.14-2.05-.54-2.91-.42-.87-.92-1.65-1.55-2.4l-.66,.78c1.13,.66,2.32,1.17,3.72,1.2,.69,.01,1.45-.2,2.03-.68,.58-.48,.94-1.11,1.15-1.78,.41-1.4-.09-2.81-.76-3.88-.7-1.1-1.56-2.01-2.56-2.82l-.45,.8c1.26,.4,4.08,.61,5.48-1.58,1.4-3.13-4.04-6.74-5.08-7.33Z" style="fill:#263238;"></path><path d="M503.99,97.33c.69,.05,1.37,.04,1.95-.11,.58-.14,.99-.51,1.13-.98,.15-.47,.02-1.1-.18-1.7-.21-.6-.47-1.23-.76-1.87,.56,.42,1.04,.95,1.39,1.58,.34,.62,.62,1.39,.39,2.25-.14,.42-.39,.78-.74,1.03-.35,.24-.76,.36-1.14,.38-.77,.05-1.47-.2-2.06-.58Z" style="fill:#263238;"></path></g></g></g><g><path d="M519.27,108.27l-14.19,34.09s28.37,12.7,36.87,10.88c8.5-1.82,31.27-24.96,39.58-39.36,5.06-8.76,.09-15.14-10.86-7.78-11.25,7.57-27.04,18.03-28.22,18.37-1.17,.34-23.18-16.22-23.18-16.22Z" style="fill:#455a64;"></path><path d="M519.82,129.21c.89-2.57,4.38-12.86,5.05-15.49,.01-.04-.05-.07-.07-.03-1.13,2.38-4.87,12.44-5.77,15.01-1.79,5.12-3.69,10.24-4.91,15.54-.02,.09,.12,.17,.16,.07,2.18-4.9,3.78-10.04,5.54-15.1Z" style="fill:#263238;"></path><path d="M581.53,113.89c-6.74,11.67-22.97,29.08-33.4,36.23l29.18-47.06h.01c6.07-1.2,8.08,4.11,4.21,10.83Z" style="opacity: .1;"></path></g></g><path d="M558.31,177.69l66.52,4.1c-2.21-18.67-20.18-61.34-30.52-75.2-5.84-7.84-19.84-9.1-23.58,1.92-4.85,14.29-13.41,68.31-12.43,69.18Z" style="fill:#455a64;"></path><g><path d="M599.61,112.78c11.25,13.69,21.98,40.31,20.03,48.3-2.98,12.21-57.1,10.91-66.2,9.61-3.93-.56,1.61-26.42,5.85-26.12,6.99,.49,35.62-1.94,36.13-1.94,0,0-4.17-14.87-6.86-28.98-2.38-12.52,3.1-10.56,11.05-.88Z" style="fill:#eb9481;"></path><g><path d="M600.88,112.14c11.25,13.69,23.92,38.35,19.96,50.79-3.14,9.84-49.6,14.92-58.62,15.66l-2.41-35.27c6.99,.49,35.08-.68,35.6-.67,0,0-4.38-12.9-7.65-26.89-4.44-19.04,5.16-13.29,13.12-3.61Z" style="fill:#455a64;"></path><path d="M595.14,142.38c4.33,1.17,8.44,3.37,11.68,6.48-3.35-1.98-8.21-4.62-11.68-6.48h0Z" style="fill:#263238;"></path><path d="M619.48,164.66c-3.86,3.53-8.92,4.71-13.84,6.04-5.67,1.53-11.42,2.82-17.18,3.93-1.62,.31-3.25,.62-4.87,.91-1.68,.3-15.48,2.4-17.18,2.54-.11,0-.09,.18,.03,.16,1.57-.28,8.85-.43,30.19-4.4,2.97-.55,5.89-1.35,8.82-2.12,2.65-.7,5.33-1.4,7.89-2.38,2.44-.94,4.94-2.24,6.4-4.51,.1-.15-.12-.28-.24-.17Z" style="fill:#263238;"></path><path d="M594.04,137.29c-.57-1.84-1.13-3.67-1.67-5.52-.54-1.84-1.09-3.69-1.68-5.51-.58-1.82-.96-3.73-1.64-5.52-.02-.05-.11-.05-.1,.02,.2,1.43,.6,2.82,.96,4.22-.31-.72-.63-1.43-1.02-2.1-.03-.05-.1-.01-.09,.04,.36,1.05,.87,2.04,1.35,3.04,.01,.06,.03,.13,.05,.19,.42,1.92,.93,3.82,1.47,5.71,.53,1.85,1.08,3.69,1.65,5.52,.49,1.59,.93,3.33,1.67,4.85-2.18-.11-4.4,.05-6.58,.09-2.31,.04-4.61,.11-6.92,.17-4.57,.12-9.14,.23-13.7,.4-2.6,.1-5.21,.19-7.81,.37-.12,0-.12,.19,0,.19,4.61,.19,9.23,.12,13.84,.03,4.57-.09,9.14-.16,13.7-.36,2.54-.12,8.02-.31,8-.48,0-.04-.02-.07-.02-.11,.03-.08-.97-3.62-1.48-5.24Z" style="fill:#263238;"></path><path d="M569.21,161.13c-.22-2.59-1.16-12.95-1.59-15.5,0-.04-.07-.04-.08,0-.06,2.52,.57,12.78,.79,15.37,.43,5.18,.75,10.39,1.74,15.49,.02,.09,.17,.1,.17,0,0-5.14-.59-10.25-1.02-15.36Z" style="fill:#263238;"></path></g><g><rect x="540.15" y="158.25" width="63.05" height="2.83" style="fill:#c7c7c7;"></rect><polygon points="576.05 158.25 578.21 161.08 526.49 161.08 526.49 158.25 576.05 158.25" style="fill:#a6a6a6;"></polygon><g><polygon points="573.34 161.08 511.89 161.08 499.41 119.34 560.86 119.34 573.34 161.08" style="fill:#a6a6a6;"></polygon><polygon points="571.21 161.08 509.76 161.08 497.29 119.34 558.73 119.34 571.21 161.08" style="fill:#c7c7c7;"></polygon><path d="M536.81,140.21c.4,2.07-.95,3.74-3.02,3.74s-4.07-1.67-4.47-3.74c-.4-2.07,.95-3.74,3.02-3.74s4.06,1.67,4.47,3.74Z" style="fill:#fff;"></path></g></g><g><path d="M567.42,163.67c-4.09,2.06-9.12,7.13-12.49,7.61-3.04,.44-4.18-2.07-4.18-2.07,0,0-1.6,3.41-4.74,3.35-1.61-.03-2.97-2.64-2.97-2.64,0,0-1.41,2.68-4.19,2.45-2.22-.18-3.25-2.77-3.25-2.77,0,0-2.55,1.94-4.74,1.03-4.46-1.85-4.9-20.94,2.06-24.05,3.25-1.45,3.1,3.22,3.1,3.22,0,0,1.83-6.66,5.76-6.86,3.93-.19,3.38,5.86,3.38,5.86,0,0,1.83-6.44,5.93-6.23,4.27,.22,2.67,6.18,2.67,6.18,0,0,2.78-4.31,5.88-3.43,5.12,1.45-1.03,11.23,.07,15.41l6.82,.2,.9,2.73Z" style="fill:#eb9481;"></path><path d="M561.5,167.22c4.05-1.61,5.87,1.29,10.06,.87,4.65-.47,3.31-5.95-4.8-7.16l-7.06-.21,1.8,6.49Z" style="fill:#eb9481;"></path><g><path d="M535.37,169.22c0,.06-.08,.09-.1,.02-1.68-6.24-1.6-13.62,.72-19.69,.08-.2,.43-.16,.39,.07-1.19,6.72-1.72,12.78-1.01,19.6Z" style="fill:#263238;"></path><path d="M543,170.01c0,.07-.11,.09-.14,.01-1.69-6.44-1.38-14.75,2.12-21.43,.12-.23,.46-.32,.34-.04-1.99,4.62-2.99,15.33-2.32,21.46Z" style="fill:#263238;"></path><path d="M554.16,148.35c-3.11,6.54-3.8,13.42-3.5,20.59,0,.09-.13,.09-.15,.01-1.1-3.47-.82-8.06-.29-11.61,.5-3.4,1.64-6.37,3.72-9.1,.08-.11,.3-.03,.23,.11Z" style="fill:#263238;"></path></g><path d="M555.68,171.11c2.89-.9,4.81-3.37,7.53-4.57,2.32-.09,4.47,1.12,6.74,1.31,1.22,.14,2.57,.12,3.37-.68,.84-.85,.84-2.18,0-3.07-1.68-1.83-4.34-2.81-6.8-3.17,2.62,.04,5.33,.89,7.27,2.76,1.75,1.76,.51,4.69-1.89,4.91-2.99,.4-5.73-1.35-8.59-1.59-2.6,1.13-4.74,3.43-7.63,4.1h0Z" style="fill:#263238;"></path></g></g><g><g><g><path d="M576.52,115.14c3.62,.3,8.82-5.95,10.54-10.64,.12-.32-.81-3.38-1.76-7.16-.57-2.29-1.15-4.86-1.51-7.24l-14.38,5.88s2.22,4.77,2.82,8.92c.05,.35,.06,.68,.04,.99,0,.05,0,.1,0,.16-.02,1.9,.74,8.79,4.24,9.08Z" style="fill:#eb9481;"></path><path d="M569.41,95.98s2.22,4.76,2.82,8.93c.04,.34,.07,.67,.04,.99,0,.05,0,.1,0,.16,.48,0,.99-.04,1.55-.15,8.65-1.51,9.48-12.62,9.54-15.63l-13.96,5.7Z" style="fill:#263238;"></path></g><g><path d="M585.53,73.18c1.57,5.37-1.42,20.8-5.26,24.2-5.57,4.94-14.61,5.32-18.78-1.36-4.05-6.47,.21-26.51,4.5-29.6,6.31-4.55,17.22-1.17,19.55,6.76Z" style="fill:#eb9481;"></path><g><path d="M586.34,87.9c-4.27-.23-5.85-5.55-4.35-9.49,0,0-11.43,.09-10.85-9.01,0,0-2.7,3.64-7.82,3.14l-1.67,3.17c-1.11-.48-1.93-3.91,1.21-6.13,0,0,.76-4.48,4.41-6.77,3.66-2.29,6.73-.1,6.73-.1,0,0,2.91-1.87,6.99-.83,4.08,1.05,5.31,5.04,5.31,5.04,0,0,5.44,1.76,5.9,5.84,.46,4.08-1.92,6.48-1.92,6.48,0,0,1.2,1.73,.07,5.02-.73,2.12-2.74,3.7-4.02,3.63Z" style="fill:#263238;"></path><path d="M571.49,68.64c-.17,.73-.29,1.46-.3,2.2-.05,.74,.01,1.47,.14,2.18,.28,1.42,1.03,2.73,2.2,3.57,1.12,.93,2.6,1.24,4.02,1.56,.73,.07,1.46,.19,2.2,.22,.74,.02,1.48,.02,2.23,.05-.74,.09-1.49,.14-2.24,.21-.75,.02-1.5-.05-2.26-.08-1.48-.25-3.03-.57-4.28-1.54-1.24-.94-2.07-2.4-2.28-3.92-.2-1.52,.01-3.06,.55-4.45Z" style="fill:#263238;"></path><path d="M586.31,66.94c1.41,.19,2.79,.67,4.03,1.42,1.24,.74,2.3,1.89,2.78,3.32,.21,.72,.29,1.45,.27,2.18,0,.73-.13,1.47-.38,2.15-.48,1.38-1.47,2.58-2.73,3.24,1.14-.84,1.97-2.05,2.35-3.37,.37-1.31,.4-2.77,0-4.05-.2-.64-.54-1.24-.97-1.77-.45-.51-.96-.98-1.53-1.37-1.14-.79-2.45-1.36-3.81-1.75Z" style="fill:#263238;"></path><path d="M574.01,62.73c-1.03-.52-2.12-.89-3.23-1.05-1.11-.16-2.24-.09-3.26,.31-1.02,.39-1.9,1.11-2.63,1.96-.71,.87-1.29,1.86-1.73,2.92,.24-1.13,.73-2.21,1.41-3.17,.68-.96,1.63-1.76,2.76-2.2,1.13-.42,2.37-.48,3.52-.21,1.15,.26,2.24,.74,3.15,1.45Z" style="fill:#263238;"></path><path d="M565.04,73.14c1.31-.3,2.55-.73,3.64-1.41,.56-.32,1.04-.75,1.49-1.21,.47-.46,.79-1.02,1.16-1.59-.16,.65-.42,1.3-.85,1.85-.41,.56-.93,1.04-1.52,1.4-.59,.36-1.23,.63-1.9,.79-.66,.16-1.35,.24-2.02,.18Z" style="fill:#263238;"></path></g><g><g><path d="M571.17,82.63s.07,.07,.06,.11c-.25,1.02-.37,2.23,.48,2.77,.03,.02,.01,.07-.02,.06-1.1-.4-.93-2.01-.52-2.94Z" style="fill:#263238;"></path><path d="M572.32,81.75c1.68,.23,1.09,3.57-.46,3.36-1.53-.21-.95-3.55,.46-3.36Z" style="fill:#263238;"></path></g><g><path d="M565.25,81.58s-.09,.03-.1,.08c-.15,1.04-.49,2.21-1.49,2.39-.03,0-.04,.06,0,.06,1.17,.04,1.61-1.51,1.59-2.52Z" style="fill:#263238;"></path><path d="M564.51,80.34c-1.64-.42-2.36,2.9-.84,3.29,1.5,.38,2.21-2.94,.84-3.29Z" style="fill:#263238;"></path></g><path d="M574.42,79.85c-.45-.15-.85-.36-1.28-.55-.49-.22-.9-.34-1.2-.81-.16-.25-.06-.68,.18-.86,.54-.41,1.2-.3,1.8-.06,.65,.26,1.08,.62,1.42,1.23,.33,.59-.33,1.25-.93,1.05Z" style="fill:#263238;"></path><path d="M563.35,79.11c.48,.02,.92-.04,1.39-.07,.53-.03,.96,0,1.4-.35,.24-.18,.29-.62,.13-.87-.36-.58-1.03-.7-1.67-.68-.7,.02-1.23,.21-1.76,.66-.51,.44-.12,1.28,.5,1.31Z" style="fill:#263238;"></path><path d="M571.17,91.83c-.23,.26-.46,.62-.84,.68-.36,.06-.8-.08-1.15-.18-.03-.01-.06,.03-.04,.06,.3,.38,.89,.59,1.37,.47,.47-.12,.67-.54,.76-.99,.01-.06-.07-.08-.1-.04Z" style="fill:#263238;"></path><path d="M570.23,88.66c-.7,.83-1.62,1.22-2.57,1.29-.42,.03-.86,0-1.28-.1-.08-.01-.38-.09-.46-.12-.12-.03-.17-.14-.18-.26h0s.34-2.23,.34-2.23c-.31,.11-1.89,.6-1.82,.18,.64-3.45,1.35-7.28,2.71-10.58,.04-.11,.21-.06,.19,.05-.48,3.34-1.55,6.57-2.09,9.91,.5-.12,1.32-.36,1.74-.3,.06,.02-.49,2.71-.49,2.74,1.33,.34,2.4,.06,3.82-.68,.08-.05,.16,.03,.09,.11Z" style="fill:#263238;"></path></g><g><path d="M561.53,86.9c-1.87-.31-3.02-2.86-2.55-5.69,.47-2.83,2.37-4.88,4.24-4.57,1.87,.31,3.01,2.86,2.55,5.69-.46,2.83-2.36,4.88-4.24,4.57Zm1.57-9.57c-1.49-.25-3.03,1.55-3.44,4-.4,2.45,.48,4.64,1.98,4.89,1.49,.25,3.03-1.55,3.44-4,.4-2.45-.48-4.64-1.97-4.89Z" style="fill:#FFC727;"></path><path d="M571.45,88.79c-2.64-.43-4.41-3.09-3.95-5.92,.46-2.83,2.99-4.78,5.63-4.34,2.64,.43,4.41,3.09,3.95,5.92-.46,2.83-2.99,4.78-5.63,4.34Zm1.57-9.57c-2.26-.37-4.43,1.32-4.83,3.77-.4,2.45,1.11,4.74,3.37,5.12,2.26,.37,4.43-1.32,4.83-3.77,.4-2.45-1.11-4.74-3.37-5.12Z" style="fill:#FFC727;"></path><path d="M567.85,82.38c-1.57-1.07-2.46-.46-2.46-.45l-.2-.52s1.1-.81,2.91,.43l-.24,.55Z" style="fill:#FFC727;"></path><path d="M576.65,83.77l.05-.61c.4,.03,9.74,.7,10.72,.9,1.04,.2,3.06,2.19,3.29,2.41l-.42,.44c-.57-.57-2.19-2.04-2.94-2.24h-.04c-.76-.16-7.29-.66-10.65-.9Z" style="fill:#FFC727;"></path></g><g><path d="M581.46,86.67s3.65-4.89,5.88-3.57c2.23,1.32-.62,8.48-3.32,9.39-2.69,.91-3.58-1.57-3.58-1.57l1.02-4.25Z" style="fill:#eb9481;"></path><path d="M586.47,85.13s.05,.06,.01,.07c-1.89,.7-2.93,2.4-3.67,4.17,.58-.67,1.34-1.03,2.25-.34,.05,.04,0,.11-.05,.1-.76-.19-1.32-.07-1.85,.52-.38,.42-.65,.96-.92,1.46-.09,.16-.39,.07-.32-.12l.02-.04c.03-2.38,1.98-5.65,4.54-5.81Z" style="fill:#263238;"></path></g></g></g><path d="M571.41,110.69s.05-.03,.05,0c-.19,2.96-.43,9.82,4.21,9.42,1.87-.16,3.58-1.33,5-2.47,1.46-1.17,2.77-2.53,3.95-3.99,1.31-1.62,2.66-3.31,3.68-5.12,.04-.08,.16,0,.11,.08-1.1,1.81-2.03,3.69-3.31,5.39-1.23,1.64-2.63,3.16-4.26,4.41-1.53,1.17-3.34,2.33-5.33,2.41-1.88,.08-3.25-1.09-3.8-2.83-.72-2.29-.68-4.96-.31-7.31Z" style="fill:#263238;"></path><g><path d="M572.43,105.38l3.59,8.76,10.83-11.19,3.12,3.54s-10.55,17.73-10.62,16.93l-3.67-7.54-5.19,5.3,.33-13.22,1.61-2.58Z" style="fill:#ebebeb;"></path><path d="M570.28,114.63c.13-2.18,.2-4.38,.42-6.55,0-.08,.13-.11,.15-.02,.45,2.1-.08,10.44-.06,12.44l.02-.02c.22-.23,4.81-4.67,4.86-4.6,.79,1.2,3.49,6.69,3.67,7.19,1.67-2.82,8.75-13.92,10.73-16.59,.06-.08,.18-.01,.13,.07-1.47,2.97-10.62,17.62-10.75,17.59-.09,.07-3.44-6.7-3.84-7.97-.78,.97-5.41,5.97-5.43,5.65-.12-2.19-.04-4.99,.09-7.18Z" style="fill:#263238;"></path></g></g></g></g></g><g id="freepik--character-1--inject-432"><g><g><g><g><path d="M267.23,371.88c-2.53,.06-68.2-20.24-70.21-22.59-.22-.26,.81-9.98,2.5-17.7,.08-.37-23.32-31.03-23.32-31.03l42.3-16.45,20.24,41.93,5.27,10.9s21.9,22.02,23.84,24.84c1.92,2.82,1.9,10.04-.63,10.1Z" style="fill:#d3766a;"></path><path d="M267.24,371.88c-2.53,.05-68.2-20.24-70.21-22.6-.22-.26,.81-9.98,2.5-17.7,0-.12-1.5-2.17-3.72-5.16l44.29,2.39,3.92,8.13s21.91,22.02,23.85,24.84c1.91,2.82,1.9,10.04-.63,10.1Z" style="fill:#ebebeb;"></path><g><path d="M269.08,372.25c-2.64,.07-71.19-20.86-73.3-23.31-.8-.92,.42-5.17,3.75-17.36l44.94,5.41s23.2,21.78,25.22,24.72c2.01,2.93,2.03,10.47-.61,10.54Z" style="fill:#FFC727;"></path><g><g><path d="M268.94,369.21c-11.41-3.79-57.76-18-69.33-20.88-.09-.02-.11,.04-.02,.07,11.22,4,57.69,17.84,69.29,21,.24,.07,.3-.11,.06-.19Z" style="fill:#263238;"></path><path d="M266.04,357.9c-2.69-.94-5.75-.46-7.73,.71-1.9,1.12-3.79,2.94-4.44,5.35-.02,.07,.11,.11,.14,.04,2.03-4.3,7.32-7,11.99-5.96,.09,.02,.14-.11,.04-.14Z" style="fill:#263238;"></path><path d="M249.11,341.53c-4.58-1.47-10.41-1.47-14.41,1.42-.16,.11,0,.33,.16,.3,4.81-.87,9.25-1.26,14.16-1.13,.35,0,.42-.49,.09-.59Z" style="fill:#263238;"></path><path d="M252.24,344c-4.58-1.47-10.41-1.47-14.41,1.42-.16,.11,0,.33,.16,.3,4.81-.87,9.25-1.26,14.16-1.13,.35,0,.42-.49,.09-.59Z" style="fill:#263238;"></path><path d="M255.37,346.47c-4.58-1.47-10.41-1.47-14.41,1.42-.16,.11,0,.33,.16,.3,4.81-.87,9.25-1.26,14.16-1.13,.35,0,.42-.49,.09-.59Z" style="fill:#263238;"></path><path d="M258.5,348.94c-4.58-1.47-10.41-1.47-14.41,1.42-.16,.11,0,.33,.16,.3,4.81-.87,9.25-1.26,14.16-1.13,.35,0,.42-.49,.09-.59Z" style="fill:#263238;"></path></g><path d="M257.83,330.78c-1.74-2.64-5.25-1.65-7.29-.08-3.32,2.54-6.3,6.6-7.77,10.49-.04,.1,.03,.16,.1,.18,0,.36,.3,.76,.71,.62,3.97-1.27,8.36-2.13,11.82-4.57,2.02-1.43,4.07-4.13,2.42-6.63Zm-8.63,8.05c-1.94,.67-3.89,1.24-5.8,1.98,1.52-2.04,2.95-4.14,4.67-6.02,.82-.9,1.69-1.81,2.63-2.59,1.46-1.21,7.15-3.68,6.08,1.46-.59,2.84-5.27,4.37-7.58,5.17Z" style="fill:#263238;"></path><path d="M230.82,339.39c3.82,1.84,8.3,1.96,12.42,2.55,.43,.06,.66-.38,.6-.73,.07-.03,.12-.1,.07-.19-2.09-3.59-5.71-7.1-9.4-9.05-2.28-1.21-5.9-1.6-7.18,1.29-1.21,2.74,1.26,5.06,3.49,6.14Zm-1.98-3.47c-1.91-4.9,4.11-3.41,5.75-2.45,1.06,.61,2.06,1.37,3.02,2.12,2.01,1.57,3.77,3.41,5.61,5.17-2.01-.41-4.03-.65-6.05-.99-2.41-.41-7.28-1.14-8.33-3.84Z" style="fill:#263238;"></path></g><path d="M207.63,338.84c4.59,1.13,2.83,8.26-1.76,7.13-4.59-1.13-2.83-8.26,1.76-7.13Z" style="fill:#fff;"></path></g></g><g><path d="M238.95,321.82l-46.63,6.89s-23.51-40.04-33.79-51.53l-.02-.02c-.67-.76-1.3-1.37-1.88-1.84h-.02c-.65-.38-1.79-.66-3.37-.85h-.02c-13.79-1.68-60.2,2.83-92.27,.76l14.98-20.02,6.64-8.88c36.13-4.12,80.47-18.89,100.47-8.86,21.73,10.9,55.91,84.35,55.91,84.35Z" style="fill:#263238;"></path><g><path d="M233.11,313.9c-7.93,1.02-5.67,.62-13.58,1.73-3.87,.54-23.35,3.21-26.88,4.32-.08,.02-.06,.15,.02,.15,3.7,.03,23.11-3.06,26.98-3.67,7.89-1.25,5.61-.97,13.49-2.3,.15-.02,.12-.24-.03-.22Z" style="fill:#37474f;"></path><path d="M192.56,319.29c-5.28-8.82-27.37-46.2-32.15-47.92-4.35-1.56-91.45,.25-92.74,.26-.09,0-.1,.14,0,.14,10.31-.13,89.92-.42,92.19,.48,4.72,1.87,31.52,46.22,32.22,47.27,.19,.28,.66,.07,.48-.24Z" style="fill:#37474f;"></path></g></g></g><g><path d="M36.6,257.02s-2.75,26.26,10.57,39.33c15.95,15.63,121.2,11.68,137.51,6.41,16.31-5.27,16.82-31.59-1.01-37.69-16.96-5.8-92.17-9.13-93.95-9.85-1.78-.71-6.99-9.03-6.99-9.03l-46.13,10.83Z" style="fill:#263238;"></path><g><path d="M58.87,256.28c-.02-.13-.22-.09-.22,.03,.01,3.32-1.21,6.81-3.39,9.32-2.5,2.88-6.18,4.5-9.52,6.19-.32,.16-.08,.66,.25,.56,2.03-.61,4.04-1.5,5.89-2.54,1.69-.95,3.25-2.14,4.43-3.69,2.18-2.85,3.14-6.33,2.55-9.88Z" style="fill:#37474f;"></path><path d="M89,253.58c-.74-.95-1.56-1.86-2.33-2.78-1.84-2.19-3.68-4.38-5.61-6.49-.18-.2-.54,.08-.37,.3,1.3,1.7,2.67,3.34,4.02,4.99,.69,.85,1.39,1.69,2.09,2.53,.65,.79,1.46,1.57,1.95,2.47,.5,.94-.16,1.74-1.13,1.85-.87,.09-1.68-.35-2.35-.86-1.52-1.16-2.72-2.83-3.98-4.25-.77-.87-1.55-1.74-2.33-2.6-.84-.91-1.73-1.78-2.56-2.69-.05-.06-.16,.02-.11,.09,.73,1,1.4,2.04,2.13,3.04,.73,1,1.47,1.99,2.22,2.97,.71,.93,1.45,1.84,2.21,2.73,.64,.76,1.38,1.5,2.24,2,1.4,.82,3.82,1,4.56-.8,.37-.89-.09-1.79-.64-2.49Z" style="fill:#37474f;"></path><path d="M182.45,302.86c-5.62,.1-11.23,.43-16.84,.55-5.57,.12-11.14,.15-16.71,.1-11.19-.11-22.38-.53-33.54-1.3-11.28-.78-23.45-1.9-34.66-3.46-5.36-.74-10.8-1.36-16.1-2.5-4.78-1.03-9.12-3.01-12.7-6.49-7.26-7.04-10.08-17.39-11.24-27.28-.16-1.33-.28-2.66-.39-3.99,0-.09-.14-.09-.14,0,.66,10.14,2.23,20.71,8.61,28.86,2.76,3.53,6.27,6.42,10.39,8.07,5.02,2.01,10.59,2.48,15.89,3.2,11.25,1.53,23.47,2.7,34.79,3.58,11.39,.88,22.8,1.43,34.22,1.6,11.42,.17,22.85,0,34.26-.55,1.39-.07,2.78-.15,4.17-.27,.08,0,.08-.13,0-.13Z" style="fill:#37474f;"></path><path d="M197.44,278.31c-1.07-4.45-3.75-8.18-7.52-10.76-4.04-2.76-8.88-4.02-13.66-4.71-5.41-.79-10.9-1.19-16.34-1.72-11.17-1.09-22.35-2.09-33.54-3.01-11.18-.92-35.26-2.79-36.62-2.84-.12,0-.14,.2-.02,.21,10.79,1.2,20.61,2.23,31.43,3.21,10.87,.99,21.73,2.02,32.59,3.1,5.41,.53,10.82,1.08,16.23,1.63,5.01,.52,10.17,1.03,14.87,2.96,4.03,1.66,7.66,4.33,9.72,8.25,1.99,3.79,2.41,8.32,1.61,12.49-.74,3.87-2.56,7.64-5.22,10.56-2.62,2.87-5.94,5.08-9.78,5.9-.99,.21-2.18,.37-3.09,.55-.07,.01-.14,.16-.07,.16,8.08,.2,15.56-5.7,18.48-13.08,1.61-4.07,1.97-8.65,.94-12.9Z" style="fill:#37474f;"></path></g></g></g><g><g><path d="M88.47,148.61c6.62,8.47,2.38,18.03,4.63,24.14,1.38,3.73,7.33,8.58,7.88,12.67,.91,6.72-4.87,7.91-4.37,11.56,.71,5.18,7.27,6.11,6.84,14.26-.43,8.15-10.83,14.82-31.97,12.94-21.13-1.88-30.97-11.74-30.36-18.6,.61-6.87,7.94-7.72,9.42-12.64,.94-3.15-2.85-6.23-1.88-12.17,.97-5.94,7.11-6.7,8.94-11.55,1.84-4.87,1.63-17.55,10.25-22.29,8.61-4.73,17.35-2.49,20.62,1.69Z" style="fill:#263238;"></path><path d="M87.51,148.6c1.96,2.06,3.28,4.48,4.08,7.2,.83,2.83,1.16,5.78,1.32,8.72,.09,1.74,.14,3.51,.63,5.19,.42,1.46,1.19,2.77,2.09,3.98,1.83,2.47,4.19,4.55,5.74,7.23,1.47,2.54,2.37,5.71,1.02,8.49-.73,1.51-2.05,2.6-3,3.96-.9,1.29-1.51,2.99-.53,4.41,.83,1.21,2.24,1.97,3.25,3.03,.99,1.04,1.82,2.23,2.43,3.53,1.24,2.65,1.41,5.61,.3,8.33-2.51,6.19-9.28,8.63-15.32,9.81-.84,.16-1.68,.32-2.53,.47-.13,.02-.2-.17-.06-.2,6.09-1.38,13.17-3.01,16.58-8.83,1.53-2.62,1.82-5.66,.71-8.49-.53-1.36-1.35-2.62-2.33-3.7-.96-1.06-2.15-1.83-3.14-2.85-1-1.03-1.43-2.34-1.07-3.75,.37-1.5,1.38-2.67,2.37-3.8,1.05-1.2,1.98-2.44,2.19-4.07,.2-1.52-.21-3.08-.82-4.46-1.24-2.81-3.49-4.95-5.43-7.28-1.95-2.35-3.37-4.89-3.63-7.97-.13-1.56-.09-3.13-.16-4.7-.07-1.45-.19-2.9-.41-4.33-.44-2.84-1.31-5.68-2.92-8.09-.42-.63-.89-1.21-1.43-1.75-.06-.06,.03-.16,.09-.1Z" style="fill:#263238;"></path><path d="M41.21,200.46c.48-1.04,1.17-1.98,2.04-2.72,.9-.77,1.93-1.36,2.89-2.04,.91-.64,1.81-1.39,2.25-2.45,.53-1.27,.23-2.65-.16-3.91-.41-1.32-.91-2.6-1.13-3.98-.21-1.33-.2-2.68-.01-4.01,.4-2.78,1.74-5.23,3.63-7.27,.94-1.01,1.95-1.95,2.9-2.96,1.04-1.11,1.93-2.3,2.64-3.65,1.56-2.93,2.42-6.17,3.82-9.17,1.43-3.08,3.23-5.98,5.25-8.7,.05-.07,.15,.02,.1,.09-1.83,2.45-3.36,5.1-4.64,7.88-1.21,2.63-2.03,5.4-3.09,8.1-.51,1.32-1.09,2.62-1.86,3.82-.72,1.12-1.59,2.12-2.49,3.09-1.86,2-3.75,3.95-4.68,6.58-.92,2.6-1.01,5.37-.22,8.01,.67,2.27,1.74,4.85,.3,7.06-1.21,1.88-3.4,2.71-5.03,4.13-1.8,1.58-2.69,3.89-2.71,6.25-.05,6.01,5.17,10.05,10.55,11.43,.17,.04,.11,.3-.06,.26-4.71-1.01-9.43-4.12-10.75-8.98-.61-2.26-.49-4.74,.49-6.88Z" style="fill:#263238;"></path></g><g><path d="M73.64,197.21c3.79,11.97,21.98,43.57,30.85,48.48,6.56,3.63,26.42,8.62,29.04,8.1,3.77-.75,13.26-25.64,9.86-26.05-16.33-1.94-26.66-4.54-30.46-6.25-3.2-1.44-16.2-14.6-33.11-30.72-5.89-5.61-8.46-.73-6.19,6.43Z" style="fill:#d3766a;"></path><g><g><path d="M82.53,223.4l12.23-20.92s-8.74-8.48-14.24-12.5c-7.28-5.31-10.96-3.85-8.52,6.92,1.63,7.21,10.53,26.5,10.53,26.5Z" style="fill:#FFC727;"></path><path d="M84.83,193.43s-.06,0-.1,0c-.78-.04-1.41-.62-1.53-1.36,.53,.44,1.08,.89,1.63,1.36Zm-1.25,25.14c-.9-.04-1.66,.65-1.7,1.55-.04,.9,.65,1.66,1.55,1.7h.02l1.44-2.48c-.27-.44-.75-.75-1.31-.77Zm-8.35-14.48c-.3-.01-.58,.05-.84,.2,.38,.98,.76,1.98,1.17,2.99,.67-.17,1.18-.76,1.21-1.49,.04-.9-.65-1.66-1.55-1.7Zm17.98,.83c-.9-.04-1.66,.65-1.7,1.55-.02,.38,.1,.73,.31,1.02l1.5-2.55s-.07-.01-.1-.01Z" style="fill:#fff;"></path></g><path d="M81.78,220.12c1.57-3.17,3.18-6.31,4.93-9.38,.87-1.53,1.77-3.05,2.69-4.55,.92-1.5,2-2.92,2.89-4.43,.05-.08,.18,0,.13,.08-.97,1.46-1.76,3.07-2.65,4.59-.9,1.52-1.78,3.04-2.66,4.57-1.76,3.05-3.52,6.11-5.21,9.2-.05,.09-.17,0-.13-.08Z" style="fill:#263238;"></path><path d="M92.84,205.77l-10.31,17.63s-8.9-19.3-10.54-26.5c-.75-3.33-.92-5.77-.58-7.39l21.42,16.26Z" style="opacity: .1;"></path></g><g><path d="M133.53,253.8c.44,.28,6.75,4.05,10.72,5.61,2.96,1.16,11.59,4.29,13.19,1.15,1.1-2.14-3.76-4.57-7.15-6.37-1.79-.95-3.9-3.1-3.24-4.25,1.15-2,5.74,.54,8.72,2.66,5.76,4.1,13.28,11.22,17.29,8.47,1.51-1.04,.08-3.31-2.12-5.62,3.65,2.79,7.6,5.16,9.32,4.08,.99-.62,1.12-1.58,.71-2.73,1.16,.5,2.22,.52,3.03-.19,1.38-1.2,.95-3.2-.25-5.33,.45,0,.86-.19,1.21-.65,3.04-3.82-9.23-16.73-13.74-18.25-13.28-4.48-27.84-4.64-27.84-4.64-5.73,3.77-9.87,26.04-9.86,26.05Z" style="fill:#d3766a;"></path><g><path d="M154.67,242.98c3.15,.8,6.23,2.24,8.74,4.32,2.97,2.47,5.21,5.68,7.91,8.41,.07,.07-.05,.19-.12,.11-1.26-1.4-2.67-2.68-3.98-4.03-1.28-1.32-2.54-2.69-3.91-3.91-2.52-2.24-5.4-3.92-8.65-4.85-.03,0-.02-.06,.02-.05Z" style="fill:#263238;"></path><path d="M157.74,237.45c3.48,1.31,7.05,2.63,10.2,4.62,3.45,2.18,6.01,5.46,8.54,8.61,1.51,1.9,2.99,3.82,4.42,5.79,.06,.08-.05,.19-.12,.11-2.55-3.26-5.2-6.44-7.95-9.53-2.59-2.91-5.55-5.23-9.05-6.95-1.97-.97-4.01-1.78-6.05-2.59-.04-.02-.02-.08,.02-.06Z" style="fill:#263238;"></path><path d="M162.02,232.76c3.4,1.03,6.37,1.92,9.27,4.06,3.84,2.84,7.38,7.34,8.62,8.94,1.37,1.76,2.68,3.57,3.97,5.4,.05,.07-.08,.17-.13,.09-2.95-4.01-6.17-7.86-9.61-11.46-1.65-1.72-3.46-3.25-5.56-4.39-2.07-1.13-4.34-1.87-6.56-2.63-.01,0,0-.03,0-.02Z" style="fill:#263238;"></path></g></g></g><g><path d="M34.27,261.45c2.06,.77,62.21-13.68,62.21-13.68l-6.06-20.93s3.77-6.47,2.45-12.92c-1.76-8.62-16.88-23.34-18.08-24.22-4.82-3.53-9.49-3.68-13.71-1.68-17.58,8.33-26.8,73.44-26.8,73.44Z" style="fill:#FFC727;"></path><path d="M68.46,191.06c-.04,.9-.8,1.59-1.7,1.55-.9-.04-1.59-.8-1.55-1.7,.04-.9,.8-1.59,1.7-1.55,.9,.04,1.59,.8,1.55,1.7Zm-20.83,25.86c-.9-.04-1.66,.65-1.7,1.55s.65,1.66,1.55,1.7c.9,.04,1.66-.65,1.7-1.55s-.65-1.66-1.55-1.7Zm17.98,.83c-.9-.04-1.66,.65-1.7,1.55-.04,.9,.65,1.66,1.55,1.7,.9,.04,1.66-.65,1.7-1.55,.04-.9-.65-1.66-1.55-1.7Zm17.98,.83c-.9-.04-1.66,.65-1.7,1.55s.65,1.66,1.55,1.7c.9,.04,1.66-.65,1.7-1.55s-.65-1.66-1.55-1.7Zm-26.33-15.3c-.9-.04-1.66,.65-1.7,1.55-.04,.9,.65,1.66,1.55,1.7,.9,.04,1.66-.65,1.7-1.55,.04-.9-.65-1.66-1.55-1.7Zm17.98,.83c-.9-.04-1.66,.65-1.7,1.55-.04,.9,.65,1.66,1.55,1.7s1.66-.65,1.7-1.55c.04-.9-.65-1.66-1.55-1.7Zm-28.92,41.2c-.9-.04-1.66,.65-1.7,1.55-.04,.9,.65,1.66,1.55,1.7s1.66-.65,1.7-1.55c.04-.9-.65-1.66-1.55-1.7Zm17.98,.83c-.9-.04-1.66,.65-1.7,1.55-.04,.9,.65,1.66,1.55,1.7,.9,.04,1.66-.65,1.7-1.55,.04-.9-.65-1.66-1.55-1.7Zm17.98,.83c-.9-.04-1.66,.65-1.7,1.55-.04,.9,.65,1.66,1.55,1.7,.9,.04,1.66-.65,1.7-1.55,.04-.9-.65-1.66-1.55-1.7Zm-26.33-15.3c-.9-.04-1.66,.65-1.7,1.55-.04,.9,.65,1.66,1.55,1.7,.9,.04,1.66-.65,1.7-1.55,.04-.9-.65-1.66-1.55-1.7Zm17.98,.83c-.9-.04-1.66,.65-1.7,1.55-.04,.9,.65,1.66,1.55,1.7,.9,.04,1.66-.65,1.7-1.55,.04-.9-.65-1.66-1.55-1.7Zm18.37,.89c-.12-.04-.25-.06-.39-.07-.9-.04-1.66,.65-1.7,1.55-.04,.9,.65,1.66,1.55,1.7,.52,.02,.99-.19,1.29-.56l-.75-2.62Zm-55.64,25.84c-.9-.04-1.66,.65-1.7,1.55-.01,.25,.03,.48,.13,.68,.68-.07,1.74-.24,3.11-.48,0-.02,.01-.03,.01-.05,.04-.9-.65-1.66-1.55-1.7Z" style="fill:#fff;"></path><g><path d="M71.44,224.48c2.57-.32,5.18-.56,7.77-.5,1.29,.03,2.57,.12,3.86,.24,.64,.06,1.28,.1,1.92,.13,.66,.03,1.36,.05,2.01-.08,.06-.01,.08,.08,.02,.09-.62,.16-1.22,.32-1.87,.4-.61,.07-1.23,.08-1.85,.08-1.31-.02-2.62-.1-3.93-.13-2.64-.06-5.29-.13-7.93,0-.12,0-.14-.2-.02-.22Z" style="fill:#263238;"></path><path d="M65.72,228.16c2.02-.69,4.1-1.29,6.19-1.75,1.05-.23,2.1-.4,3.17-.54,.51-.07,1.02-.12,1.53-.18,.56-.06,1.13-.04,1.69-.1,.06,0,.08,.08,.02,.09-.53,.08-1.04,.24-1.56,.35-.52,.11-1.05,.21-1.57,.32-1.05,.22-2.09,.44-3.14,.65-2.1,.41-4.19,.84-6.28,1.33-.11,.03-.14-.14-.04-.17Z" style="fill:#263238;"></path></g></g><g><g><path d="M64.84,187.12c-.02,1.1,3.24,9.12,8.06,10.1,1.57,.32,3.68-8.17,3.68-8.17l.3-.59,4.18-8.28-9.9-10.47s-6.31,16.94-6.32,17.41Z" style="fill:#d3766a;"></path><path d="M81.06,180.18l-4.19,8.28c-2.26-1.57-6.94-5.67-7.86-12.96,1.08-2.94,1.99-5.38,2.12-5.74,.02-.03,.02-.05,.02-.05l1.27,1.25,8.63,9.22Z" style="fill:#263238;"></path></g><g><path d="M95.92,169.04c-2.18,16.13-12.08,16.65-15.56,16.17-3.16-.43-13.85-2.29-13.35-18.56,.5-16.27,8.68-20.35,15.95-19.75,7.27,.6,15.13,6.01,12.96,22.14Z" style="fill:#d3766a;"></path><g><path d="M93.84,166.09c-.36-.12-.68-.29-1.03-.45-.39-.18-.72-.28-.96-.66-.13-.2-.04-.55,.14-.69,.44-.33,.97-.24,1.45-.04,.52,.21,.87,.51,1.15,1,.26,.48-.27,1-.75,.84Z" style="fill:#263238;"></path><path d="M82.76,165.2c.38,.03,.74,0,1.12,0,.43,0,.78,.03,1.15-.22,.2-.14,.26-.49,.14-.69-.27-.48-.8-.6-1.32-.62-.56-.01-1,.12-1.45,.46-.43,.33-.15,1.03,.35,1.07Z" style="fill:#263238;"></path><g><g><path d="M84.54,168.56s-.09,.04-.1,.08c-.16,1.1-.54,2.32-1.59,2.51-.03,0-.04,.06,0,.06,1.23,.05,1.71-1.58,1.69-2.65Z" style="fill:#263238;"></path><path d="M83.77,167.24c-1.73-.45-2.51,3.04-.91,3.46,1.58,.41,2.36-3.08,.91-3.46Z" style="fill:#263238;"></path></g><path d="M83.04,167.27c-.35,.13-.73,.41-1.1,.37-.43-.05-.67-.49-.87-.9-.02-.04-.06-.02-.07,.03-.16,.67-.06,1.41,.64,1.67,.63,.24,1.24-.25,1.55-.89,.06-.12,0-.33-.15-.27Z" style="fill:#263238;"></path></g><g><g><path d="M90.87,169.09s.07,.07,.06,.11c-.28,1.07-.43,2.35,.46,2.93,.03,.02,.01,.07-.02,.06-1.15-.44-.94-2.13-.5-3.1Z" style="fill:#263238;"></path><path d="M92.1,168.19c1.77,.27,1.1,3.78-.54,3.53-1.61-.25-.94-3.76,.54-3.53Z" style="fill:#263238;"></path></g><path d="M92.78,168.56c.24,.24,.45,.63,.78,.71,.38,.1,.74-.23,1.05-.54,.03-.03,.05,0,.05,.05-.11,.68-.47,1.33-1.13,1.34-.61,0-.93-.65-.97-1.35,0-.13,.12-.3,.22-.2Z" style="fill:#263238;"></path></g><path d="M82.25,177.59c.18,.33,.33,.74,.7,.89,.36,.14,.84,.11,1.22,.08,.04,0,.06,.04,.03,.07-.4,.32-1.05,.4-1.52,.17-.45-.23-.57-.72-.55-1.19,0-.07,.09-.06,.12-.02Z" style="fill:#263238;"></path><path d="M87.85,174.47s-.16,1.66-.35,2.42c-.02,.07-.21,.06-.47,.01-.01,0-.02,0-.03,0-1.39-.11-2.63-.9-3.18-2.19-.03-.09,.08-.14,.14-.08,.82,.98,1.88,1.43,3.07,1.74,.1-.2,.19-2.86,.31-2.84,.42,.06,1.17,.54,1.63,.8,.44-3.45,.33-6.95,.82-10.38,.02-.12,.2-.12,.21,0,.38,3.66-.04,7.64-.41,11.22-.04,.45-1.47-.5-1.74-.7Z" style="fill:#263238;"></path><g><path d="M87.07,176.59s-.9,.92-2,1.15c-.4,.08-.82,.08-1.24-.09-.86-.36-.77-1.18-.51-1.85,.21-.56,.55-1.01,.55-1.01,0,0,1.13,1.4,3.19,1.82Z" style="fill:#263238;"></path><path d="M85.08,177.74c-.4,.08-.82,.08-1.24-.09-.86-.36-.77-1.18-.51-1.85,.94,.23,1.79,1.01,1.75,1.95Z" style="fill:#ff9cbd;"></path></g></g><path d="M67.61,168.18c1.79,.11,7-4.2,8.19-12.74,0,0-1.6,7.6-2.31,8.65-.72,1.06,2.92-2.43,3.97-9.3,0,0,3.49,3.23,6.63,4.54,3.15,1.31,5.15,1.53,5.41,1.32,.26-.21-4.35-2.31-5.46-3.96,0,0,8.18,5.09,12.14,5.89,.46,.09,1.94-8.43-3.74-13.23-5.68-4.79-15.78-2.55-18.72-.33,0,0-3.14,.06-7.06,4.22-3.92,4.16-.96,14.82,.97,14.94Z" style="fill:#263238;"></path><g><path d="M69.4,168.24s-2.35-5.73-4.88-5c-2.53,.73-1.53,8.5,.89,10.08,2.42,1.57,3.92-.64,3.92-.64l.07-4.44Z" style="fill:#d3766a;"></path><path d="M64.87,165.46s-.06,.04-.03,.07c1.68,1.17,2.27,3.1,2.56,5.03-.4-.81-1.06-1.35-2.13-.9-.06,.02-.03,.11,.03,.11,.79,0,1.31,.26,1.69,.98,.27,.51,.39,1.11,.54,1.67,.05,.18,.37,.16,.35-.04v-.05c.57-2.35-.52-6.06-3-6.87Z" style="fill:#263238;"></path></g></g></g><g><g><path d="M51.71,198.49c-13.56,23.95-15.99,44.63-12.49,48.54,9.42,10.52,42.06,7.53,50.88,7.76,3.57,.1-2.34-29.54-6.14-29.19-8.95,.83-21.87,3.04-22.29,2.84-.83-.4,.46-7.28,2.74-27.86,1.84-16.65-7.16-11.88-12.7-2.09Z" style="fill:#d3766a;"></path><g><path d="M96.03,222.55c8.9-.83,11.32,.33,18.46-4.36,4.69-3.08,8.66-1.4,5.84,3.7-4.63,8.34-15.89,11.82-20.14,11.9l-4.15-11.24Z" style="fill:#d3766a;"></path><path d="M72.14,229.99s10.19-5.06,19.59-6.88c6.5-1.26,20.08-1.6,34.04,12.39,3.69,3.7,4.14,10.81-2.57,6.57-4.89-3.09-7.02-5.8-10.26-6.87,0,0,1.37,9.46-2.27,12.43-1.63,1.33-6.15,4.85-10.06,7.09,0,0-.72-.72-1.5-1.76,0,0-3.66,2.46-10.3,1.52l-16.68-24.48Z" style="fill:#d3766a;"></path><g><path d="M98.13,222.9c3,1.74,9.3,5.55,13.37,10.45,4.52,5.45,11.76,17.15,7.7,20.45-2.97,2.42-6.13-1.81-6.13-1.81,0,0,1.97,5.47-1.19,7.07-2.88,1.45-5.13-1.96-5.13-1.96,0,0,.63,3.52-2.42,4.39-3.66,1.04-4.37-6.51-9-8.67-1.04-.48,2.79-29.91,2.79-29.91Z" style="fill:#d3766a;"></path><g><path d="M104.94,237.16c2.55,2.1,7.13,8.37,8.18,14.68,.02,.14-.07,.24-.12,.11-2.64-6.71-6.38-12.42-8.11-14.75-.02-.03,.02-.07,.05-.04Z" style="fill:#263238;"></path><path d="M99.58,241.89c2.02,2.04,6.44,8.71,7.29,15.15,.02,.14-.08,.23-.13,.1-2.47-7.12-5.63-12.78-7.22-15.21-.02-.03,.03-.07,.05-.04Z" style="fill:#263238;"></path></g></g></g><path d="M82.27,225.77c4.03-1.57,8.24-2.67,12.53-3.32,4.23-.87,8.65-.22,12.81-1.35,3.42-.75,5.66-2.93,8.73-4.14,4.91-1.64,6.66,1.45,4.24,5.66-1.12,1.95-2.68,3.53-4.47,4.85v-.59c2.63,1.9,5.17,3.89,7.57,6.09,2.31,2.21,5.05,4.73,5.22,8.15-.8,6.46-9.57-1.66-11.97-3.27-1.29-.93-2.59-1.96-4.05-2.48l.2-.3c3.16,4.5,6.29,9.35,7.25,14.85-1.12-5.65-4.52-10.56-7.9-15.09l.56,.17c2.98,.41,14.6,12.53,15.29,6.11-.21-3.17-2.85-5.58-5.05-7.66-2.49-2.26-5.18-4.33-7.92-6.28l.4-.3c2.43-1.85,4.79-4.41,5.21-7.52,.12-.99-.35-1.84-1.36-2.02-2-.35-4.12,.59-5.78,1.73-1.84,1.21-3.87,2.09-5.99,2.68-4.22,1.16-8.64,.44-12.92,1.18-4.26,.57-8.5,1.45-12.6,2.84h0Z" style="fill:#263238;"></path></g><g><g><path d="M39.49,219.17l24.05-3.02s1.42-12.1,1.26-18.91c-.21-9.01-3.61-11.04-10.68-2.56-4.73,5.68-14.63,24.48-14.63,24.48Z" style="fill:#FFC727;"></path><path d="M49.06,217.97l-3.12,.38c.09-.84,.82-1.48,1.68-1.44,.67,.03,1.23,.46,1.44,1.05Zm8.2-14.7c-.9-.04-1.66,.65-1.7,1.55-.04,.9,.65,1.66,1.55,1.7,.9,.04,1.66-.65,1.7-1.55,.04-.9-.65-1.66-1.55-1.7Z" style="fill:#fff;"></path></g><g><path d="M41.64,216.59c3.47-.68,6.94-1.31,10.44-1.79,1.75-.24,3.5-.45,5.25-.63,1.75-.18,3.53-.19,5.27-.4,.1-.01,.11,.14,.01,.15-1.75,.12-3.51,.47-5.25,.69-1.75,.21-3.5,.44-5.25,.67-3.49,.46-6.99,.92-10.47,1.46-.1,.02-.1-.13-.01-.15Z" style="fill:#263238;"></path><g><path d="M60.61,216.53c.25-.08,2.71-.47,2.9-.45,.13-1.43,.24-2.86,.39-4.28,.07-.71,.16-1.43,.25-2.14,.11-.78,.18-1.68,.28-2.37,.01-.11,.15-.1,.15,0-.03,.91-.09,1.59-.12,2.38-.03,.7-.07,1.41-.14,2.11-.13,1.49-.2,3.08-.4,4.56-.02,.11-3.04,.28-3.31,.26-.05,0-.05-.07,0-.09Z" style="fill:#263238;"></path><path d="M65.24,208.62c-.13,.87-.42,1.69-.87,2.44,.13-.87,.42-1.69,.87-2.44h0Z" style="fill:#263238;"></path></g></g></g></g><g><rect x="88.86" y="261.02" width="63.05" height="2.83" style="fill:#c7c7c7;"></rect><polygon points="116.01 261.02 113.85 263.85 165.57 263.85 165.57 261.02 116.01 261.02" style="fill:#a6a6a6;"></polygon><g><polygon points="118.73 263.85 180.17 263.85 192.65 222.11 131.2 222.11 118.73 263.85" style="fill:#a6a6a6;"></polygon><polygon points="120.85 263.85 182.3 263.85 194.78 222.11 133.33 222.11 120.85 263.85" style="fill:#c7c7c7;"></polygon><path d="M155.25,242.98c-.4,2.07,.95,3.74,3.02,3.74s4.07-1.67,4.47-3.74c.4-2.07-.95-3.74-3.02-3.74s-4.06,1.67-4.47,3.74Z" style="fill:#fff;"></path></g></g></g></g></g></svg>
